M48
INCH,TZ
T1C0.0059
T2C0.0079
T3C0.0157
T4C0.0256
%
G90
G05
T1
X17126Y-29567
X17815Y-31299
X17913Y-29567
X18012Y-31102
X18110Y-32205
X18110Y-32598
X18110Y-32992
X18209Y-31240
X18366Y-33858
X18406Y-31102
X18504Y-32205
X18504Y-32598
X18504Y-32992
X18602Y-31240
X18701Y-29567
X18799Y-31094
X18819Y-33895
X18898Y-32205
X18898Y-32598
X18898Y-32992
X19000Y-31244
X19154Y-33898
X19429Y-31476
X19429Y-33681
X19783Y-36044
X20374Y-36044
X20965Y-36044
X21555Y-36044
X22067Y-33681
X22165Y-36043
X22323Y-18307
X22520Y-33681
X22795Y-33189
X22795Y-33681
X23228Y-33563
X23760Y-32953
X23957Y-32953
X24055Y-23150
X24075Y-22303
X24094Y-18307
X24154Y-32953
X24350Y-32953
X24587Y-18307
X24685Y-33563
X24705Y-28484
X24961Y-34193
X25079Y-18307
X25138Y-33996
X25295Y-28484
X25413Y-34193
X25433Y-26240
X25433Y-27776
X25453Y-29646
X25571Y-28346
X25591Y-18307
X25610Y-29803
X25610Y-34193
X25709Y-29941
X25709Y-30217
X25709Y-36043
X25728Y-29528
X25827Y-21083
X25925Y-34764
X25984Y-30217
X26024Y-27913
X26102Y-18307
X26122Y-34902
X26280Y-36043
X26319Y-34764
X26339Y-21083
X26516Y-34902
X26594Y-18307
X26713Y-34764
X26791Y-27776
X26791Y-28071
X26791Y-28740
X26870Y-29390
X26870Y-36043
X27066Y-29193
X27067Y-25866
X27067Y-28012
X27067Y-28406
X27067Y-28996
X27067Y-29390
X27067Y-29980
X27263Y-29783
X27263Y-28209
X27264Y-28011
X27264Y-28406
X27264Y-28602
X27264Y-28799
X27264Y-28996
X27264Y-29980
X27303Y-34764
X27402Y-30433
X27461Y-29193
X27461Y-29783
X27461Y-29980
X27461Y-30177
X27480Y-36043
X27500Y-29390
X27520Y-27362
X27520Y-27539
X27559Y-33228
X27638Y-27224
X27657Y-27815
X27657Y-28012
X27657Y-28209
X27657Y-29783
X27854Y-28012
X27854Y-28209
X27854Y-29665
X27854Y-29980
X27854Y-30177
X27854Y-30689
X27874Y-30433
X28031Y-29665
X28051Y-27815
X28051Y-28012
X28051Y-28209
X28051Y-34449
X28071Y-36043
X28090Y-33996
X28209Y-29665
X28260Y-28218
X28366Y-30433
X28366Y-30650
X28445Y-28013
X28445Y-29980
X28445Y-30177
X28563Y-34193
X28602Y-28307
X28661Y-36043
X28838Y-29980
X28839Y-27814
X28839Y-28012
X28839Y-29783
X28839Y-30177
X28917Y-31417
X28996Y-30433
X29035Y-27815
X29035Y-28012
X29035Y-28406
X29035Y-28799
X29035Y-28996
X29035Y-29390
X29035Y-30177
X29036Y-29981
X29232Y-28209
X29232Y-28406
X29232Y-28799
X29232Y-29193
X29232Y-29390
X29232Y-29783
X29232Y-29980
X29272Y-34764
X29331Y-24114
X29409Y-24409
X29428Y-29980
X29429Y-28209
X29429Y-28800
X29429Y-29390
X29469Y-34902
X29567Y-23091
X29614Y-28198
X29665Y-34764
X29823Y-25413
X29862Y-34902
X29980Y-30630
X30059Y-34764
X30138Y-27669
X30256Y-34902
X30413Y-29469
X30433Y-27992
X30453Y-34764
X30512Y-33228
X30630Y-16614
X30641Y-28209
X30669Y-30098
X30709Y-34213
X30866Y-29173
X30866Y-30098
X31004Y-27894
X31043Y-33996
X31063Y-16614
X31063Y-30098
X31102Y-27638
X31260Y-30098
X31299Y-28425
X31299Y-28622
X31299Y-28819
X31299Y-29016
X31339Y-26881
X31398Y-27579
X31516Y-34193
X31555Y-25157
X31693Y-27638
X31693Y-27835
X31693Y-28031
X31693Y-28622
X31693Y-28819
X31693Y-29016
X31811Y-25413
X31870Y-27224
X31890Y-28622
X31890Y-28819
X31890Y-29016
X31929Y-17402
X32008Y-24449
X32087Y-22028
X32087Y-27638
X32087Y-27835
X32087Y-28425
X32087Y-28819
X32244Y-17992
X32264Y-23209
X32283Y-28622
X32283Y-28819
X32441Y-22264
X32441Y-24055
X32441Y-35177
X32461Y-30098
X32480Y-27638
X32579Y-28484
X32795Y-16614
X32795Y-24252
X32894Y-29961
X33130Y-21850
X33209Y-34902
X33307Y-28720
X33406Y-29449
X33406Y-29980
X33465Y-27382
X33465Y-33228
X33622Y-34705
X33760Y-26516
X34291Y-23465
X34390Y-35650
X34528Y-25472
T2
X18248Y-34724
X27756Y-26240
X27776Y-25965
X27795Y-25689
T3
X16476Y-32008
X16481Y-32653
X16929Y-33799
X17618Y-34665
X17776Y-19134
X19350Y-29488
X19409Y-22244
X19409Y-23406
X19409Y-25531
X19409Y-26693
X20374Y-29488
X20571Y-34744
X21043Y-34744
X21260Y-32598
X21398Y-29488
X22185Y-30866
X22835Y-18307
X22854Y-30866
X23583Y-18307
X24705Y-28819
X24980Y-27244
X25886Y-28819
X25886Y-29232
X26280Y-31063
X26339Y-26516
X26752Y-25866
X27087Y-18307
X27087Y-21083
X27776Y-28602
X28150Y-29409
X29016Y-20551
X29134Y-16142
X29724Y-17008
X29882Y-24823
X31161Y-22697
X31496Y-16614
X31594Y-22697
X32362Y-16614
X32362Y-17008
X33228Y-16614
X33228Y-22520
X33228Y-23740
X34173Y-20551
X34272Y-32854
X34783Y-35157
X35236Y-35807
X35276Y-24409
T4
X35039Y-28209
X35039Y-28709
X35039Y-29209
X35039Y-29709
X35039Y-30209
T0
M30
