%TF.GenerationSoftware,KiCad,Pcbnew,(6.0.2)*%
%TF.CreationDate,2023-11-17T09:37:32+01:00*%
%TF.ProjectId,CartGen4,43617274-4765-46e3-942e-6b696361645f,rev?*%
%TF.SameCoordinates,Original*%
%TF.FileFunction,Copper,L3,Inr*%
%TF.FilePolarity,Positive*%
%FSLAX46Y46*%
G04 Gerber Fmt 4.6, Leading zero omitted, Abs format (unit mm)*
G04 Created by KiCad (PCBNEW (6.0.2)) date 2023-11-17 09:37:32*
%MOMM*%
%LPD*%
G01*
G04 APERTURE LIST*
%TA.AperFunction,ComponentPad*%
%ADD10R,1.000000X1.000000*%
%TD*%
%TA.AperFunction,ComponentPad*%
%ADD11O,1.000000X1.000000*%
%TD*%
%TA.AperFunction,ViaPad*%
%ADD12C,0.302400*%
%TD*%
%TA.AperFunction,ViaPad*%
%ADD13C,0.800000*%
%TD*%
%TA.AperFunction,ViaPad*%
%ADD14C,0.400000*%
%TD*%
G04 APERTURE END LIST*
D10*
%TO.N,GND*%
%TO.C,J2*%
X89000000Y-71650000D03*
D11*
%TO.N,FPGA_JTAG_TMS*%
X89000000Y-72920000D03*
%TO.N,FPGA_JTAG_TCK*%
X89000000Y-74190000D03*
%TO.N,FPGA_JTAG_TDI*%
X89000000Y-75460000D03*
%TO.N,FPGA_JTAG_TDO*%
X89000000Y-76730000D03*
%TD*%
D12*
%TO.N,+5V*%
X69350000Y-88300000D03*
X63400000Y-86850000D03*
X76850000Y-88650000D03*
D13*
X44750073Y-88050073D03*
X88350000Y-89300000D03*
D12*
X84350000Y-88650000D03*
D13*
X54000000Y-82800000D03*
X41862500Y-82937500D03*
D12*
%TO.N,GB_ADDR_5V0*%
X65850000Y-88300000D03*
X50250000Y-91550498D03*
%TO.N,GB_ADDR_5V1*%
X51750000Y-91550498D03*
X66350000Y-88650000D03*
%TO.N,GB_ADDR_5V2*%
X66850000Y-88300000D03*
X53250000Y-91550498D03*
%TO.N,GB_ADDR_5V3*%
X54750000Y-91550498D03*
X67350000Y-88650000D03*
%TO.N,GB_ADDR_5V4*%
X67850000Y-88300000D03*
X56300000Y-91550000D03*
%TO.N,GB_ADDR_5V10*%
X65300000Y-91550000D03*
X74350000Y-88300000D03*
%TO.N,GB_ADDR_5V11*%
X66750000Y-91550000D03*
X74850000Y-88650000D03*
%TO.N,GB_ADDR_5V12*%
X75350000Y-88300000D03*
X68250000Y-91550000D03*
%TO.N,GB_ADDR_5V13*%
X75850000Y-88650000D03*
X69800000Y-91550000D03*
%TO.N,GB_ADDR_5V14*%
X71300000Y-91550000D03*
X76350000Y-88300000D03*
%TO.N,GB_ADDR_5V15*%
X77350000Y-88300000D03*
X72800000Y-91550000D03*
D13*
%TO.N,GND*%
X84400000Y-60300000D03*
D12*
X68750000Y-71150000D03*
X80950000Y-69150000D03*
X46750000Y-79000000D03*
X78000000Y-86900000D03*
X48000000Y-82800000D03*
X72550000Y-86850000D03*
X81000000Y-72700000D03*
D13*
X68800000Y-53550000D03*
D12*
X82400000Y-89350000D03*
X77250000Y-74850000D03*
X68750000Y-72150000D03*
D13*
X49300000Y-64850000D03*
D12*
X65600000Y-53550000D03*
D13*
X58050000Y-78400000D03*
X84400000Y-42200000D03*
X63450000Y-69200000D03*
X59900000Y-46500000D03*
X58000000Y-46500000D03*
D12*
X77828282Y-71650000D03*
D13*
X89500000Y-90950000D03*
X49300000Y-59450000D03*
D12*
X78400000Y-74100000D03*
X74750000Y-71650000D03*
X76550000Y-70278200D03*
D13*
X87050000Y-83450000D03*
D12*
X65050000Y-86850000D03*
D13*
X52250000Y-88250000D03*
D12*
X85400000Y-88150000D03*
X80150000Y-63900000D03*
D13*
X66750000Y-78900000D03*
D12*
X71250000Y-71150000D03*
X66900000Y-53550000D03*
X74250000Y-72150000D03*
X46000000Y-81800000D03*
X43500000Y-75100000D03*
X82750000Y-72350000D03*
X73248833Y-76148833D03*
X81500000Y-72200000D03*
X84850000Y-74800000D03*
D13*
X73700000Y-52200000D03*
D12*
X70750000Y-76150000D03*
X81950000Y-58950000D03*
X81900000Y-45700000D03*
X69250000Y-76150000D03*
X69750000Y-76650000D03*
D13*
X45150000Y-48600000D03*
X71500000Y-74700000D03*
X82200000Y-42200000D03*
D12*
X81500000Y-70200000D03*
X79500000Y-72200000D03*
D13*
X43000000Y-85850000D03*
D12*
X64550000Y-86850000D03*
X57200000Y-85550000D03*
D13*
X41850000Y-81300000D03*
X65750000Y-74250000D03*
X70550000Y-72650000D03*
D12*
X46000000Y-83800000D03*
X69900000Y-69500000D03*
X80800000Y-64550000D03*
X77300000Y-71100000D03*
X79750000Y-70050000D03*
X80500000Y-72700000D03*
X72250000Y-71152341D03*
D14*
X46350000Y-88200000D03*
D12*
X47000000Y-82800000D03*
X48000000Y-83800000D03*
D13*
X75900000Y-63050000D03*
X51750000Y-74900000D03*
X89600000Y-62000000D03*
D12*
X47000000Y-81800000D03*
X70200000Y-69150000D03*
X45500000Y-75100000D03*
X74747659Y-76150000D03*
X79600000Y-68277440D03*
X74250000Y-71650000D03*
X48000000Y-81800000D03*
X46000000Y-82800000D03*
D13*
X82200000Y-43200000D03*
D12*
X59000000Y-85250000D03*
D13*
X74000000Y-41000000D03*
D12*
X70250000Y-71150000D03*
X76150000Y-77800000D03*
X80050000Y-86850500D03*
X80500000Y-73200000D03*
D13*
X86800000Y-52200000D03*
X67950000Y-65700000D03*
D12*
X80500000Y-70200000D03*
D13*
X79150000Y-57650000D03*
D12*
X71250000Y-87500000D03*
X73450000Y-79800000D03*
X68250000Y-74650000D03*
X47000000Y-83800000D03*
%TO.N,PS_SS*%
X49350000Y-79950000D03*
X45250500Y-79499500D03*
X56050000Y-85550000D03*
X49350000Y-85550000D03*
%TO.N,+1V8*%
X47500000Y-75100000D03*
X82500000Y-70200000D03*
X71250000Y-70650000D03*
D13*
X66900000Y-67350000D03*
D12*
X79000000Y-70200000D03*
X73750000Y-70650000D03*
X75219832Y-71621800D03*
D13*
X54350000Y-74900000D03*
D12*
X80500000Y-70700000D03*
X74750000Y-73152341D03*
X80500000Y-73700000D03*
X81500000Y-70700000D03*
X70750000Y-71150000D03*
X81000000Y-73700000D03*
%TO.N,+1V2*%
X72650000Y-71900000D03*
X73250000Y-70647659D03*
D13*
X65750000Y-73200000D03*
D12*
X74250000Y-74150000D03*
X69750000Y-74150000D03*
D13*
X53450000Y-88250000D03*
D12*
X73250000Y-76650000D03*
X70250000Y-71650000D03*
X72250000Y-76650000D03*
D13*
X56350000Y-78400000D03*
D12*
%TO.N,+3V3*%
X74250000Y-74650000D03*
X62700000Y-85250000D03*
X72250000Y-76150000D03*
X69249999Y-71147659D03*
X69250000Y-73150000D03*
X73750000Y-76650000D03*
X75750000Y-64550000D03*
X77500000Y-84400000D03*
X70000000Y-84400000D03*
X73751167Y-76151167D03*
X68748833Y-74151167D03*
X74750000Y-74650000D03*
X69750000Y-76150000D03*
X70750000Y-76650000D03*
X70250000Y-70650000D03*
D13*
X80250000Y-57650000D03*
D12*
X73750000Y-71150000D03*
D13*
X62750000Y-73200000D03*
X84400000Y-57200000D03*
X75500000Y-43200000D03*
D12*
X85000000Y-84400000D03*
D13*
X49150000Y-74900000D03*
X80000000Y-42200000D03*
X68800000Y-46500000D03*
D12*
X68750000Y-76150000D03*
X85000000Y-69550000D03*
%TO.N,FPGA_SOFT_RST#*%
X62750000Y-72350000D03*
X64250000Y-72350000D03*
%TO.N,FPGA_SPI_SD_CS#*%
X77800000Y-42200000D03*
X68750000Y-65700000D03*
%TO.N,FPGA_SPI_MOSI*%
X81300000Y-62100000D03*
X68750000Y-73650000D03*
D14*
X70600000Y-65250000D03*
D12*
X81500000Y-55950000D03*
X78900000Y-42200000D03*
D14*
%TO.N,FPGA_SPI_CLK*%
X70550000Y-65950000D03*
D12*
X68050000Y-73000000D03*
X82400000Y-61100000D03*
X82400000Y-56550000D03*
X81100000Y-44200000D03*
%TO.N,FPGA_SPI_MISO*%
X83300000Y-42200000D03*
X83300000Y-61600000D03*
X69250000Y-72650000D03*
D14*
X70500000Y-66650000D03*
D12*
%TO.N,Net-(R1-Pad1)*%
X48650000Y-86100000D03*
%TO.N,PS_FB2*%
X47799500Y-86093355D03*
%TO.N,Net-(R4-Pad1)*%
X48258748Y-79360420D03*
%TO.N,PS_FB1*%
X46250000Y-79350000D03*
%TO.N,Net-(R7-Pad1)*%
X47250000Y-79350000D03*
%TO.N,Net-(R8-Pad1)*%
X45750000Y-79000000D03*
%TO.N,PS_FB3*%
X47749951Y-78979218D03*
%TO.N,PS_PGOOD*%
X57900000Y-84300000D03*
X46650000Y-86000000D03*
X69250000Y-73650000D03*
X64650000Y-75300000D03*
%TO.N,GB_BUS_EN*%
X71349511Y-86350489D03*
X78850000Y-86350489D03*
X63849511Y-86350489D03*
X57900000Y-85550000D03*
%TO.N,FPGA_SPI_FLASH_CS#*%
X69250000Y-72150000D03*
X85750000Y-67350000D03*
%TO.N,FPGA_SPI_RTC_CS#*%
X66100000Y-70900000D03*
X74700000Y-62000000D03*
%TO.N,GB_DATA3*%
X73250000Y-75650000D03*
X73650000Y-77300000D03*
%TO.N,RAM_WAIT*%
X78750000Y-70850000D03*
X71250000Y-71650000D03*
%TO.N,RAM_OE#*%
X80500000Y-71200000D03*
X71780168Y-71674789D03*
%TO.N,RAM_ADV#*%
X79500000Y-72700000D03*
X70750000Y-71650000D03*
%TO.N,RAM_UB#*%
X82000000Y-72700000D03*
X73750000Y-74650000D03*
%TO.N,RAM_WE#*%
X79500000Y-73200000D03*
X73750000Y-72150000D03*
%TO.N,RAM_CRE*%
X74250000Y-73150000D03*
X81000000Y-73200000D03*
%TO.N,RAM_CE1#*%
X73750000Y-73150000D03*
X81500000Y-73200000D03*
%TO.N,RAM_LB#*%
X73750000Y-73650000D03*
X82000000Y-73200000D03*
%TO.N,RAM_CLK*%
X79500000Y-73700000D03*
X73250000Y-71150000D03*
%TO.N,GB_ADDR9*%
X70750000Y-77950000D03*
X70750000Y-75350000D03*
%TO.N,GB_ADDR10*%
X70800000Y-77300000D03*
X70250000Y-75650000D03*
%TO.N,GB_ADDR14*%
X72050000Y-77850000D03*
X71200000Y-75350000D03*
%TO.N,GB_ADDR15*%
X71650000Y-75350000D03*
X72050000Y-77300000D03*
%TO.N,GB_ADDR5*%
X69750000Y-75650000D03*
X69600000Y-77300000D03*
%TO.N,GB_CLK*%
X77900000Y-76450000D03*
X60350000Y-83700000D03*
%TO.N,GB_WR#*%
X78400000Y-76450000D03*
X60850000Y-83700000D03*
%TO.N,GB_CS#*%
X79400000Y-76450000D03*
X61850000Y-83700000D03*
%TO.N,GB_RD#*%
X61350000Y-83700000D03*
X78900000Y-76450000D03*
%TO.N,FPGA_JTAG_TDO*%
X83550000Y-76100000D03*
%TO.N,FPGA_JTAG_TMS*%
X84600000Y-72950000D03*
X74250000Y-75650000D03*
%TO.N,FLASH_WP#*%
X87700000Y-64700000D03*
X84850000Y-76150000D03*
%TO.N,SD_CARD_DETECT*%
X74250000Y-76150000D03*
X84150000Y-55500000D03*
%TO.N,RTC_RST#*%
X75100000Y-58650000D03*
X64950000Y-72000000D03*
%TO.N,FLASH_HOLD#*%
X82450000Y-76450000D03*
X87100000Y-59600000D03*
D13*
%TO.N,+VBAT*%
X49300000Y-67800000D03*
X49300000Y-56500000D03*
D12*
X74500000Y-61250000D03*
%TO.N,FPGA_TOE*%
X68750000Y-74650000D03*
X65350000Y-75000000D03*
%TO.N,FPGA_DONE*%
X68050000Y-71300000D03*
X61100000Y-58800000D03*
X69247660Y-71650000D03*
X61150000Y-56650000D03*
%TO.N,FPGA_USER0*%
X65050000Y-75700000D03*
X67550000Y-46500000D03*
%TO.N,FPGA_USER1*%
X66300000Y-46500000D03*
X65300000Y-76050000D03*
%TO.N,FPGA_USER2*%
X65000000Y-46500000D03*
X69850000Y-74650000D03*
%TO.N,FPGA_USER5*%
X61200000Y-46500000D03*
X66000000Y-76750000D03*
%TO.N,FPGA_USER3*%
X63700000Y-46500000D03*
X65300000Y-76750000D03*
%TO.N,FPGA_USER4*%
X69247659Y-75650000D03*
X62450000Y-46500000D03*
%TO.N,Net-(A1-Pad31)*%
X87350000Y-90550000D03*
%TO.N,GB_AUDIO*%
X56700000Y-46500000D03*
%TO.N,CLK_EN*%
X68050000Y-70550000D03*
X64600000Y-66650000D03*
X69900000Y-69950000D03*
X64600000Y-70550000D03*
%TD*%
%TA.AperFunction,Conductor*%
%TO.N,GND*%
G36*
X87634191Y-38268907D02*
G01*
X87670155Y-38318407D01*
X87675000Y-38349000D01*
X87675000Y-40944123D01*
X87674955Y-40995449D01*
X87679781Y-41005498D01*
X87679781Y-41005500D01*
X87680185Y-41006341D01*
X87687463Y-41027183D01*
X87687670Y-41028093D01*
X87687672Y-41028096D01*
X87690150Y-41038962D01*
X87697097Y-41047680D01*
X87697520Y-41048211D01*
X87709334Y-41067046D01*
X87709625Y-41067653D01*
X87709628Y-41067657D01*
X87714453Y-41077705D01*
X87723893Y-41085254D01*
X87739484Y-41100872D01*
X87747015Y-41110323D01*
X87757058Y-41115167D01*
X87757663Y-41115459D01*
X87776478Y-41127308D01*
X87777005Y-41127730D01*
X87777010Y-41127732D01*
X87785715Y-41134694D01*
X87797405Y-41137382D01*
X87797492Y-41137402D01*
X87818318Y-41144715D01*
X87829202Y-41149965D01*
X87840347Y-41149975D01*
X87840348Y-41149975D01*
X87852213Y-41149985D01*
X87852211Y-41151730D01*
X87852277Y-41151724D01*
X87852277Y-41150000D01*
X87869123Y-41150000D01*
X87920160Y-41150045D01*
X87920449Y-41150045D01*
X87920537Y-41150003D01*
X87920561Y-41150000D01*
X92076000Y-41150000D01*
X92134191Y-41168907D01*
X92170155Y-41218407D01*
X92175000Y-41249000D01*
X92175000Y-78401000D01*
X92156093Y-78459191D01*
X92106593Y-78495155D01*
X92076000Y-78500000D01*
X90380877Y-78500000D01*
X90329551Y-78499955D01*
X90319502Y-78504781D01*
X90319500Y-78504781D01*
X90318659Y-78505185D01*
X90297817Y-78512463D01*
X90296907Y-78512670D01*
X90296904Y-78512672D01*
X90286038Y-78515150D01*
X90277320Y-78522097D01*
X90276789Y-78522520D01*
X90257954Y-78534334D01*
X90257347Y-78534625D01*
X90257343Y-78534628D01*
X90247295Y-78539453D01*
X90239746Y-78548893D01*
X90224128Y-78564484D01*
X90214677Y-78572015D01*
X90209833Y-78582058D01*
X90209541Y-78582663D01*
X90197692Y-78601478D01*
X90197270Y-78602005D01*
X90197268Y-78602010D01*
X90190306Y-78610715D01*
X90187808Y-78621581D01*
X90187598Y-78622492D01*
X90180285Y-78643318D01*
X90175035Y-78654202D01*
X90175025Y-78665347D01*
X90175025Y-78665348D01*
X90175019Y-78672602D01*
X90175015Y-78677213D01*
X90173270Y-78677211D01*
X90173276Y-78677277D01*
X90175000Y-78677277D01*
X90175000Y-78694123D01*
X90174960Y-78740220D01*
X90174955Y-78745449D01*
X90174997Y-78745537D01*
X90175000Y-78745561D01*
X90175000Y-80044123D01*
X90174955Y-80095449D01*
X90179781Y-80105498D01*
X90179781Y-80105500D01*
X90180185Y-80106341D01*
X90187463Y-80127183D01*
X90187670Y-80128093D01*
X90187672Y-80128096D01*
X90190150Y-80138962D01*
X90197097Y-80147680D01*
X90197520Y-80148211D01*
X90209334Y-80167046D01*
X90209625Y-80167653D01*
X90209628Y-80167657D01*
X90214453Y-80177705D01*
X90223893Y-80185254D01*
X90239484Y-80200872D01*
X90247015Y-80210323D01*
X90257058Y-80215167D01*
X90257663Y-80215459D01*
X90276478Y-80227308D01*
X90277005Y-80227730D01*
X90277010Y-80227732D01*
X90285715Y-80234694D01*
X90297405Y-80237382D01*
X90297492Y-80237402D01*
X90318318Y-80244715D01*
X90329202Y-80249965D01*
X90340347Y-80249975D01*
X90340348Y-80249975D01*
X90352213Y-80249985D01*
X90352211Y-80251730D01*
X90352277Y-80251724D01*
X90352277Y-80250000D01*
X90369123Y-80250000D01*
X90420160Y-80250045D01*
X90420449Y-80250045D01*
X90420537Y-80250003D01*
X90420561Y-80250000D01*
X92076000Y-80250000D01*
X92134191Y-80268907D01*
X92170155Y-80318407D01*
X92175000Y-80349000D01*
X92175000Y-89651000D01*
X92156093Y-89709191D01*
X92106593Y-89745155D01*
X92076000Y-89750000D01*
X90730877Y-89750000D01*
X90679551Y-89749955D01*
X90669502Y-89754781D01*
X90669500Y-89754781D01*
X90668659Y-89755185D01*
X90647817Y-89762463D01*
X90646907Y-89762670D01*
X90646904Y-89762672D01*
X90636038Y-89765150D01*
X90627320Y-89772097D01*
X90626789Y-89772520D01*
X90607954Y-89784334D01*
X90607347Y-89784625D01*
X90607343Y-89784628D01*
X90597295Y-89789453D01*
X90589746Y-89798893D01*
X90574128Y-89814484D01*
X90564677Y-89822015D01*
X90559593Y-89832555D01*
X90559541Y-89832663D01*
X90547692Y-89851478D01*
X90547270Y-89852005D01*
X90547268Y-89852010D01*
X90540306Y-89860715D01*
X90537808Y-89871581D01*
X90537598Y-89872492D01*
X90530285Y-89893318D01*
X90525035Y-89904202D01*
X90525015Y-89927213D01*
X90523270Y-89927211D01*
X90523276Y-89927277D01*
X90525000Y-89927277D01*
X90525000Y-89944123D01*
X90524955Y-89995449D01*
X90524997Y-89995537D01*
X90525000Y-89995561D01*
X90525000Y-98651000D01*
X90506093Y-98709191D01*
X90456593Y-98745155D01*
X90426000Y-98750000D01*
X41574000Y-98750000D01*
X41515809Y-98731093D01*
X41479845Y-98681593D01*
X41475000Y-98651000D01*
X41475000Y-91550498D01*
X49993369Y-91550498D01*
X50012904Y-91648706D01*
X50068534Y-91731964D01*
X50151792Y-91787594D01*
X50161354Y-91789496D01*
X50237935Y-91804729D01*
X50250000Y-91807129D01*
X50262066Y-91804729D01*
X50338646Y-91789496D01*
X50348208Y-91787594D01*
X50431466Y-91731964D01*
X50487096Y-91648706D01*
X50506631Y-91550498D01*
X51493369Y-91550498D01*
X51512904Y-91648706D01*
X51568534Y-91731964D01*
X51651792Y-91787594D01*
X51661354Y-91789496D01*
X51737935Y-91804729D01*
X51750000Y-91807129D01*
X51762066Y-91804729D01*
X51838646Y-91789496D01*
X51848208Y-91787594D01*
X51931466Y-91731964D01*
X51987096Y-91648706D01*
X52006631Y-91550498D01*
X52993369Y-91550498D01*
X53012904Y-91648706D01*
X53068534Y-91731964D01*
X53151792Y-91787594D01*
X53161354Y-91789496D01*
X53237935Y-91804729D01*
X53250000Y-91807129D01*
X53262066Y-91804729D01*
X53338646Y-91789496D01*
X53348208Y-91787594D01*
X53431466Y-91731964D01*
X53487096Y-91648706D01*
X53506631Y-91550498D01*
X54493369Y-91550498D01*
X54512904Y-91648706D01*
X54568534Y-91731964D01*
X54651792Y-91787594D01*
X54661354Y-91789496D01*
X54737935Y-91804729D01*
X54750000Y-91807129D01*
X54762066Y-91804729D01*
X54838646Y-91789496D01*
X54848208Y-91787594D01*
X54931466Y-91731964D01*
X54987096Y-91648706D01*
X55006631Y-91550498D01*
X55006532Y-91550000D01*
X56043369Y-91550000D01*
X56062904Y-91648208D01*
X56118534Y-91731466D01*
X56201792Y-91787096D01*
X56300000Y-91806631D01*
X56398208Y-91787096D01*
X56481466Y-91731466D01*
X56537096Y-91648208D01*
X56556631Y-91550000D01*
X65043369Y-91550000D01*
X65062904Y-91648208D01*
X65118534Y-91731466D01*
X65201792Y-91787096D01*
X65300000Y-91806631D01*
X65398208Y-91787096D01*
X65481466Y-91731466D01*
X65537096Y-91648208D01*
X65556631Y-91550000D01*
X66493369Y-91550000D01*
X66512904Y-91648208D01*
X66568534Y-91731466D01*
X66651792Y-91787096D01*
X66750000Y-91806631D01*
X66848208Y-91787096D01*
X66931466Y-91731466D01*
X66987096Y-91648208D01*
X67006631Y-91550000D01*
X67993369Y-91550000D01*
X68012904Y-91648208D01*
X68068534Y-91731466D01*
X68151792Y-91787096D01*
X68250000Y-91806631D01*
X68348208Y-91787096D01*
X68431466Y-91731466D01*
X68487096Y-91648208D01*
X68506631Y-91550000D01*
X69543369Y-91550000D01*
X69562904Y-91648208D01*
X69618534Y-91731466D01*
X69701792Y-91787096D01*
X69800000Y-91806631D01*
X69898208Y-91787096D01*
X69981466Y-91731466D01*
X70037096Y-91648208D01*
X70056631Y-91550000D01*
X71043369Y-91550000D01*
X71062904Y-91648208D01*
X71118534Y-91731466D01*
X71201792Y-91787096D01*
X71300000Y-91806631D01*
X71398208Y-91787096D01*
X71481466Y-91731466D01*
X71537096Y-91648208D01*
X71556631Y-91550000D01*
X72543369Y-91550000D01*
X72562904Y-91648208D01*
X72618534Y-91731466D01*
X72701792Y-91787096D01*
X72800000Y-91806631D01*
X72898208Y-91787096D01*
X72981466Y-91731466D01*
X73037096Y-91648208D01*
X73056631Y-91550000D01*
X73037096Y-91451792D01*
X72981466Y-91368534D01*
X72898208Y-91312904D01*
X72849104Y-91303137D01*
X72809562Y-91295271D01*
X72800000Y-91293369D01*
X72790438Y-91295271D01*
X72750896Y-91303137D01*
X72701792Y-91312904D01*
X72618534Y-91368534D01*
X72562904Y-91451792D01*
X72543369Y-91550000D01*
X71556631Y-91550000D01*
X71537096Y-91451792D01*
X71481466Y-91368534D01*
X71398208Y-91312904D01*
X71349104Y-91303137D01*
X71309562Y-91295271D01*
X71300000Y-91293369D01*
X71290438Y-91295271D01*
X71250896Y-91303137D01*
X71201792Y-91312904D01*
X71118534Y-91368534D01*
X71062904Y-91451792D01*
X71043369Y-91550000D01*
X70056631Y-91550000D01*
X70037096Y-91451792D01*
X69981466Y-91368534D01*
X69898208Y-91312904D01*
X69849104Y-91303137D01*
X69809562Y-91295271D01*
X69800000Y-91293369D01*
X69790438Y-91295271D01*
X69750896Y-91303137D01*
X69701792Y-91312904D01*
X69618534Y-91368534D01*
X69562904Y-91451792D01*
X69543369Y-91550000D01*
X68506631Y-91550000D01*
X68487096Y-91451792D01*
X68431466Y-91368534D01*
X68348208Y-91312904D01*
X68299104Y-91303137D01*
X68259562Y-91295271D01*
X68250000Y-91293369D01*
X68240438Y-91295271D01*
X68200896Y-91303137D01*
X68151792Y-91312904D01*
X68068534Y-91368534D01*
X68012904Y-91451792D01*
X67993369Y-91550000D01*
X67006631Y-91550000D01*
X66987096Y-91451792D01*
X66931466Y-91368534D01*
X66848208Y-91312904D01*
X66799104Y-91303137D01*
X66759562Y-91295271D01*
X66750000Y-91293369D01*
X66740438Y-91295271D01*
X66700896Y-91303137D01*
X66651792Y-91312904D01*
X66568534Y-91368534D01*
X66512904Y-91451792D01*
X66493369Y-91550000D01*
X65556631Y-91550000D01*
X65537096Y-91451792D01*
X65481466Y-91368534D01*
X65398208Y-91312904D01*
X65349104Y-91303137D01*
X65309562Y-91295271D01*
X65300000Y-91293369D01*
X65290438Y-91295271D01*
X65250896Y-91303137D01*
X65201792Y-91312904D01*
X65118534Y-91368534D01*
X65062904Y-91451792D01*
X65043369Y-91550000D01*
X56556631Y-91550000D01*
X56537096Y-91451792D01*
X56481466Y-91368534D01*
X56398208Y-91312904D01*
X56349104Y-91303137D01*
X56309562Y-91295271D01*
X56300000Y-91293369D01*
X56290438Y-91295271D01*
X56250896Y-91303137D01*
X56201792Y-91312904D01*
X56118534Y-91368534D01*
X56062904Y-91451792D01*
X56043369Y-91550000D01*
X55006532Y-91550000D01*
X54987096Y-91452290D01*
X54931466Y-91369032D01*
X54848208Y-91313402D01*
X54750000Y-91293867D01*
X54651792Y-91313402D01*
X54568534Y-91369032D01*
X54512904Y-91452290D01*
X54493369Y-91550498D01*
X53506631Y-91550498D01*
X53487096Y-91452290D01*
X53431466Y-91369032D01*
X53348208Y-91313402D01*
X53250000Y-91293867D01*
X53151792Y-91313402D01*
X53068534Y-91369032D01*
X53012904Y-91452290D01*
X52993369Y-91550498D01*
X52006631Y-91550498D01*
X51987096Y-91452290D01*
X51931466Y-91369032D01*
X51848208Y-91313402D01*
X51750000Y-91293867D01*
X51651792Y-91313402D01*
X51568534Y-91369032D01*
X51512904Y-91452290D01*
X51493369Y-91550498D01*
X50506631Y-91550498D01*
X50487096Y-91452290D01*
X50431466Y-91369032D01*
X50348208Y-91313402D01*
X50250000Y-91293867D01*
X50151792Y-91313402D01*
X50068534Y-91369032D01*
X50012904Y-91452290D01*
X49993369Y-91550498D01*
X41475000Y-91550498D01*
X41475000Y-90550000D01*
X87093369Y-90550000D01*
X87112904Y-90648208D01*
X87168534Y-90731466D01*
X87251792Y-90787096D01*
X87350000Y-90806631D01*
X87448208Y-90787096D01*
X87531466Y-90731466D01*
X87587096Y-90648208D01*
X87606631Y-90550000D01*
X87587096Y-90451792D01*
X87531466Y-90368534D01*
X87448208Y-90312904D01*
X87350000Y-90293369D01*
X87251792Y-90312904D01*
X87168534Y-90368534D01*
X87112904Y-90451792D01*
X87093369Y-90550000D01*
X41475000Y-90550000D01*
X41475000Y-89955877D01*
X41475035Y-89915700D01*
X41475045Y-89904551D01*
X41470058Y-89894164D01*
X41469815Y-89893659D01*
X41462537Y-89872817D01*
X41462330Y-89871907D01*
X41462328Y-89871904D01*
X41459850Y-89861038D01*
X41452480Y-89851789D01*
X41440666Y-89832954D01*
X41440375Y-89832347D01*
X41440372Y-89832343D01*
X41435547Y-89822295D01*
X41426107Y-89814746D01*
X41410516Y-89799128D01*
X41402985Y-89789677D01*
X41392337Y-89784541D01*
X41373522Y-89772692D01*
X41372995Y-89772270D01*
X41372990Y-89772268D01*
X41364285Y-89765306D01*
X41352508Y-89762598D01*
X41331682Y-89755285D01*
X41330836Y-89754877D01*
X41320798Y-89750035D01*
X41309653Y-89750025D01*
X41309652Y-89750025D01*
X41297787Y-89750015D01*
X41297789Y-89748270D01*
X41297723Y-89748276D01*
X41297723Y-89750000D01*
X41280877Y-89750000D01*
X41229840Y-89749955D01*
X41229551Y-89749955D01*
X41229463Y-89749997D01*
X41229439Y-89750000D01*
X39924000Y-89750000D01*
X39865809Y-89731093D01*
X39829845Y-89681593D01*
X39825000Y-89651000D01*
X39825000Y-89293823D01*
X87844391Y-89293823D01*
X87845306Y-89300820D01*
X87845306Y-89300821D01*
X87846814Y-89312354D01*
X87862980Y-89435979D01*
X87865821Y-89442435D01*
X87865821Y-89442436D01*
X87873586Y-89460082D01*
X87920720Y-89567203D01*
X87933792Y-89582754D01*
X88008431Y-89671549D01*
X88008434Y-89671551D01*
X88012970Y-89676948D01*
X88018841Y-89680856D01*
X88018842Y-89680857D01*
X88031143Y-89689045D01*
X88132313Y-89756390D01*
X88222421Y-89784541D01*
X88262425Y-89797039D01*
X88262426Y-89797039D01*
X88269157Y-89799142D01*
X88340828Y-89800456D01*
X88405445Y-89801641D01*
X88405447Y-89801641D01*
X88412499Y-89801770D01*
X88419302Y-89799915D01*
X88419304Y-89799915D01*
X88520703Y-89772270D01*
X88550817Y-89764060D01*
X88672991Y-89689045D01*
X88680403Y-89680857D01*
X88764468Y-89587982D01*
X88769200Y-89582754D01*
X88831710Y-89453733D01*
X88835875Y-89428982D01*
X88854862Y-89316124D01*
X88854862Y-89316120D01*
X88855496Y-89312354D01*
X88855647Y-89300000D01*
X88835323Y-89158082D01*
X88775984Y-89027572D01*
X88682400Y-88918963D01*
X88562095Y-88840985D01*
X88424739Y-88799907D01*
X88341497Y-88799398D01*
X88288427Y-88799074D01*
X88288426Y-88799074D01*
X88281376Y-88799031D01*
X88274599Y-88800968D01*
X88274598Y-88800968D01*
X88150309Y-88836490D01*
X88150307Y-88836491D01*
X88143529Y-88838428D01*
X88022280Y-88914930D01*
X88017613Y-88920214D01*
X88017611Y-88920216D01*
X87932044Y-89017103D01*
X87932042Y-89017105D01*
X87927377Y-89022388D01*
X87866447Y-89152163D01*
X87844391Y-89293823D01*
X39825000Y-89293823D01*
X39825000Y-88043896D01*
X44244464Y-88043896D01*
X44245379Y-88050893D01*
X44245379Y-88050894D01*
X44254224Y-88118534D01*
X44263053Y-88186052D01*
X44265894Y-88192508D01*
X44265894Y-88192509D01*
X44317399Y-88309562D01*
X44320793Y-88317276D01*
X44333865Y-88332827D01*
X44408504Y-88421622D01*
X44408507Y-88421624D01*
X44413043Y-88427021D01*
X44418914Y-88430929D01*
X44418915Y-88430930D01*
X44431216Y-88439118D01*
X44532386Y-88506463D01*
X44624229Y-88535156D01*
X44662498Y-88547112D01*
X44662499Y-88547112D01*
X44669230Y-88549215D01*
X44740901Y-88550529D01*
X44805518Y-88551714D01*
X44805520Y-88551714D01*
X44812572Y-88551843D01*
X44819375Y-88549988D01*
X44819377Y-88549988D01*
X44910047Y-88525268D01*
X44950890Y-88514133D01*
X45073064Y-88439118D01*
X45080476Y-88430930D01*
X45164541Y-88338055D01*
X45169273Y-88332827D01*
X45212395Y-88243823D01*
X52944391Y-88243823D01*
X52945306Y-88250820D01*
X52945306Y-88250821D01*
X52946814Y-88262354D01*
X52962980Y-88385979D01*
X52965821Y-88392435D01*
X52965821Y-88392436D01*
X53014275Y-88502555D01*
X53020720Y-88517203D01*
X53049795Y-88551792D01*
X53108431Y-88621549D01*
X53108434Y-88621551D01*
X53112970Y-88626948D01*
X53118841Y-88630856D01*
X53118842Y-88630857D01*
X53136689Y-88642737D01*
X53232313Y-88706390D01*
X53332920Y-88737821D01*
X53362425Y-88747039D01*
X53362426Y-88747039D01*
X53369157Y-88749142D01*
X53440828Y-88750456D01*
X53505445Y-88751641D01*
X53505447Y-88751641D01*
X53512499Y-88751770D01*
X53519302Y-88749915D01*
X53519304Y-88749915D01*
X53594503Y-88729413D01*
X53650817Y-88714060D01*
X53772991Y-88639045D01*
X53780403Y-88630857D01*
X53864468Y-88537982D01*
X53869200Y-88532754D01*
X53931710Y-88403733D01*
X53934249Y-88388646D01*
X53949163Y-88300000D01*
X65593369Y-88300000D01*
X65612904Y-88398208D01*
X65668534Y-88481466D01*
X65751792Y-88537096D01*
X65850000Y-88556631D01*
X65948208Y-88537096D01*
X65956314Y-88531680D01*
X65960208Y-88530067D01*
X66021204Y-88525268D01*
X66073373Y-88557238D01*
X66096787Y-88613766D01*
X66095271Y-88639458D01*
X66095271Y-88640438D01*
X66093369Y-88650000D01*
X66112904Y-88748208D01*
X66168534Y-88831466D01*
X66251792Y-88887096D01*
X66350000Y-88906631D01*
X66448208Y-88887096D01*
X66531466Y-88831466D01*
X66587096Y-88748208D01*
X66606631Y-88650000D01*
X66604729Y-88640438D01*
X66604729Y-88630686D01*
X66606013Y-88630686D01*
X66612001Y-88580086D01*
X66653533Y-88535156D01*
X66713543Y-88523218D01*
X66739792Y-88530067D01*
X66743686Y-88531680D01*
X66751792Y-88537096D01*
X66850000Y-88556631D01*
X66948208Y-88537096D01*
X66956314Y-88531680D01*
X66960208Y-88530067D01*
X67021204Y-88525268D01*
X67073373Y-88557238D01*
X67096787Y-88613766D01*
X67095271Y-88639458D01*
X67095271Y-88640438D01*
X67093369Y-88650000D01*
X67112904Y-88748208D01*
X67168534Y-88831466D01*
X67251792Y-88887096D01*
X67350000Y-88906631D01*
X67448208Y-88887096D01*
X67531466Y-88831466D01*
X67587096Y-88748208D01*
X67606631Y-88650000D01*
X67604729Y-88640438D01*
X67604729Y-88630686D01*
X67606013Y-88630686D01*
X67612001Y-88580086D01*
X67653533Y-88535156D01*
X67713543Y-88523218D01*
X67739792Y-88530067D01*
X67743686Y-88531680D01*
X67751792Y-88537096D01*
X67850000Y-88556631D01*
X67948208Y-88537096D01*
X68031466Y-88481466D01*
X68087096Y-88398208D01*
X68106631Y-88300000D01*
X69093369Y-88300000D01*
X69112904Y-88398208D01*
X69168534Y-88481466D01*
X69251792Y-88537096D01*
X69350000Y-88556631D01*
X69448208Y-88537096D01*
X69531466Y-88481466D01*
X69587096Y-88398208D01*
X69606631Y-88300000D01*
X74093369Y-88300000D01*
X74112904Y-88398208D01*
X74168534Y-88481466D01*
X74251792Y-88537096D01*
X74350000Y-88556631D01*
X74448208Y-88537096D01*
X74456314Y-88531680D01*
X74460208Y-88530067D01*
X74521204Y-88525268D01*
X74573373Y-88557238D01*
X74596787Y-88613766D01*
X74595271Y-88639458D01*
X74595271Y-88640438D01*
X74593369Y-88650000D01*
X74612904Y-88748208D01*
X74668534Y-88831466D01*
X74751792Y-88887096D01*
X74850000Y-88906631D01*
X74948208Y-88887096D01*
X75031466Y-88831466D01*
X75087096Y-88748208D01*
X75106631Y-88650000D01*
X75104729Y-88640438D01*
X75104729Y-88630686D01*
X75106013Y-88630686D01*
X75112001Y-88580086D01*
X75153533Y-88535156D01*
X75213543Y-88523218D01*
X75239792Y-88530067D01*
X75243686Y-88531680D01*
X75251792Y-88537096D01*
X75350000Y-88556631D01*
X75448208Y-88537096D01*
X75456314Y-88531680D01*
X75460208Y-88530067D01*
X75521204Y-88525268D01*
X75573373Y-88557238D01*
X75596787Y-88613766D01*
X75595271Y-88639458D01*
X75595271Y-88640438D01*
X75593369Y-88650000D01*
X75612904Y-88748208D01*
X75668534Y-88831466D01*
X75751792Y-88887096D01*
X75850000Y-88906631D01*
X75948208Y-88887096D01*
X76031466Y-88831466D01*
X76087096Y-88748208D01*
X76106631Y-88650000D01*
X76104729Y-88640438D01*
X76104729Y-88630686D01*
X76106013Y-88630686D01*
X76112001Y-88580086D01*
X76153533Y-88535156D01*
X76213543Y-88523218D01*
X76239792Y-88530067D01*
X76243686Y-88531680D01*
X76251792Y-88537096D01*
X76350000Y-88556631D01*
X76448208Y-88537096D01*
X76456314Y-88531680D01*
X76460208Y-88530067D01*
X76521204Y-88525268D01*
X76573373Y-88557238D01*
X76596787Y-88613766D01*
X76595271Y-88639458D01*
X76595271Y-88640438D01*
X76593369Y-88650000D01*
X76612904Y-88748208D01*
X76668534Y-88831466D01*
X76751792Y-88887096D01*
X76850000Y-88906631D01*
X76948208Y-88887096D01*
X77031466Y-88831466D01*
X77087096Y-88748208D01*
X77106631Y-88650000D01*
X84093369Y-88650000D01*
X84112904Y-88748208D01*
X84168534Y-88831466D01*
X84251792Y-88887096D01*
X84350000Y-88906631D01*
X84448208Y-88887096D01*
X84531466Y-88831466D01*
X84587096Y-88748208D01*
X84606631Y-88650000D01*
X84587096Y-88551792D01*
X84531466Y-88468534D01*
X84448208Y-88412904D01*
X84350000Y-88393369D01*
X84251792Y-88412904D01*
X84168534Y-88468534D01*
X84112904Y-88551792D01*
X84093369Y-88650000D01*
X77106631Y-88650000D01*
X77104729Y-88640438D01*
X77104729Y-88630686D01*
X77106013Y-88630686D01*
X77112001Y-88580086D01*
X77153533Y-88535156D01*
X77213543Y-88523218D01*
X77239792Y-88530067D01*
X77243686Y-88531680D01*
X77251792Y-88537096D01*
X77350000Y-88556631D01*
X77448208Y-88537096D01*
X77531466Y-88481466D01*
X77587096Y-88398208D01*
X77606631Y-88300000D01*
X77587096Y-88201792D01*
X77531466Y-88118534D01*
X77448208Y-88062904D01*
X77383703Y-88050073D01*
X77359562Y-88045271D01*
X77350000Y-88043369D01*
X77340438Y-88045271D01*
X77316297Y-88050073D01*
X77251792Y-88062904D01*
X77168534Y-88118534D01*
X77112904Y-88201792D01*
X77093369Y-88300000D01*
X77095271Y-88309562D01*
X77095271Y-88319314D01*
X77093987Y-88319314D01*
X77087999Y-88369914D01*
X77046467Y-88414844D01*
X76986457Y-88426782D01*
X76960208Y-88419933D01*
X76956314Y-88418320D01*
X76948208Y-88412904D01*
X76850000Y-88393369D01*
X76751792Y-88412904D01*
X76743686Y-88418320D01*
X76739792Y-88419933D01*
X76678796Y-88424732D01*
X76626627Y-88392762D01*
X76603213Y-88336234D01*
X76604729Y-88310542D01*
X76604729Y-88309562D01*
X76606631Y-88300000D01*
X76587096Y-88201792D01*
X76531466Y-88118534D01*
X76448208Y-88062904D01*
X76383703Y-88050073D01*
X76359562Y-88045271D01*
X76350000Y-88043369D01*
X76340438Y-88045271D01*
X76316297Y-88050073D01*
X76251792Y-88062904D01*
X76168534Y-88118534D01*
X76112904Y-88201792D01*
X76093369Y-88300000D01*
X76095271Y-88309562D01*
X76095271Y-88319314D01*
X76093987Y-88319314D01*
X76087999Y-88369914D01*
X76046467Y-88414844D01*
X75986457Y-88426782D01*
X75960208Y-88419933D01*
X75956314Y-88418320D01*
X75948208Y-88412904D01*
X75850000Y-88393369D01*
X75751792Y-88412904D01*
X75743686Y-88418320D01*
X75739792Y-88419933D01*
X75678796Y-88424732D01*
X75626627Y-88392762D01*
X75603213Y-88336234D01*
X75604729Y-88310542D01*
X75604729Y-88309562D01*
X75606631Y-88300000D01*
X75587096Y-88201792D01*
X75531466Y-88118534D01*
X75448208Y-88062904D01*
X75383703Y-88050073D01*
X75359562Y-88045271D01*
X75350000Y-88043369D01*
X75340438Y-88045271D01*
X75316297Y-88050073D01*
X75251792Y-88062904D01*
X75168534Y-88118534D01*
X75112904Y-88201792D01*
X75093369Y-88300000D01*
X75095271Y-88309562D01*
X75095271Y-88319314D01*
X75093987Y-88319314D01*
X75087999Y-88369914D01*
X75046467Y-88414844D01*
X74986457Y-88426782D01*
X74960208Y-88419933D01*
X74956314Y-88418320D01*
X74948208Y-88412904D01*
X74850000Y-88393369D01*
X74751792Y-88412904D01*
X74743686Y-88418320D01*
X74739792Y-88419933D01*
X74678796Y-88424732D01*
X74626627Y-88392762D01*
X74603213Y-88336234D01*
X74604729Y-88310542D01*
X74604729Y-88309562D01*
X74606631Y-88300000D01*
X74587096Y-88201792D01*
X74531466Y-88118534D01*
X74448208Y-88062904D01*
X74383703Y-88050073D01*
X74359562Y-88045271D01*
X74350000Y-88043369D01*
X74340438Y-88045271D01*
X74316297Y-88050073D01*
X74251792Y-88062904D01*
X74168534Y-88118534D01*
X74112904Y-88201792D01*
X74093369Y-88300000D01*
X69606631Y-88300000D01*
X69587096Y-88201792D01*
X69531466Y-88118534D01*
X69448208Y-88062904D01*
X69383703Y-88050073D01*
X69359562Y-88045271D01*
X69350000Y-88043369D01*
X69340438Y-88045271D01*
X69316297Y-88050073D01*
X69251792Y-88062904D01*
X69168534Y-88118534D01*
X69112904Y-88201792D01*
X69093369Y-88300000D01*
X68106631Y-88300000D01*
X68087096Y-88201792D01*
X68031466Y-88118534D01*
X67948208Y-88062904D01*
X67883703Y-88050073D01*
X67859562Y-88045271D01*
X67850000Y-88043369D01*
X67840438Y-88045271D01*
X67816297Y-88050073D01*
X67751792Y-88062904D01*
X67668534Y-88118534D01*
X67612904Y-88201792D01*
X67593369Y-88300000D01*
X67595271Y-88309562D01*
X67595271Y-88319314D01*
X67593987Y-88319314D01*
X67587999Y-88369914D01*
X67546467Y-88414844D01*
X67486457Y-88426782D01*
X67460208Y-88419933D01*
X67456314Y-88418320D01*
X67448208Y-88412904D01*
X67350000Y-88393369D01*
X67251792Y-88412904D01*
X67243686Y-88418320D01*
X67239792Y-88419933D01*
X67178796Y-88424732D01*
X67126627Y-88392762D01*
X67103213Y-88336234D01*
X67104729Y-88310542D01*
X67104729Y-88309562D01*
X67106631Y-88300000D01*
X67087096Y-88201792D01*
X67031466Y-88118534D01*
X66948208Y-88062904D01*
X66883703Y-88050073D01*
X66859562Y-88045271D01*
X66850000Y-88043369D01*
X66840438Y-88045271D01*
X66816297Y-88050073D01*
X66751792Y-88062904D01*
X66668534Y-88118534D01*
X66612904Y-88201792D01*
X66593369Y-88300000D01*
X66595271Y-88309562D01*
X66595271Y-88319314D01*
X66593987Y-88319314D01*
X66587999Y-88369914D01*
X66546467Y-88414844D01*
X66486457Y-88426782D01*
X66460208Y-88419933D01*
X66456314Y-88418320D01*
X66448208Y-88412904D01*
X66350000Y-88393369D01*
X66251792Y-88412904D01*
X66243686Y-88418320D01*
X66239792Y-88419933D01*
X66178796Y-88424732D01*
X66126627Y-88392762D01*
X66103213Y-88336234D01*
X66104729Y-88310542D01*
X66104729Y-88309562D01*
X66106631Y-88300000D01*
X66087096Y-88201792D01*
X66031466Y-88118534D01*
X65948208Y-88062904D01*
X65883703Y-88050073D01*
X65859562Y-88045271D01*
X65850000Y-88043369D01*
X65840438Y-88045271D01*
X65816297Y-88050073D01*
X65751792Y-88062904D01*
X65668534Y-88118534D01*
X65612904Y-88201792D01*
X65593369Y-88300000D01*
X53949163Y-88300000D01*
X53954862Y-88266124D01*
X53954862Y-88266120D01*
X53955496Y-88262354D01*
X53955647Y-88250000D01*
X53935323Y-88108082D01*
X53875984Y-87977572D01*
X53782400Y-87868963D01*
X53662095Y-87790985D01*
X53524739Y-87749907D01*
X53441497Y-87749398D01*
X53388427Y-87749074D01*
X53388426Y-87749074D01*
X53381376Y-87749031D01*
X53374599Y-87750968D01*
X53374598Y-87750968D01*
X53250309Y-87786490D01*
X53250307Y-87786491D01*
X53243529Y-87788428D01*
X53122280Y-87864930D01*
X53117613Y-87870214D01*
X53117611Y-87870216D01*
X53032044Y-87967103D01*
X53032042Y-87967105D01*
X53027377Y-87972388D01*
X52966447Y-88102163D01*
X52965362Y-88109132D01*
X52965361Y-88109135D01*
X52954475Y-88179055D01*
X52944391Y-88243823D01*
X45212395Y-88243823D01*
X45231783Y-88203806D01*
X45235948Y-88179055D01*
X45254935Y-88066197D01*
X45254935Y-88066193D01*
X45255569Y-88062427D01*
X45255720Y-88050073D01*
X45235396Y-87908155D01*
X45182122Y-87790985D01*
X45178978Y-87784069D01*
X45178977Y-87784068D01*
X45176057Y-87777645D01*
X45082473Y-87669036D01*
X44962168Y-87591058D01*
X44824812Y-87549980D01*
X44741570Y-87549471D01*
X44688500Y-87549147D01*
X44688499Y-87549147D01*
X44681449Y-87549104D01*
X44674672Y-87551041D01*
X44674671Y-87551041D01*
X44550382Y-87586563D01*
X44550380Y-87586564D01*
X44543602Y-87588501D01*
X44422353Y-87665003D01*
X44417686Y-87670287D01*
X44417684Y-87670289D01*
X44332117Y-87767176D01*
X44332115Y-87767178D01*
X44327450Y-87772461D01*
X44266520Y-87902236D01*
X44265435Y-87909205D01*
X44265434Y-87909208D01*
X44254790Y-87977572D01*
X44244464Y-88043896D01*
X39825000Y-88043896D01*
X39825000Y-86850000D01*
X63143369Y-86850000D01*
X63162904Y-86948208D01*
X63218534Y-87031466D01*
X63301792Y-87087096D01*
X63400000Y-87106631D01*
X63498208Y-87087096D01*
X63581466Y-87031466D01*
X63637096Y-86948208D01*
X63656631Y-86850000D01*
X63637096Y-86751792D01*
X63621098Y-86727849D01*
X63604489Y-86668961D01*
X63625666Y-86611557D01*
X63676540Y-86577564D01*
X63741297Y-86581382D01*
X63743197Y-86582169D01*
X63751303Y-86587585D01*
X63849511Y-86607120D01*
X63947719Y-86587585D01*
X64030977Y-86531955D01*
X64086607Y-86448697D01*
X64106142Y-86350489D01*
X71092880Y-86350489D01*
X71112415Y-86448697D01*
X71168045Y-86531955D01*
X71251303Y-86587585D01*
X71349511Y-86607120D01*
X71447719Y-86587585D01*
X71530977Y-86531955D01*
X71586607Y-86448697D01*
X71606142Y-86350489D01*
X78593369Y-86350489D01*
X78612904Y-86448697D01*
X78668534Y-86531955D01*
X78751792Y-86587585D01*
X78850000Y-86607120D01*
X78948208Y-86587585D01*
X79031466Y-86531955D01*
X79087096Y-86448697D01*
X79106631Y-86350489D01*
X79103024Y-86332353D01*
X79088998Y-86261843D01*
X79087096Y-86252281D01*
X79031466Y-86169023D01*
X78948208Y-86113393D01*
X78850000Y-86093858D01*
X78751792Y-86113393D01*
X78668534Y-86169023D01*
X78612904Y-86252281D01*
X78611002Y-86261843D01*
X78596977Y-86332353D01*
X78593369Y-86350489D01*
X71606142Y-86350489D01*
X71602535Y-86332353D01*
X71588509Y-86261843D01*
X71586607Y-86252281D01*
X71530977Y-86169023D01*
X71447719Y-86113393D01*
X71349511Y-86093858D01*
X71251303Y-86113393D01*
X71168045Y-86169023D01*
X71112415Y-86252281D01*
X71110513Y-86261843D01*
X71096488Y-86332353D01*
X71092880Y-86350489D01*
X64106142Y-86350489D01*
X64102535Y-86332353D01*
X64088509Y-86261843D01*
X64086607Y-86252281D01*
X64030977Y-86169023D01*
X63947719Y-86113393D01*
X63849511Y-86093858D01*
X63751303Y-86113393D01*
X63668045Y-86169023D01*
X63612415Y-86252281D01*
X63610513Y-86261843D01*
X63596488Y-86332353D01*
X63592880Y-86350489D01*
X63612415Y-86448697D01*
X63617831Y-86456803D01*
X63617832Y-86456805D01*
X63628413Y-86472640D01*
X63645022Y-86531528D01*
X63623845Y-86588932D01*
X63572971Y-86622925D01*
X63508214Y-86619107D01*
X63506314Y-86618320D01*
X63498208Y-86612904D01*
X63400000Y-86593369D01*
X63301792Y-86612904D01*
X63218534Y-86668534D01*
X63162904Y-86751792D01*
X63143369Y-86850000D01*
X39825000Y-86850000D01*
X39825000Y-86000000D01*
X46393369Y-86000000D01*
X46412904Y-86098208D01*
X46468534Y-86181466D01*
X46551792Y-86237096D01*
X46650000Y-86256631D01*
X46748208Y-86237096D01*
X46831466Y-86181466D01*
X46887096Y-86098208D01*
X46888061Y-86093355D01*
X47542869Y-86093355D01*
X47544771Y-86102917D01*
X47546855Y-86113393D01*
X47562404Y-86191563D01*
X47618034Y-86274821D01*
X47701292Y-86330451D01*
X47799500Y-86349986D01*
X47897708Y-86330451D01*
X47980966Y-86274821D01*
X48036596Y-86191563D01*
X48052145Y-86113393D01*
X48054229Y-86102917D01*
X48054809Y-86100000D01*
X48393369Y-86100000D01*
X48412904Y-86198208D01*
X48468534Y-86281466D01*
X48551792Y-86337096D01*
X48650000Y-86356631D01*
X48748208Y-86337096D01*
X48831466Y-86281466D01*
X48887096Y-86198208D01*
X48906631Y-86100000D01*
X48887096Y-86001792D01*
X48831466Y-85918534D01*
X48748208Y-85862904D01*
X48650000Y-85843369D01*
X48551792Y-85862904D01*
X48468534Y-85918534D01*
X48412904Y-86001792D01*
X48393369Y-86100000D01*
X48054809Y-86100000D01*
X48056131Y-86093355D01*
X48036596Y-85995147D01*
X47980966Y-85911889D01*
X47897708Y-85856259D01*
X47799500Y-85836724D01*
X47701292Y-85856259D01*
X47618034Y-85911889D01*
X47562404Y-85995147D01*
X47542869Y-86093355D01*
X46888061Y-86093355D01*
X46906631Y-86000000D01*
X46887096Y-85901792D01*
X46831466Y-85818534D01*
X46748208Y-85762904D01*
X46650000Y-85743369D01*
X46551792Y-85762904D01*
X46468534Y-85818534D01*
X46412904Y-85901792D01*
X46393369Y-86000000D01*
X39825000Y-86000000D01*
X39825000Y-85550000D01*
X49093369Y-85550000D01*
X49112904Y-85648208D01*
X49168534Y-85731466D01*
X49251792Y-85787096D01*
X49350000Y-85806631D01*
X49448208Y-85787096D01*
X49531466Y-85731466D01*
X49587096Y-85648208D01*
X49606631Y-85550000D01*
X55793369Y-85550000D01*
X55812904Y-85648208D01*
X55868534Y-85731466D01*
X55951792Y-85787096D01*
X56050000Y-85806631D01*
X56148208Y-85787096D01*
X56231466Y-85731466D01*
X56287096Y-85648208D01*
X56306631Y-85550000D01*
X57643369Y-85550000D01*
X57662904Y-85648208D01*
X57718534Y-85731466D01*
X57801792Y-85787096D01*
X57900000Y-85806631D01*
X57998208Y-85787096D01*
X58081466Y-85731466D01*
X58137096Y-85648208D01*
X58156631Y-85550000D01*
X58137096Y-85451792D01*
X58081466Y-85368534D01*
X57998208Y-85312904D01*
X57900000Y-85293369D01*
X57801792Y-85312904D01*
X57718534Y-85368534D01*
X57662904Y-85451792D01*
X57643369Y-85550000D01*
X56306631Y-85550000D01*
X56287096Y-85451792D01*
X56231466Y-85368534D01*
X56148208Y-85312904D01*
X56050000Y-85293369D01*
X55951792Y-85312904D01*
X55868534Y-85368534D01*
X55812904Y-85451792D01*
X55793369Y-85550000D01*
X49606631Y-85550000D01*
X49587096Y-85451792D01*
X49531466Y-85368534D01*
X49448208Y-85312904D01*
X49350000Y-85293369D01*
X49251792Y-85312904D01*
X49168534Y-85368534D01*
X49112904Y-85451792D01*
X49093369Y-85550000D01*
X39825000Y-85550000D01*
X39825000Y-85250000D01*
X62443369Y-85250000D01*
X62462904Y-85348208D01*
X62518534Y-85431466D01*
X62601792Y-85487096D01*
X62700000Y-85506631D01*
X62798208Y-85487096D01*
X62881466Y-85431466D01*
X62937096Y-85348208D01*
X62956631Y-85250000D01*
X62937096Y-85151792D01*
X62881466Y-85068534D01*
X62798208Y-85012904D01*
X62700000Y-84993369D01*
X62601792Y-85012904D01*
X62518534Y-85068534D01*
X62462904Y-85151792D01*
X62443369Y-85250000D01*
X39825000Y-85250000D01*
X39825000Y-84300000D01*
X57643369Y-84300000D01*
X57662904Y-84398208D01*
X57718534Y-84481466D01*
X57801792Y-84537096D01*
X57900000Y-84556631D01*
X57998208Y-84537096D01*
X58081466Y-84481466D01*
X58135899Y-84400000D01*
X69743369Y-84400000D01*
X69762904Y-84498208D01*
X69818534Y-84581466D01*
X69901792Y-84637096D01*
X70000000Y-84656631D01*
X70098208Y-84637096D01*
X70181466Y-84581466D01*
X70237096Y-84498208D01*
X70256631Y-84400000D01*
X77243369Y-84400000D01*
X77262904Y-84498208D01*
X77318534Y-84581466D01*
X77401792Y-84637096D01*
X77500000Y-84656631D01*
X77598208Y-84637096D01*
X77681466Y-84581466D01*
X77737096Y-84498208D01*
X77756631Y-84400000D01*
X84743369Y-84400000D01*
X84762904Y-84498208D01*
X84818534Y-84581466D01*
X84901792Y-84637096D01*
X85000000Y-84656631D01*
X85098208Y-84637096D01*
X85181466Y-84581466D01*
X85237096Y-84498208D01*
X85256631Y-84400000D01*
X85237096Y-84301792D01*
X85181466Y-84218534D01*
X85098208Y-84162904D01*
X85000000Y-84143369D01*
X84901792Y-84162904D01*
X84818534Y-84218534D01*
X84762904Y-84301792D01*
X84743369Y-84400000D01*
X77756631Y-84400000D01*
X77737096Y-84301792D01*
X77681466Y-84218534D01*
X77598208Y-84162904D01*
X77500000Y-84143369D01*
X77401792Y-84162904D01*
X77318534Y-84218534D01*
X77262904Y-84301792D01*
X77243369Y-84400000D01*
X70256631Y-84400000D01*
X70237096Y-84301792D01*
X70181466Y-84218534D01*
X70098208Y-84162904D01*
X70000000Y-84143369D01*
X69901792Y-84162904D01*
X69818534Y-84218534D01*
X69762904Y-84301792D01*
X69743369Y-84400000D01*
X58135899Y-84400000D01*
X58137096Y-84398208D01*
X58156631Y-84300000D01*
X58137096Y-84201792D01*
X58081466Y-84118534D01*
X57998208Y-84062904D01*
X57900000Y-84043369D01*
X57801792Y-84062904D01*
X57718534Y-84118534D01*
X57662904Y-84201792D01*
X57643369Y-84300000D01*
X39825000Y-84300000D01*
X39825000Y-83700000D01*
X60093369Y-83700000D01*
X60112904Y-83798208D01*
X60168534Y-83881466D01*
X60251792Y-83937096D01*
X60350000Y-83956631D01*
X60448208Y-83937096D01*
X60531466Y-83881466D01*
X60533462Y-83878479D01*
X60584513Y-83852468D01*
X60644945Y-83862039D01*
X60665562Y-83877018D01*
X60668534Y-83881466D01*
X60751792Y-83937096D01*
X60850000Y-83956631D01*
X60948208Y-83937096D01*
X61031466Y-83881466D01*
X61033462Y-83878479D01*
X61084513Y-83852468D01*
X61144945Y-83862039D01*
X61165562Y-83877018D01*
X61168534Y-83881466D01*
X61251792Y-83937096D01*
X61350000Y-83956631D01*
X61448208Y-83937096D01*
X61531466Y-83881466D01*
X61533462Y-83878479D01*
X61584513Y-83852468D01*
X61644945Y-83862039D01*
X61665562Y-83877018D01*
X61668534Y-83881466D01*
X61751792Y-83937096D01*
X61850000Y-83956631D01*
X61948208Y-83937096D01*
X62031466Y-83881466D01*
X62087096Y-83798208D01*
X62106631Y-83700000D01*
X62087096Y-83601792D01*
X62031466Y-83518534D01*
X61948208Y-83462904D01*
X61850000Y-83443369D01*
X61751792Y-83462904D01*
X61668534Y-83518534D01*
X61666538Y-83521521D01*
X61615487Y-83547532D01*
X61555055Y-83537961D01*
X61534438Y-83522982D01*
X61531466Y-83518534D01*
X61448208Y-83462904D01*
X61350000Y-83443369D01*
X61251792Y-83462904D01*
X61168534Y-83518534D01*
X61166538Y-83521521D01*
X61115487Y-83547532D01*
X61055055Y-83537961D01*
X61034438Y-83522982D01*
X61031466Y-83518534D01*
X60948208Y-83462904D01*
X60850000Y-83443369D01*
X60751792Y-83462904D01*
X60668534Y-83518534D01*
X60666538Y-83521521D01*
X60615487Y-83547532D01*
X60555055Y-83537961D01*
X60534438Y-83522982D01*
X60531466Y-83518534D01*
X60448208Y-83462904D01*
X60350000Y-83443369D01*
X60251792Y-83462904D01*
X60168534Y-83518534D01*
X60112904Y-83601792D01*
X60093369Y-83700000D01*
X39825000Y-83700000D01*
X39825000Y-82931323D01*
X41356891Y-82931323D01*
X41357806Y-82938320D01*
X41357806Y-82938321D01*
X41359314Y-82949854D01*
X41375480Y-83073479D01*
X41378321Y-83079935D01*
X41378321Y-83079936D01*
X41424029Y-83183814D01*
X41433220Y-83204703D01*
X41446292Y-83220254D01*
X41520931Y-83309049D01*
X41520934Y-83309051D01*
X41525470Y-83314448D01*
X41531341Y-83318356D01*
X41531342Y-83318357D01*
X41543643Y-83326545D01*
X41644813Y-83393890D01*
X41745420Y-83425321D01*
X41774925Y-83434539D01*
X41774926Y-83434539D01*
X41781657Y-83436642D01*
X41853328Y-83437956D01*
X41917945Y-83439141D01*
X41917947Y-83439141D01*
X41924999Y-83439270D01*
X41931802Y-83437415D01*
X41931804Y-83437415D01*
X42007003Y-83416913D01*
X42063317Y-83401560D01*
X42185491Y-83326545D01*
X42192903Y-83318357D01*
X42276968Y-83225482D01*
X42281700Y-83220254D01*
X42344210Y-83091233D01*
X42348375Y-83066482D01*
X42367362Y-82953624D01*
X42367362Y-82953620D01*
X42367996Y-82949854D01*
X42368147Y-82937500D01*
X42347823Y-82795582D01*
X42347023Y-82793823D01*
X53494391Y-82793823D01*
X53495306Y-82800820D01*
X53495306Y-82800821D01*
X53496814Y-82812354D01*
X53512980Y-82935979D01*
X53515821Y-82942435D01*
X53515821Y-82942436D01*
X53523586Y-82960082D01*
X53570720Y-83067203D01*
X53596256Y-83097582D01*
X53658431Y-83171549D01*
X53658434Y-83171551D01*
X53662970Y-83176948D01*
X53668841Y-83180856D01*
X53668842Y-83180857D01*
X53681143Y-83189045D01*
X53782313Y-83256390D01*
X53882920Y-83287821D01*
X53912425Y-83297039D01*
X53912426Y-83297039D01*
X53919157Y-83299142D01*
X53990828Y-83300456D01*
X54055445Y-83301641D01*
X54055447Y-83301641D01*
X54062499Y-83301770D01*
X54069302Y-83299915D01*
X54069304Y-83299915D01*
X54144503Y-83279413D01*
X54200817Y-83264060D01*
X54322991Y-83189045D01*
X54330403Y-83180857D01*
X54414468Y-83087982D01*
X54419200Y-83082754D01*
X54481710Y-82953733D01*
X54483006Y-82946033D01*
X54504862Y-82816124D01*
X54504862Y-82816120D01*
X54505496Y-82812354D01*
X54505647Y-82800000D01*
X54485323Y-82658082D01*
X54425984Y-82527572D01*
X54349207Y-82438468D01*
X54337005Y-82424307D01*
X54337004Y-82424306D01*
X54332400Y-82418963D01*
X54212095Y-82340985D01*
X54074739Y-82299907D01*
X53991497Y-82299398D01*
X53938427Y-82299074D01*
X53938426Y-82299074D01*
X53931376Y-82299031D01*
X53924599Y-82300968D01*
X53924598Y-82300968D01*
X53800309Y-82336490D01*
X53800307Y-82336491D01*
X53793529Y-82338428D01*
X53672280Y-82414930D01*
X53667613Y-82420214D01*
X53667611Y-82420216D01*
X53582044Y-82517103D01*
X53582042Y-82517105D01*
X53577377Y-82522388D01*
X53516447Y-82652163D01*
X53515362Y-82659132D01*
X53515361Y-82659135D01*
X53500680Y-82753430D01*
X53494391Y-82793823D01*
X42347023Y-82793823D01*
X42288484Y-82665072D01*
X42194900Y-82556463D01*
X42074595Y-82478485D01*
X41937239Y-82437407D01*
X41853997Y-82436898D01*
X41800927Y-82436574D01*
X41800926Y-82436574D01*
X41793876Y-82436531D01*
X41787099Y-82438468D01*
X41787098Y-82438468D01*
X41662809Y-82473990D01*
X41662807Y-82473991D01*
X41656029Y-82475928D01*
X41534780Y-82552430D01*
X41530113Y-82557714D01*
X41530111Y-82557716D01*
X41444544Y-82654603D01*
X41444542Y-82654605D01*
X41439877Y-82659888D01*
X41378947Y-82789663D01*
X41377862Y-82796632D01*
X41377861Y-82796635D01*
X41376009Y-82808533D01*
X41356891Y-82931323D01*
X39825000Y-82931323D01*
X39825000Y-80349000D01*
X39843907Y-80290809D01*
X39893407Y-80254845D01*
X39924000Y-80250000D01*
X41619123Y-80250000D01*
X41670449Y-80250045D01*
X41680498Y-80245219D01*
X41680500Y-80245219D01*
X41681341Y-80244815D01*
X41702183Y-80237537D01*
X41703093Y-80237330D01*
X41703096Y-80237328D01*
X41713962Y-80234850D01*
X41723210Y-80227480D01*
X41742046Y-80215666D01*
X41742653Y-80215375D01*
X41742657Y-80215372D01*
X41752705Y-80210547D01*
X41760254Y-80201107D01*
X41775872Y-80185516D01*
X41785323Y-80177985D01*
X41790459Y-80167337D01*
X41802308Y-80148522D01*
X41802730Y-80147995D01*
X41802732Y-80147990D01*
X41809694Y-80139285D01*
X41812402Y-80127508D01*
X41819715Y-80106682D01*
X41824965Y-80095798D01*
X41824985Y-80072787D01*
X41826730Y-80072789D01*
X41826724Y-80072723D01*
X41825000Y-80072723D01*
X41825000Y-80055877D01*
X41825045Y-80004840D01*
X41825045Y-80004551D01*
X41825003Y-80004463D01*
X41825000Y-80004439D01*
X41825000Y-79950000D01*
X49093369Y-79950000D01*
X49112904Y-80048208D01*
X49168534Y-80131466D01*
X49251792Y-80187096D01*
X49350000Y-80206631D01*
X49448208Y-80187096D01*
X49531466Y-80131466D01*
X49587096Y-80048208D01*
X49606631Y-79950000D01*
X49587096Y-79851792D01*
X49531466Y-79768534D01*
X49448208Y-79712904D01*
X49350000Y-79693369D01*
X49251792Y-79712904D01*
X49168534Y-79768534D01*
X49112904Y-79851792D01*
X49093369Y-79950000D01*
X41825000Y-79950000D01*
X41825000Y-79499500D01*
X44993869Y-79499500D01*
X44995771Y-79509062D01*
X45000687Y-79533777D01*
X45013404Y-79597708D01*
X45069034Y-79680966D01*
X45152292Y-79736596D01*
X45250500Y-79756131D01*
X45348708Y-79736596D01*
X45431966Y-79680966D01*
X45487596Y-79597708D01*
X45500313Y-79533777D01*
X45505229Y-79509062D01*
X45507131Y-79499500D01*
X45487596Y-79401292D01*
X45433474Y-79320291D01*
X45432866Y-79318134D01*
X45429709Y-79316526D01*
X45423857Y-79312616D01*
X45348708Y-79262404D01*
X45250500Y-79242869D01*
X45152292Y-79262404D01*
X45069034Y-79318034D01*
X45013404Y-79401292D01*
X44993869Y-79499500D01*
X41825000Y-79499500D01*
X41825000Y-79000000D01*
X45493369Y-79000000D01*
X45512904Y-79098208D01*
X45565311Y-79176643D01*
X45567026Y-79179209D01*
X45567634Y-79181366D01*
X45570791Y-79182974D01*
X45651792Y-79237096D01*
X45750000Y-79256631D01*
X45848208Y-79237096D01*
X45856314Y-79231680D01*
X45860208Y-79230067D01*
X45921204Y-79225268D01*
X45973373Y-79257238D01*
X45996787Y-79313766D01*
X45995271Y-79339458D01*
X45995271Y-79340436D01*
X45993369Y-79350000D01*
X46012904Y-79448208D01*
X46068534Y-79531466D01*
X46151792Y-79587096D01*
X46250000Y-79606631D01*
X46348208Y-79587096D01*
X46431466Y-79531466D01*
X46487096Y-79448208D01*
X46506631Y-79350000D01*
X46993369Y-79350000D01*
X47012904Y-79448208D01*
X47068534Y-79531466D01*
X47151792Y-79587096D01*
X47250000Y-79606631D01*
X47348208Y-79587096D01*
X47431466Y-79531466D01*
X47487096Y-79448208D01*
X47506631Y-79350000D01*
X47501886Y-79326143D01*
X47500310Y-79318222D01*
X47507500Y-79257460D01*
X47549032Y-79212530D01*
X47609042Y-79200592D01*
X47635291Y-79207441D01*
X47643637Y-79210898D01*
X47651743Y-79216314D01*
X47749951Y-79235849D01*
X47848159Y-79216314D01*
X47856266Y-79210897D01*
X47856269Y-79210896D01*
X47860048Y-79208371D01*
X47918936Y-79191763D01*
X47976340Y-79212942D01*
X48010332Y-79263816D01*
X48012146Y-79310001D01*
X48002117Y-79360420D01*
X48021652Y-79458628D01*
X48077282Y-79541886D01*
X48160540Y-79597516D01*
X48258748Y-79617051D01*
X48356956Y-79597516D01*
X48440214Y-79541886D01*
X48495844Y-79458628D01*
X48515379Y-79360420D01*
X48495844Y-79262212D01*
X48440214Y-79178954D01*
X48356956Y-79123324D01*
X48258748Y-79103789D01*
X48160540Y-79123324D01*
X48152433Y-79128741D01*
X48152430Y-79128742D01*
X48148651Y-79131267D01*
X48089763Y-79147875D01*
X48032359Y-79126696D01*
X47998367Y-79075822D01*
X47996553Y-79029637D01*
X48004680Y-78988780D01*
X48006582Y-78979218D01*
X47987047Y-78881010D01*
X47931417Y-78797752D01*
X47848159Y-78742122D01*
X47749951Y-78722587D01*
X47651743Y-78742122D01*
X47568485Y-78797752D01*
X47512855Y-78881010D01*
X47493320Y-78979218D01*
X47495222Y-78988780D01*
X47495222Y-78988782D01*
X47499641Y-79010996D01*
X47492451Y-79071758D01*
X47450919Y-79116688D01*
X47390909Y-79128626D01*
X47364660Y-79121777D01*
X47356314Y-79118320D01*
X47348208Y-79112904D01*
X47250000Y-79093369D01*
X47151792Y-79112904D01*
X47068534Y-79168534D01*
X47012904Y-79251792D01*
X47011002Y-79261354D01*
X46998115Y-79326143D01*
X46993369Y-79350000D01*
X46506631Y-79350000D01*
X46501886Y-79326143D01*
X46488998Y-79261354D01*
X46487096Y-79251792D01*
X46431466Y-79168534D01*
X46348208Y-79112904D01*
X46250000Y-79093369D01*
X46151792Y-79112904D01*
X46143686Y-79118320D01*
X46139792Y-79119933D01*
X46078796Y-79124732D01*
X46026627Y-79092762D01*
X46003213Y-79036234D01*
X46004729Y-79010542D01*
X46004729Y-79009562D01*
X46006631Y-79000000D01*
X45987096Y-78901792D01*
X45931466Y-78818534D01*
X45848208Y-78762904D01*
X45750000Y-78743369D01*
X45651792Y-78762904D01*
X45568534Y-78818534D01*
X45512904Y-78901792D01*
X45493369Y-79000000D01*
X41825000Y-79000000D01*
X41825000Y-78655877D01*
X41825035Y-78615700D01*
X41825045Y-78604551D01*
X41819815Y-78593659D01*
X41812537Y-78572817D01*
X41812330Y-78571907D01*
X41812328Y-78571904D01*
X41809850Y-78561038D01*
X41802480Y-78551789D01*
X41790666Y-78532954D01*
X41790375Y-78532347D01*
X41790372Y-78532343D01*
X41785547Y-78522295D01*
X41776107Y-78514746D01*
X41760516Y-78499128D01*
X41752985Y-78489677D01*
X41742337Y-78484541D01*
X41723522Y-78472692D01*
X41722995Y-78472270D01*
X41722990Y-78472268D01*
X41714285Y-78465306D01*
X41702508Y-78462598D01*
X41681682Y-78455285D01*
X41680836Y-78454877D01*
X41670798Y-78450035D01*
X41659653Y-78450025D01*
X41659652Y-78450025D01*
X41647787Y-78450015D01*
X41647789Y-78448270D01*
X41647723Y-78448276D01*
X41647723Y-78450000D01*
X41630877Y-78450000D01*
X41579840Y-78449955D01*
X41579551Y-78449955D01*
X41579463Y-78449997D01*
X41579439Y-78450000D01*
X39924000Y-78450000D01*
X39865809Y-78431093D01*
X39838731Y-78393823D01*
X55844391Y-78393823D01*
X55845306Y-78400820D01*
X55845306Y-78400821D01*
X55852375Y-78454877D01*
X55862980Y-78535979D01*
X55865821Y-78542435D01*
X55865821Y-78542436D01*
X55915112Y-78654457D01*
X55920720Y-78667203D01*
X55952864Y-78705443D01*
X56008431Y-78771549D01*
X56008434Y-78771551D01*
X56012970Y-78776948D01*
X56018841Y-78780856D01*
X56018842Y-78780857D01*
X56031143Y-78789045D01*
X56132313Y-78856390D01*
X56211119Y-78881010D01*
X56262425Y-78897039D01*
X56262426Y-78897039D01*
X56269157Y-78899142D01*
X56340828Y-78900456D01*
X56405445Y-78901641D01*
X56405447Y-78901641D01*
X56412499Y-78901770D01*
X56419302Y-78899915D01*
X56419304Y-78899915D01*
X56527162Y-78870509D01*
X56550817Y-78864060D01*
X56672991Y-78789045D01*
X56680403Y-78780857D01*
X56764468Y-78687982D01*
X56769200Y-78682754D01*
X56822464Y-78572817D01*
X56828634Y-78560082D01*
X56831710Y-78553733D01*
X56835875Y-78528982D01*
X56854862Y-78416124D01*
X56854862Y-78416120D01*
X56855496Y-78412354D01*
X56855647Y-78400000D01*
X56835323Y-78258082D01*
X56775984Y-78127572D01*
X56697842Y-78036884D01*
X56687005Y-78024307D01*
X56687004Y-78024306D01*
X56682400Y-78018963D01*
X56576003Y-77950000D01*
X70493369Y-77950000D01*
X70512904Y-78048208D01*
X70568534Y-78131466D01*
X70651792Y-78187096D01*
X70750000Y-78206631D01*
X70848208Y-78187096D01*
X70931466Y-78131466D01*
X70987096Y-78048208D01*
X71006631Y-77950000D01*
X70987096Y-77851792D01*
X70985899Y-77850000D01*
X71793369Y-77850000D01*
X71812904Y-77948208D01*
X71868534Y-78031466D01*
X71951792Y-78087096D01*
X72050000Y-78106631D01*
X72148208Y-78087096D01*
X72231466Y-78031466D01*
X72287096Y-77948208D01*
X72306631Y-77850000D01*
X72287096Y-77751792D01*
X72231466Y-77668534D01*
X72214677Y-77657316D01*
X72176797Y-77609266D01*
X72174395Y-77548128D01*
X72208388Y-77497254D01*
X72214677Y-77492684D01*
X72223356Y-77486885D01*
X72223357Y-77486884D01*
X72231466Y-77481466D01*
X72287096Y-77398208D01*
X72306631Y-77300000D01*
X72287096Y-77201792D01*
X72231466Y-77118534D01*
X72223356Y-77113115D01*
X72182842Y-77086045D01*
X72144962Y-77037995D01*
X72143249Y-76994383D01*
X72123448Y-77024017D01*
X72062157Y-77045271D01*
X72059562Y-77045271D01*
X72050000Y-77043369D01*
X71951792Y-77062904D01*
X71868534Y-77118534D01*
X71812904Y-77201792D01*
X71793369Y-77300000D01*
X71812904Y-77398208D01*
X71868534Y-77481466D01*
X71876643Y-77486884D01*
X71876644Y-77486885D01*
X71885323Y-77492684D01*
X71923203Y-77540734D01*
X71925605Y-77601872D01*
X71891612Y-77652746D01*
X71885323Y-77657316D01*
X71868534Y-77668534D01*
X71812904Y-77751792D01*
X71793369Y-77850000D01*
X70985899Y-77850000D01*
X70931466Y-77768534D01*
X70923357Y-77763116D01*
X70923355Y-77763114D01*
X70855651Y-77717877D01*
X70817771Y-77669828D01*
X70815368Y-77608690D01*
X70849360Y-77557816D01*
X70880028Y-77543676D01*
X70879636Y-77542730D01*
X70888645Y-77538998D01*
X70898208Y-77537096D01*
X70981466Y-77481466D01*
X71037096Y-77398208D01*
X71056631Y-77300000D01*
X71037096Y-77201792D01*
X70981466Y-77118534D01*
X70898208Y-77062904D01*
X70888645Y-77061002D01*
X70879636Y-77057270D01*
X70880404Y-77055415D01*
X70837951Y-77031637D01*
X70812337Y-76976071D01*
X70824276Y-76916062D01*
X70855651Y-76882123D01*
X70923355Y-76836886D01*
X70923357Y-76836884D01*
X70931466Y-76831466D01*
X70987096Y-76748208D01*
X71006631Y-76650000D01*
X71993369Y-76650000D01*
X72012904Y-76748208D01*
X72068534Y-76831466D01*
X72076643Y-76836884D01*
X72076644Y-76836885D01*
X72117158Y-76863955D01*
X72155038Y-76912005D01*
X72156751Y-76955617D01*
X72176552Y-76925983D01*
X72237843Y-76904729D01*
X72240438Y-76904729D01*
X72250000Y-76906631D01*
X72348208Y-76887096D01*
X72431466Y-76831466D01*
X72487096Y-76748208D01*
X72506631Y-76650000D01*
X72993369Y-76650000D01*
X73012904Y-76748208D01*
X73068534Y-76831466D01*
X73151792Y-76887096D01*
X73250000Y-76906631D01*
X73348208Y-76887096D01*
X73431466Y-76831466D01*
X73433462Y-76828479D01*
X73484513Y-76802468D01*
X73544945Y-76812039D01*
X73565562Y-76827018D01*
X73568534Y-76831466D01*
X73576643Y-76836884D01*
X73632879Y-76874459D01*
X73670759Y-76922508D01*
X73673161Y-76983647D01*
X73639169Y-77034521D01*
X73597193Y-77053873D01*
X73551792Y-77062904D01*
X73468534Y-77118534D01*
X73412904Y-77201792D01*
X73393369Y-77300000D01*
X73412904Y-77398208D01*
X73468534Y-77481466D01*
X73551792Y-77537096D01*
X73650000Y-77556631D01*
X73748208Y-77537096D01*
X73831466Y-77481466D01*
X73887096Y-77398208D01*
X73906631Y-77300000D01*
X73887096Y-77201792D01*
X73831466Y-77118534D01*
X73767121Y-77075541D01*
X73729241Y-77027492D01*
X73726839Y-76966353D01*
X73760831Y-76915479D01*
X73802807Y-76896127D01*
X73838646Y-76888998D01*
X73848208Y-76887096D01*
X73931466Y-76831466D01*
X73987096Y-76748208D01*
X74006631Y-76650000D01*
X73987096Y-76551792D01*
X73931967Y-76469284D01*
X73926528Y-76450000D01*
X77643369Y-76450000D01*
X77662904Y-76548208D01*
X77718534Y-76631466D01*
X77801792Y-76687096D01*
X77900000Y-76706631D01*
X77998208Y-76687096D01*
X78081466Y-76631466D01*
X78083462Y-76628479D01*
X78134513Y-76602468D01*
X78194945Y-76612039D01*
X78215562Y-76627018D01*
X78218534Y-76631466D01*
X78301792Y-76687096D01*
X78400000Y-76706631D01*
X78498208Y-76687096D01*
X78581466Y-76631466D01*
X78583462Y-76628479D01*
X78634513Y-76602468D01*
X78694945Y-76612039D01*
X78715562Y-76627018D01*
X78718534Y-76631466D01*
X78801792Y-76687096D01*
X78900000Y-76706631D01*
X78998208Y-76687096D01*
X79081466Y-76631466D01*
X79083462Y-76628479D01*
X79134513Y-76602468D01*
X79194945Y-76612039D01*
X79215562Y-76627018D01*
X79218534Y-76631466D01*
X79301792Y-76687096D01*
X79400000Y-76706631D01*
X79498208Y-76687096D01*
X79581466Y-76631466D01*
X79637096Y-76548208D01*
X79656631Y-76450000D01*
X82193369Y-76450000D01*
X82212904Y-76548208D01*
X82268534Y-76631466D01*
X82351792Y-76687096D01*
X82450000Y-76706631D01*
X82548208Y-76687096D01*
X82631466Y-76631466D01*
X82687096Y-76548208D01*
X82706631Y-76450000D01*
X82687096Y-76351792D01*
X82631466Y-76268534D01*
X82548208Y-76212904D01*
X82450000Y-76193369D01*
X82351792Y-76212904D01*
X82268534Y-76268534D01*
X82212904Y-76351792D01*
X82193369Y-76450000D01*
X79656631Y-76450000D01*
X79637096Y-76351792D01*
X79581466Y-76268534D01*
X79498208Y-76212904D01*
X79400000Y-76193369D01*
X79301792Y-76212904D01*
X79218534Y-76268534D01*
X79216538Y-76271521D01*
X79165487Y-76297532D01*
X79105055Y-76287961D01*
X79084438Y-76272982D01*
X79081466Y-76268534D01*
X78998208Y-76212904D01*
X78900000Y-76193369D01*
X78801792Y-76212904D01*
X78718534Y-76268534D01*
X78716538Y-76271521D01*
X78665487Y-76297532D01*
X78605055Y-76287961D01*
X78584438Y-76272982D01*
X78581466Y-76268534D01*
X78498208Y-76212904D01*
X78400000Y-76193369D01*
X78301792Y-76212904D01*
X78218534Y-76268534D01*
X78216538Y-76271521D01*
X78165487Y-76297532D01*
X78105055Y-76287961D01*
X78084438Y-76272982D01*
X78081466Y-76268534D01*
X77998208Y-76212904D01*
X77900000Y-76193369D01*
X77801792Y-76212904D01*
X77718534Y-76268534D01*
X77662904Y-76351792D01*
X77643369Y-76450000D01*
X73926528Y-76450000D01*
X73915359Y-76410395D01*
X73936537Y-76352992D01*
X73987411Y-76319000D01*
X74048549Y-76321402D01*
X74069283Y-76331967D01*
X74151792Y-76387096D01*
X74250000Y-76406631D01*
X74348208Y-76387096D01*
X74431466Y-76331466D01*
X74487096Y-76248208D01*
X74506631Y-76150000D01*
X74496685Y-76100000D01*
X83293369Y-76100000D01*
X83312904Y-76198208D01*
X83368534Y-76281466D01*
X83451792Y-76337096D01*
X83550000Y-76356631D01*
X83648208Y-76337096D01*
X83731466Y-76281466D01*
X83787096Y-76198208D01*
X83796685Y-76150000D01*
X84593369Y-76150000D01*
X84612904Y-76248208D01*
X84668534Y-76331466D01*
X84751792Y-76387096D01*
X84850000Y-76406631D01*
X84948208Y-76387096D01*
X85031466Y-76331466D01*
X85087096Y-76248208D01*
X85106631Y-76150000D01*
X85087096Y-76051792D01*
X85031466Y-75968534D01*
X84948208Y-75912904D01*
X84850000Y-75893369D01*
X84751792Y-75912904D01*
X84668534Y-75968534D01*
X84612904Y-76051792D01*
X84593369Y-76150000D01*
X83796685Y-76150000D01*
X83806631Y-76100000D01*
X83787096Y-76001792D01*
X83731466Y-75918534D01*
X83648208Y-75862904D01*
X83550000Y-75843369D01*
X83451792Y-75862904D01*
X83368534Y-75918534D01*
X83312904Y-76001792D01*
X83293369Y-76100000D01*
X74496685Y-76100000D01*
X74487096Y-76051792D01*
X74431466Y-75968534D01*
X74428479Y-75966538D01*
X74402468Y-75915487D01*
X74412039Y-75855055D01*
X74427018Y-75834438D01*
X74431466Y-75831466D01*
X74487096Y-75748208D01*
X74506631Y-75650000D01*
X74487096Y-75551792D01*
X74431466Y-75468534D01*
X74348208Y-75412904D01*
X74250000Y-75393369D01*
X74151792Y-75412904D01*
X74068534Y-75468534D01*
X74012904Y-75551792D01*
X73993369Y-75650000D01*
X74012904Y-75748208D01*
X74054773Y-75810871D01*
X74068500Y-75831415D01*
X74085108Y-75890304D01*
X74063930Y-75947707D01*
X74013056Y-75981699D01*
X73951918Y-75979297D01*
X73931183Y-75968732D01*
X73857482Y-75919488D01*
X73857483Y-75919488D01*
X73849375Y-75914071D01*
X73751167Y-75894536D01*
X73652959Y-75914071D01*
X73569701Y-75969701D01*
X73514071Y-76052959D01*
X73494536Y-76151167D01*
X73514071Y-76249375D01*
X73535513Y-76281466D01*
X73568732Y-76331183D01*
X73585340Y-76390072D01*
X73564162Y-76447475D01*
X73513288Y-76481467D01*
X73452149Y-76479065D01*
X73431415Y-76468500D01*
X73378515Y-76433154D01*
X73348208Y-76412904D01*
X73250000Y-76393369D01*
X73151792Y-76412904D01*
X73068534Y-76468534D01*
X73012904Y-76551792D01*
X72993369Y-76650000D01*
X72506631Y-76650000D01*
X72487096Y-76551792D01*
X72431466Y-76468534D01*
X72428479Y-76466538D01*
X72402468Y-76415487D01*
X72412039Y-76355055D01*
X72427018Y-76334438D01*
X72431466Y-76331466D01*
X72487096Y-76248208D01*
X72506631Y-76150000D01*
X72487096Y-76051792D01*
X72431466Y-75968534D01*
X72348208Y-75912904D01*
X72250000Y-75893369D01*
X72151792Y-75912904D01*
X72068534Y-75968534D01*
X72012904Y-76051792D01*
X71993369Y-76150000D01*
X72012904Y-76248208D01*
X72068534Y-76331466D01*
X72071521Y-76333462D01*
X72097532Y-76384513D01*
X72087961Y-76444945D01*
X72072982Y-76465562D01*
X72068534Y-76468534D01*
X72012904Y-76551792D01*
X71993369Y-76650000D01*
X71006631Y-76650000D01*
X70987096Y-76551792D01*
X70931466Y-76468534D01*
X70848208Y-76412904D01*
X70750000Y-76393369D01*
X70651792Y-76412904D01*
X70568534Y-76468534D01*
X70512904Y-76551792D01*
X70493369Y-76650000D01*
X70512904Y-76748208D01*
X70568534Y-76831466D01*
X70651792Y-76887096D01*
X70661355Y-76888998D01*
X70670364Y-76892730D01*
X70669596Y-76894585D01*
X70712049Y-76918363D01*
X70737663Y-76973929D01*
X70725724Y-77033938D01*
X70694349Y-77067877D01*
X70626645Y-77113114D01*
X70626644Y-77113115D01*
X70618534Y-77118534D01*
X70562904Y-77201792D01*
X70543369Y-77300000D01*
X70562904Y-77398208D01*
X70618534Y-77481466D01*
X70626643Y-77486884D01*
X70626645Y-77486886D01*
X70694349Y-77532123D01*
X70732229Y-77580172D01*
X70734632Y-77641310D01*
X70700640Y-77692184D01*
X70669972Y-77706324D01*
X70670364Y-77707270D01*
X70661355Y-77711002D01*
X70651792Y-77712904D01*
X70568534Y-77768534D01*
X70512904Y-77851792D01*
X70493369Y-77950000D01*
X56576003Y-77950000D01*
X56562095Y-77940985D01*
X56424739Y-77899907D01*
X56341497Y-77899398D01*
X56288427Y-77899074D01*
X56288426Y-77899074D01*
X56281376Y-77899031D01*
X56274599Y-77900968D01*
X56274598Y-77900968D01*
X56150309Y-77936490D01*
X56150307Y-77936491D01*
X56143529Y-77938428D01*
X56022280Y-78014930D01*
X56017613Y-78020214D01*
X56017611Y-78020216D01*
X55932044Y-78117103D01*
X55932042Y-78117105D01*
X55927377Y-78122388D01*
X55866447Y-78252163D01*
X55844391Y-78393823D01*
X39838731Y-78393823D01*
X39829845Y-78381593D01*
X39825000Y-78351000D01*
X39825000Y-77300000D01*
X69343369Y-77300000D01*
X69362904Y-77398208D01*
X69418534Y-77481466D01*
X69501792Y-77537096D01*
X69600000Y-77556631D01*
X69698208Y-77537096D01*
X69781466Y-77481466D01*
X69837096Y-77398208D01*
X69856631Y-77300000D01*
X69837096Y-77201792D01*
X69781466Y-77118534D01*
X69698208Y-77062904D01*
X69600000Y-77043369D01*
X69501792Y-77062904D01*
X69418534Y-77118534D01*
X69362904Y-77201792D01*
X69343369Y-77300000D01*
X39825000Y-77300000D01*
X39825000Y-76750000D01*
X65043369Y-76750000D01*
X65062904Y-76848208D01*
X65118534Y-76931466D01*
X65201792Y-76987096D01*
X65300000Y-77006631D01*
X65398208Y-76987096D01*
X65481466Y-76931466D01*
X65537096Y-76848208D01*
X65552902Y-76768747D01*
X65560972Y-76754336D01*
X65560094Y-76753386D01*
X65557585Y-76745664D01*
X65739028Y-76745664D01*
X65739906Y-76746614D01*
X65747098Y-76768747D01*
X65762904Y-76848208D01*
X65818534Y-76931466D01*
X65901792Y-76987096D01*
X66000000Y-77006631D01*
X66098208Y-76987096D01*
X66181466Y-76931466D01*
X66237096Y-76848208D01*
X66256631Y-76750000D01*
X66237096Y-76651792D01*
X66181466Y-76568534D01*
X66098208Y-76512904D01*
X66000000Y-76493369D01*
X65901792Y-76512904D01*
X65818534Y-76568534D01*
X65762904Y-76651792D01*
X65761002Y-76661354D01*
X65747098Y-76731253D01*
X65739028Y-76745664D01*
X65557585Y-76745664D01*
X65552902Y-76731253D01*
X65538998Y-76661354D01*
X65537096Y-76651792D01*
X65481466Y-76568534D01*
X65398208Y-76512904D01*
X65318747Y-76497098D01*
X65304336Y-76489028D01*
X65303386Y-76489906D01*
X65281253Y-76497098D01*
X65201792Y-76512904D01*
X65118534Y-76568534D01*
X65062904Y-76651792D01*
X65043369Y-76750000D01*
X39825000Y-76750000D01*
X39825000Y-75100000D01*
X47243369Y-75100000D01*
X47245271Y-75109562D01*
X47247056Y-75118534D01*
X47262904Y-75198208D01*
X47318534Y-75281466D01*
X47401792Y-75337096D01*
X47500000Y-75356631D01*
X47598208Y-75337096D01*
X47681466Y-75281466D01*
X47737096Y-75198208D01*
X47752944Y-75118534D01*
X47754729Y-75109562D01*
X47756631Y-75100000D01*
X47737096Y-75001792D01*
X47681466Y-74918534D01*
X47644483Y-74893823D01*
X48644391Y-74893823D01*
X48645306Y-74900820D01*
X48645306Y-74900821D01*
X48659526Y-75009562D01*
X48662980Y-75035979D01*
X48665821Y-75042435D01*
X48665821Y-75042436D01*
X48716301Y-75157159D01*
X48720720Y-75167203D01*
X48749795Y-75201792D01*
X48808431Y-75271549D01*
X48808434Y-75271551D01*
X48812970Y-75276948D01*
X48818841Y-75280856D01*
X48818842Y-75280857D01*
X48836689Y-75292737D01*
X48932313Y-75356390D01*
X49032920Y-75387821D01*
X49062425Y-75397039D01*
X49062426Y-75397039D01*
X49069157Y-75399142D01*
X49140828Y-75400456D01*
X49205445Y-75401641D01*
X49205447Y-75401641D01*
X49212499Y-75401770D01*
X49219302Y-75399915D01*
X49219304Y-75399915D01*
X49294503Y-75379413D01*
X49350817Y-75364060D01*
X49472991Y-75289045D01*
X49480403Y-75280857D01*
X49564468Y-75187982D01*
X49569200Y-75182754D01*
X49631710Y-75053733D01*
X49635875Y-75028982D01*
X49654862Y-74916124D01*
X49654862Y-74916120D01*
X49655496Y-74912354D01*
X49655647Y-74900000D01*
X49654762Y-74893823D01*
X53844391Y-74893823D01*
X53845306Y-74900820D01*
X53845306Y-74900821D01*
X53859526Y-75009562D01*
X53862980Y-75035979D01*
X53865821Y-75042435D01*
X53865821Y-75042436D01*
X53916301Y-75157159D01*
X53920720Y-75167203D01*
X53949795Y-75201792D01*
X54008431Y-75271549D01*
X54008434Y-75271551D01*
X54012970Y-75276948D01*
X54018841Y-75280856D01*
X54018842Y-75280857D01*
X54036689Y-75292737D01*
X54132313Y-75356390D01*
X54232920Y-75387821D01*
X54262425Y-75397039D01*
X54262426Y-75397039D01*
X54269157Y-75399142D01*
X54340828Y-75400456D01*
X54405445Y-75401641D01*
X54405447Y-75401641D01*
X54412499Y-75401770D01*
X54419302Y-75399915D01*
X54419304Y-75399915D01*
X54494503Y-75379413D01*
X54550817Y-75364060D01*
X54655149Y-75300000D01*
X64393369Y-75300000D01*
X64412904Y-75398208D01*
X64468534Y-75481466D01*
X64551792Y-75537096D01*
X64650000Y-75556631D01*
X64683652Y-75549937D01*
X64744411Y-75557128D01*
X64789342Y-75598661D01*
X64801279Y-75658670D01*
X64800065Y-75666337D01*
X64793369Y-75700000D01*
X64812904Y-75798208D01*
X64868534Y-75881466D01*
X64951792Y-75937096D01*
X64961355Y-75938998D01*
X64961357Y-75938999D01*
X64965588Y-75939841D01*
X65018971Y-75969739D01*
X65044585Y-76025305D01*
X65045271Y-76036938D01*
X65045271Y-76040438D01*
X65043369Y-76050000D01*
X65062904Y-76148208D01*
X65118534Y-76231466D01*
X65201792Y-76287096D01*
X65211354Y-76288998D01*
X65281253Y-76302902D01*
X65295664Y-76310972D01*
X65296614Y-76310094D01*
X65318747Y-76302902D01*
X65388646Y-76288998D01*
X65398208Y-76287096D01*
X65481466Y-76231466D01*
X65535899Y-76150000D01*
X68493369Y-76150000D01*
X68512904Y-76248208D01*
X68568534Y-76331466D01*
X68651792Y-76387096D01*
X68750000Y-76406631D01*
X68848208Y-76387096D01*
X68931466Y-76331466D01*
X68987096Y-76248208D01*
X69006631Y-76150000D01*
X68987096Y-76051792D01*
X68933855Y-75972109D01*
X68932818Y-75968432D01*
X68926488Y-75965207D01*
X68856318Y-75918322D01*
X68856315Y-75918321D01*
X68848208Y-75912904D01*
X68750000Y-75893369D01*
X68651792Y-75912904D01*
X68568534Y-75968534D01*
X68512904Y-76051792D01*
X68493369Y-76150000D01*
X65535899Y-76150000D01*
X65537096Y-76148208D01*
X65556631Y-76050000D01*
X65537096Y-75951792D01*
X65481466Y-75868534D01*
X65398208Y-75812904D01*
X65388645Y-75811002D01*
X65388643Y-75811001D01*
X65384412Y-75810159D01*
X65331029Y-75780261D01*
X65305415Y-75724695D01*
X65304729Y-75713062D01*
X65304729Y-75709562D01*
X65306631Y-75700000D01*
X65296685Y-75650000D01*
X68991028Y-75650000D01*
X69010563Y-75748208D01*
X69051957Y-75810159D01*
X69063804Y-75827890D01*
X69064841Y-75831568D01*
X69071171Y-75834793D01*
X69141341Y-75881678D01*
X69141344Y-75881679D01*
X69149451Y-75887096D01*
X69247659Y-75906631D01*
X69345867Y-75887096D01*
X69429125Y-75831466D01*
X69431702Y-75827609D01*
X69483346Y-75801297D01*
X69543778Y-75810871D01*
X69565146Y-75826396D01*
X69568534Y-75831466D01*
X69571521Y-75833462D01*
X69597532Y-75884513D01*
X69587961Y-75944945D01*
X69572982Y-75965562D01*
X69568534Y-75968534D01*
X69512904Y-76051792D01*
X69493369Y-76150000D01*
X69512904Y-76248208D01*
X69568534Y-76331466D01*
X69651792Y-76387096D01*
X69750000Y-76406631D01*
X69848208Y-76387096D01*
X69931466Y-76331466D01*
X69987096Y-76248208D01*
X70006631Y-76150000D01*
X69987096Y-76051792D01*
X69931967Y-75969284D01*
X69915359Y-75910395D01*
X69936537Y-75852992D01*
X69987411Y-75819000D01*
X70048549Y-75821402D01*
X70069283Y-75831967D01*
X70151792Y-75887096D01*
X70250000Y-75906631D01*
X70348208Y-75887096D01*
X70431466Y-75831466D01*
X70487096Y-75748208D01*
X70504729Y-75659562D01*
X70506085Y-75652746D01*
X70507623Y-75650000D01*
X72993369Y-75650000D01*
X73012904Y-75748208D01*
X73068534Y-75831466D01*
X73151792Y-75887096D01*
X73250000Y-75906631D01*
X73348208Y-75887096D01*
X73431466Y-75831466D01*
X73487096Y-75748208D01*
X73506631Y-75650000D01*
X73487096Y-75551792D01*
X73431466Y-75468534D01*
X73348208Y-75412904D01*
X73250000Y-75393369D01*
X73151792Y-75412904D01*
X73068534Y-75468534D01*
X73012904Y-75551792D01*
X72993369Y-75650000D01*
X70507623Y-75650000D01*
X70535982Y-75599362D01*
X70591547Y-75573746D01*
X70641068Y-75580595D01*
X70643683Y-75581678D01*
X70651792Y-75587096D01*
X70661355Y-75588998D01*
X70661357Y-75588999D01*
X70740438Y-75604729D01*
X70750000Y-75606631D01*
X70848208Y-75587096D01*
X70856315Y-75581679D01*
X70856318Y-75581678D01*
X70920000Y-75539128D01*
X70978888Y-75522520D01*
X71030000Y-75539128D01*
X71093682Y-75581678D01*
X71093685Y-75581679D01*
X71101792Y-75587096D01*
X71200000Y-75606631D01*
X71298208Y-75587096D01*
X71306315Y-75581679D01*
X71306318Y-75581678D01*
X71370000Y-75539128D01*
X71428888Y-75522520D01*
X71480000Y-75539128D01*
X71543682Y-75581678D01*
X71543685Y-75581679D01*
X71551792Y-75587096D01*
X71650000Y-75606631D01*
X71748208Y-75587096D01*
X71831466Y-75531466D01*
X71887096Y-75448208D01*
X71906631Y-75350000D01*
X71887096Y-75251792D01*
X71831466Y-75168534D01*
X71748208Y-75112904D01*
X71650000Y-75093369D01*
X71551792Y-75112904D01*
X71543685Y-75118321D01*
X71543682Y-75118322D01*
X71480000Y-75160872D01*
X71421112Y-75177480D01*
X71370000Y-75160872D01*
X71306318Y-75118322D01*
X71306315Y-75118321D01*
X71298208Y-75112904D01*
X71200000Y-75093369D01*
X71101792Y-75112904D01*
X71093685Y-75118321D01*
X71093682Y-75118322D01*
X71030000Y-75160872D01*
X70971112Y-75177480D01*
X70920000Y-75160872D01*
X70856318Y-75118322D01*
X70856315Y-75118321D01*
X70848208Y-75112904D01*
X70750000Y-75093369D01*
X70651792Y-75112904D01*
X70568534Y-75168534D01*
X70512904Y-75251792D01*
X70511002Y-75261354D01*
X70493915Y-75347254D01*
X70464018Y-75400638D01*
X70408453Y-75426254D01*
X70358932Y-75419405D01*
X70356316Y-75418321D01*
X70348208Y-75412904D01*
X70338645Y-75411002D01*
X70338643Y-75411001D01*
X70259562Y-75395271D01*
X70250000Y-75393369D01*
X70151792Y-75412904D01*
X70068534Y-75468534D01*
X70066538Y-75471521D01*
X70015487Y-75497532D01*
X69955055Y-75487961D01*
X69934438Y-75472982D01*
X69931466Y-75468534D01*
X69848208Y-75412904D01*
X69750000Y-75393369D01*
X69651792Y-75412904D01*
X69568534Y-75468534D01*
X69565958Y-75472390D01*
X69514320Y-75498703D01*
X69453888Y-75489133D01*
X69432513Y-75473604D01*
X69429125Y-75468534D01*
X69345867Y-75412904D01*
X69247659Y-75393369D01*
X69149451Y-75412904D01*
X69066193Y-75468534D01*
X69010563Y-75551792D01*
X68991028Y-75650000D01*
X65296685Y-75650000D01*
X65287096Y-75601792D01*
X65231466Y-75518534D01*
X65148208Y-75462904D01*
X65050000Y-75443369D01*
X65016348Y-75450063D01*
X64955589Y-75442872D01*
X64910658Y-75401339D01*
X64898721Y-75341330D01*
X64899935Y-75333663D01*
X64906631Y-75300000D01*
X64887096Y-75201792D01*
X64831466Y-75118534D01*
X64748208Y-75062904D01*
X64650000Y-75043369D01*
X64551792Y-75062904D01*
X64468534Y-75118534D01*
X64412904Y-75201792D01*
X64393369Y-75300000D01*
X54655149Y-75300000D01*
X54672991Y-75289045D01*
X54680403Y-75280857D01*
X54764468Y-75187982D01*
X54769200Y-75182754D01*
X54831710Y-75053733D01*
X54835875Y-75028982D01*
X54840751Y-75000000D01*
X65093369Y-75000000D01*
X65112904Y-75098208D01*
X65168534Y-75181466D01*
X65251792Y-75237096D01*
X65350000Y-75256631D01*
X65448208Y-75237096D01*
X65531466Y-75181466D01*
X65587096Y-75098208D01*
X65606631Y-75000000D01*
X65587096Y-74901792D01*
X65531466Y-74818534D01*
X65448208Y-74762904D01*
X65350000Y-74743369D01*
X65251792Y-74762904D01*
X65168534Y-74818534D01*
X65112904Y-74901792D01*
X65093369Y-75000000D01*
X54840751Y-75000000D01*
X54854862Y-74916124D01*
X54854862Y-74916120D01*
X54855496Y-74912354D01*
X54855647Y-74900000D01*
X54835323Y-74758082D01*
X54775984Y-74627572D01*
X54682400Y-74518963D01*
X54562095Y-74440985D01*
X54424739Y-74399907D01*
X54341497Y-74399398D01*
X54288427Y-74399074D01*
X54288426Y-74399074D01*
X54281376Y-74399031D01*
X54274599Y-74400968D01*
X54274598Y-74400968D01*
X54150309Y-74436490D01*
X54150307Y-74436491D01*
X54143529Y-74438428D01*
X54022280Y-74514930D01*
X54017613Y-74520214D01*
X54017611Y-74520216D01*
X53932044Y-74617103D01*
X53932042Y-74617105D01*
X53927377Y-74622388D01*
X53866447Y-74752163D01*
X53865362Y-74759132D01*
X53865361Y-74759135D01*
X53851950Y-74845271D01*
X53844391Y-74893823D01*
X49654762Y-74893823D01*
X49635323Y-74758082D01*
X49575984Y-74627572D01*
X49482400Y-74518963D01*
X49362095Y-74440985D01*
X49224739Y-74399907D01*
X49141497Y-74399398D01*
X49088427Y-74399074D01*
X49088426Y-74399074D01*
X49081376Y-74399031D01*
X49074599Y-74400968D01*
X49074598Y-74400968D01*
X48950309Y-74436490D01*
X48950307Y-74436491D01*
X48943529Y-74438428D01*
X48822280Y-74514930D01*
X48817613Y-74520214D01*
X48817611Y-74520216D01*
X48732044Y-74617103D01*
X48732042Y-74617105D01*
X48727377Y-74622388D01*
X48666447Y-74752163D01*
X48665362Y-74759132D01*
X48665361Y-74759135D01*
X48651950Y-74845271D01*
X48644391Y-74893823D01*
X47644483Y-74893823D01*
X47598208Y-74862904D01*
X47500000Y-74843369D01*
X47401792Y-74862904D01*
X47318534Y-74918534D01*
X47262904Y-75001792D01*
X47243369Y-75100000D01*
X39825000Y-75100000D01*
X39825000Y-74151167D01*
X68492202Y-74151167D01*
X68511737Y-74249375D01*
X68567367Y-74332633D01*
X68570354Y-74334629D01*
X68596365Y-74385680D01*
X68586794Y-74446112D01*
X68572362Y-74465976D01*
X68568534Y-74468534D01*
X68512904Y-74551792D01*
X68493369Y-74650000D01*
X68512904Y-74748208D01*
X68568534Y-74831466D01*
X68651792Y-74887096D01*
X68750000Y-74906631D01*
X68848208Y-74887096D01*
X68931466Y-74831466D01*
X68987096Y-74748208D01*
X69006631Y-74650000D01*
X68987096Y-74551792D01*
X68931466Y-74468534D01*
X68928479Y-74466538D01*
X68902468Y-74415487D01*
X68912039Y-74355055D01*
X68926471Y-74335191D01*
X68930299Y-74332633D01*
X68985929Y-74249375D01*
X69005464Y-74151167D01*
X69005232Y-74150000D01*
X69493369Y-74150000D01*
X69512904Y-74248208D01*
X69568534Y-74331466D01*
X69576643Y-74336884D01*
X69618670Y-74364965D01*
X69656550Y-74413014D01*
X69658952Y-74474153D01*
X69645985Y-74502281D01*
X69612904Y-74551792D01*
X69593369Y-74650000D01*
X69612904Y-74748208D01*
X69668534Y-74831466D01*
X69751792Y-74887096D01*
X69850000Y-74906631D01*
X69948208Y-74887096D01*
X70031466Y-74831466D01*
X70087096Y-74748208D01*
X70106631Y-74650000D01*
X73493369Y-74650000D01*
X73512904Y-74748208D01*
X73568534Y-74831466D01*
X73651792Y-74887096D01*
X73750000Y-74906631D01*
X73848208Y-74887096D01*
X73931466Y-74831466D01*
X73933462Y-74828479D01*
X73984513Y-74802468D01*
X74044945Y-74812039D01*
X74065562Y-74827018D01*
X74068534Y-74831466D01*
X74151792Y-74887096D01*
X74250000Y-74906631D01*
X74348208Y-74887096D01*
X74431466Y-74831466D01*
X74433462Y-74828479D01*
X74484513Y-74802468D01*
X74544945Y-74812039D01*
X74565562Y-74827018D01*
X74568534Y-74831466D01*
X74651792Y-74887096D01*
X74750000Y-74906631D01*
X74848208Y-74887096D01*
X74931466Y-74831466D01*
X74987096Y-74748208D01*
X75006631Y-74650000D01*
X74987096Y-74551792D01*
X74931466Y-74468534D01*
X74848208Y-74412904D01*
X74778681Y-74399074D01*
X74759562Y-74395271D01*
X74750000Y-74393369D01*
X74740438Y-74395271D01*
X74721319Y-74399074D01*
X74651792Y-74412904D01*
X74569284Y-74468033D01*
X74510395Y-74484641D01*
X74452992Y-74463463D01*
X74419000Y-74412589D01*
X74421402Y-74351451D01*
X74431967Y-74330716D01*
X74481679Y-74256315D01*
X74487096Y-74248208D01*
X74506631Y-74150000D01*
X74487096Y-74051792D01*
X74431466Y-73968534D01*
X74348208Y-73912904D01*
X74250000Y-73893369D01*
X74151792Y-73912904D01*
X74076643Y-73963116D01*
X74069284Y-73968033D01*
X74068567Y-73968235D01*
X74068033Y-73969283D01*
X74012904Y-74051792D01*
X73993369Y-74150000D01*
X74012904Y-74248208D01*
X74018321Y-74256315D01*
X74068033Y-74330716D01*
X74084641Y-74389605D01*
X74063463Y-74447008D01*
X74012589Y-74481000D01*
X73951451Y-74478598D01*
X73930716Y-74468033D01*
X73848208Y-74412904D01*
X73778681Y-74399074D01*
X73759562Y-74395271D01*
X73750000Y-74393369D01*
X73740438Y-74395271D01*
X73721319Y-74399074D01*
X73651792Y-74412904D01*
X73568534Y-74468534D01*
X73512904Y-74551792D01*
X73493369Y-74650000D01*
X70106631Y-74650000D01*
X70087096Y-74551792D01*
X70031466Y-74468534D01*
X69981330Y-74435035D01*
X69943450Y-74386986D01*
X69941048Y-74325847D01*
X69954015Y-74297718D01*
X69981679Y-74256315D01*
X69987096Y-74248208D01*
X70006631Y-74150000D01*
X69987096Y-74051792D01*
X69931466Y-73968534D01*
X69848208Y-73912904D01*
X69750000Y-73893369D01*
X69651792Y-73912904D01*
X69576643Y-73963116D01*
X69569284Y-73968033D01*
X69568567Y-73968235D01*
X69568033Y-73969283D01*
X69512904Y-74051792D01*
X69493369Y-74150000D01*
X69005232Y-74150000D01*
X68985929Y-74052959D01*
X68930299Y-73969701D01*
X68927312Y-73967705D01*
X68901301Y-73916654D01*
X68910872Y-73856222D01*
X68926397Y-73834853D01*
X68931466Y-73831466D01*
X68933462Y-73828479D01*
X68984513Y-73802468D01*
X69044945Y-73812039D01*
X69065562Y-73827018D01*
X69068534Y-73831466D01*
X69151792Y-73887096D01*
X69250000Y-73906631D01*
X69348208Y-73887096D01*
X69430716Y-73831967D01*
X69431433Y-73831765D01*
X69431967Y-73830716D01*
X69481679Y-73756315D01*
X69487096Y-73748208D01*
X69506631Y-73650000D01*
X73493369Y-73650000D01*
X73512904Y-73748208D01*
X73568534Y-73831466D01*
X73651792Y-73887096D01*
X73750000Y-73906631D01*
X73848208Y-73887096D01*
X73930716Y-73831967D01*
X73931433Y-73831765D01*
X73931967Y-73830716D01*
X73981679Y-73756315D01*
X73987096Y-73748208D01*
X73996685Y-73700000D01*
X79243369Y-73700000D01*
X79262904Y-73798208D01*
X79318534Y-73881466D01*
X79401792Y-73937096D01*
X79500000Y-73956631D01*
X79598208Y-73937096D01*
X79681466Y-73881466D01*
X79737096Y-73798208D01*
X79756631Y-73700000D01*
X80243369Y-73700000D01*
X80262904Y-73798208D01*
X80318534Y-73881466D01*
X80401792Y-73937096D01*
X80500000Y-73956631D01*
X80598208Y-73937096D01*
X80681466Y-73881466D01*
X80683462Y-73878479D01*
X80734513Y-73852468D01*
X80794945Y-73862039D01*
X80815562Y-73877018D01*
X80818534Y-73881466D01*
X80901792Y-73937096D01*
X81000000Y-73956631D01*
X81098208Y-73937096D01*
X81181466Y-73881466D01*
X81237096Y-73798208D01*
X81256631Y-73700000D01*
X81237096Y-73601792D01*
X81181967Y-73519284D01*
X81165359Y-73460395D01*
X81186537Y-73402992D01*
X81237411Y-73369000D01*
X81298549Y-73371402D01*
X81319283Y-73381967D01*
X81401792Y-73437096D01*
X81500000Y-73456631D01*
X81598208Y-73437096D01*
X81681466Y-73381466D01*
X81683462Y-73378479D01*
X81734513Y-73352468D01*
X81794945Y-73362039D01*
X81815562Y-73377018D01*
X81818534Y-73381466D01*
X81901792Y-73437096D01*
X82000000Y-73456631D01*
X82098208Y-73437096D01*
X82181466Y-73381466D01*
X82237096Y-73298208D01*
X82256631Y-73200000D01*
X82237096Y-73101792D01*
X82181466Y-73018534D01*
X82178479Y-73016538D01*
X82152468Y-72965487D01*
X82154921Y-72950000D01*
X84343369Y-72950000D01*
X84362904Y-73048208D01*
X84418534Y-73131466D01*
X84501792Y-73187096D01*
X84600000Y-73206631D01*
X84698208Y-73187096D01*
X84781466Y-73131466D01*
X84837096Y-73048208D01*
X84856631Y-72950000D01*
X84837096Y-72851792D01*
X84781466Y-72768534D01*
X84698208Y-72712904D01*
X84628681Y-72699074D01*
X84609562Y-72695271D01*
X84600000Y-72693369D01*
X84590438Y-72695271D01*
X84571319Y-72699074D01*
X84501792Y-72712904D01*
X84418534Y-72768534D01*
X84362904Y-72851792D01*
X84343369Y-72950000D01*
X82154921Y-72950000D01*
X82162039Y-72905055D01*
X82177018Y-72884438D01*
X82181466Y-72881466D01*
X82237096Y-72798208D01*
X82256631Y-72700000D01*
X82237096Y-72601792D01*
X82181466Y-72518534D01*
X82098208Y-72462904D01*
X82000000Y-72443369D01*
X81901792Y-72462904D01*
X81818534Y-72518534D01*
X81762904Y-72601792D01*
X81743369Y-72700000D01*
X81762904Y-72798208D01*
X81781903Y-72826643D01*
X81818033Y-72880716D01*
X81834641Y-72939605D01*
X81813463Y-72997008D01*
X81762589Y-73031000D01*
X81701451Y-73028598D01*
X81680716Y-73018033D01*
X81651786Y-72998703D01*
X81598208Y-72962904D01*
X81500000Y-72943369D01*
X81401792Y-72962904D01*
X81318534Y-73018534D01*
X81316538Y-73021521D01*
X81265487Y-73047532D01*
X81205055Y-73037961D01*
X81184438Y-73022982D01*
X81181466Y-73018534D01*
X81098208Y-72962904D01*
X81000000Y-72943369D01*
X80901792Y-72962904D01*
X80818534Y-73018534D01*
X80762904Y-73101792D01*
X80743369Y-73200000D01*
X80762904Y-73298208D01*
X80785126Y-73331466D01*
X80818033Y-73380716D01*
X80834641Y-73439605D01*
X80813463Y-73497008D01*
X80762589Y-73531000D01*
X80701451Y-73528598D01*
X80680716Y-73518033D01*
X80639816Y-73490705D01*
X80598208Y-73462904D01*
X80500000Y-73443369D01*
X80401792Y-73462904D01*
X80318534Y-73518534D01*
X80262904Y-73601792D01*
X80243369Y-73700000D01*
X79756631Y-73700000D01*
X79737096Y-73601792D01*
X79681466Y-73518534D01*
X79678479Y-73516538D01*
X79652468Y-73465487D01*
X79662039Y-73405055D01*
X79677018Y-73384438D01*
X79681466Y-73381466D01*
X79737096Y-73298208D01*
X79756631Y-73200000D01*
X79737096Y-73101792D01*
X79681466Y-73018534D01*
X79678479Y-73016538D01*
X79652468Y-72965487D01*
X79662039Y-72905055D01*
X79677018Y-72884438D01*
X79681466Y-72881466D01*
X79737096Y-72798208D01*
X79756631Y-72700000D01*
X79737096Y-72601792D01*
X79681466Y-72518534D01*
X79598208Y-72462904D01*
X79500000Y-72443369D01*
X79401792Y-72462904D01*
X79318534Y-72518534D01*
X79262904Y-72601792D01*
X79243369Y-72700000D01*
X79262904Y-72798208D01*
X79318534Y-72881466D01*
X79321521Y-72883462D01*
X79347532Y-72934513D01*
X79337961Y-72994945D01*
X79322982Y-73015562D01*
X79318534Y-73018534D01*
X79262904Y-73101792D01*
X79243369Y-73200000D01*
X79262904Y-73298208D01*
X79318534Y-73381466D01*
X79321521Y-73383462D01*
X79347532Y-73434513D01*
X79337961Y-73494945D01*
X79322982Y-73515562D01*
X79318534Y-73518534D01*
X79262904Y-73601792D01*
X79243369Y-73700000D01*
X73996685Y-73700000D01*
X74006631Y-73650000D01*
X73987096Y-73551792D01*
X73931967Y-73469284D01*
X73915359Y-73410395D01*
X73936537Y-73352992D01*
X73987411Y-73319000D01*
X74048549Y-73321402D01*
X74069283Y-73331967D01*
X74151792Y-73387096D01*
X74250000Y-73406631D01*
X74348208Y-73387096D01*
X74431466Y-73331466D01*
X74432880Y-73329350D01*
X74483347Y-73303638D01*
X74543779Y-73313212D01*
X74565146Y-73328736D01*
X74568534Y-73333807D01*
X74651792Y-73389437D01*
X74750000Y-73408972D01*
X74848208Y-73389437D01*
X74931466Y-73333807D01*
X74987096Y-73250549D01*
X75006631Y-73152341D01*
X74987096Y-73054133D01*
X74931466Y-72970875D01*
X74848208Y-72915245D01*
X74750000Y-72895710D01*
X74651792Y-72915245D01*
X74625604Y-72932743D01*
X74576642Y-72965457D01*
X74576640Y-72965459D01*
X74568534Y-72970875D01*
X74567121Y-72972990D01*
X74516662Y-72998703D01*
X74456230Y-72989133D01*
X74434854Y-72973604D01*
X74431466Y-72968534D01*
X74348208Y-72912904D01*
X74250000Y-72893369D01*
X74151792Y-72912904D01*
X74068534Y-72968534D01*
X74066538Y-72971521D01*
X74015487Y-72997532D01*
X73955055Y-72987961D01*
X73934438Y-72972982D01*
X73931466Y-72968534D01*
X73848208Y-72912904D01*
X73750000Y-72893369D01*
X73651792Y-72912904D01*
X73568534Y-72968534D01*
X73512904Y-73051792D01*
X73493369Y-73150000D01*
X73512904Y-73248208D01*
X73568534Y-73331466D01*
X73571521Y-73333462D01*
X73597532Y-73384513D01*
X73587961Y-73444945D01*
X73572982Y-73465562D01*
X73568534Y-73468534D01*
X73512904Y-73551792D01*
X73493369Y-73650000D01*
X69506631Y-73650000D01*
X69487096Y-73551792D01*
X69431466Y-73468534D01*
X69428479Y-73466538D01*
X69402468Y-73415487D01*
X69412039Y-73355055D01*
X69427018Y-73334438D01*
X69431466Y-73331466D01*
X69487096Y-73248208D01*
X69506631Y-73150000D01*
X69487096Y-73051792D01*
X69431466Y-72968534D01*
X69428479Y-72966538D01*
X69402468Y-72915487D01*
X69412039Y-72855055D01*
X69427018Y-72834438D01*
X69431466Y-72831466D01*
X69487096Y-72748208D01*
X69506631Y-72650000D01*
X69487096Y-72551792D01*
X69431466Y-72468534D01*
X69428479Y-72466538D01*
X69402468Y-72415487D01*
X69412039Y-72355055D01*
X69427018Y-72334438D01*
X69431466Y-72331466D01*
X69487096Y-72248208D01*
X69506631Y-72150000D01*
X69487096Y-72051792D01*
X69431466Y-71968534D01*
X69427609Y-71965957D01*
X69401298Y-71914317D01*
X69410869Y-71853885D01*
X69425299Y-71834023D01*
X69429126Y-71831466D01*
X69484756Y-71748208D01*
X69504291Y-71650000D01*
X69993369Y-71650000D01*
X70012904Y-71748208D01*
X70068534Y-71831466D01*
X70151792Y-71887096D01*
X70250000Y-71906631D01*
X70348208Y-71887096D01*
X70431466Y-71831466D01*
X70433462Y-71828479D01*
X70484513Y-71802468D01*
X70544945Y-71812039D01*
X70565562Y-71827018D01*
X70568534Y-71831466D01*
X70651792Y-71887096D01*
X70750000Y-71906631D01*
X70848208Y-71887096D01*
X70931466Y-71831466D01*
X70933462Y-71828479D01*
X70984513Y-71802468D01*
X71044945Y-71812039D01*
X71065562Y-71827018D01*
X71068534Y-71831466D01*
X71151792Y-71887096D01*
X71250000Y-71906631D01*
X71348208Y-71887096D01*
X71431466Y-71831466D01*
X71436152Y-71824453D01*
X71489927Y-71797054D01*
X71550359Y-71806625D01*
X71587730Y-71839834D01*
X71598702Y-71856255D01*
X71681960Y-71911885D01*
X71780168Y-71931420D01*
X71878376Y-71911885D01*
X71896164Y-71900000D01*
X72393369Y-71900000D01*
X72412904Y-71998208D01*
X72468534Y-72081466D01*
X72551792Y-72137096D01*
X72650000Y-72156631D01*
X72683336Y-72150000D01*
X73493369Y-72150000D01*
X73512904Y-72248208D01*
X73568534Y-72331466D01*
X73651792Y-72387096D01*
X73750000Y-72406631D01*
X73848208Y-72387096D01*
X73931466Y-72331466D01*
X73987096Y-72248208D01*
X73997598Y-72195411D01*
X87992001Y-72195411D01*
X87992290Y-72200751D01*
X87998078Y-72254035D01*
X88000927Y-72266020D01*
X88047351Y-72389855D01*
X88054059Y-72402108D01*
X88132863Y-72507256D01*
X88142744Y-72517137D01*
X88247892Y-72595941D01*
X88260145Y-72602649D01*
X88356595Y-72638807D01*
X88404446Y-72676938D01*
X88420745Y-72735912D01*
X88417469Y-72757131D01*
X88417439Y-72757245D01*
X88414956Y-72763238D01*
X88414110Y-72769666D01*
X88414109Y-72769669D01*
X88395503Y-72911002D01*
X88394318Y-72920000D01*
X88414956Y-73076762D01*
X88417440Y-73082759D01*
X88421966Y-73093685D01*
X88475464Y-73222841D01*
X88571718Y-73348282D01*
X88697159Y-73444536D01*
X88721767Y-73454729D01*
X88743029Y-73463536D01*
X88789554Y-73503273D01*
X88803838Y-73562767D01*
X88780423Y-73619295D01*
X88743029Y-73646464D01*
X88697159Y-73665464D01*
X88571718Y-73761718D01*
X88475464Y-73887159D01*
X88414956Y-74033238D01*
X88394318Y-74190000D01*
X88414956Y-74346762D01*
X88475464Y-74492841D01*
X88571718Y-74618282D01*
X88697159Y-74714536D01*
X88743029Y-74733536D01*
X88789554Y-74773273D01*
X88803838Y-74832767D01*
X88780423Y-74889295D01*
X88743029Y-74916464D01*
X88697159Y-74935464D01*
X88571718Y-75031718D01*
X88475464Y-75157159D01*
X88462697Y-75187982D01*
X88419306Y-75292737D01*
X88414956Y-75303238D01*
X88406949Y-75364060D01*
X88396508Y-75443369D01*
X88394318Y-75460000D01*
X88395165Y-75466434D01*
X88395602Y-75469755D01*
X88414956Y-75616762D01*
X88475464Y-75762841D01*
X88571718Y-75888282D01*
X88697159Y-75984536D01*
X88719247Y-75993685D01*
X88743029Y-76003536D01*
X88789554Y-76043273D01*
X88803838Y-76102767D01*
X88780423Y-76159295D01*
X88743029Y-76186464D01*
X88697159Y-76205464D01*
X88571718Y-76301718D01*
X88475464Y-76427159D01*
X88427197Y-76543685D01*
X88419879Y-76561354D01*
X88414956Y-76573238D01*
X88394318Y-76730000D01*
X88414956Y-76886762D01*
X88475464Y-77032841D01*
X88571718Y-77158282D01*
X88697159Y-77254536D01*
X88843238Y-77315044D01*
X89000000Y-77335682D01*
X89156762Y-77315044D01*
X89302841Y-77254536D01*
X89428282Y-77158282D01*
X89524536Y-77032841D01*
X89585044Y-76886762D01*
X89605682Y-76730000D01*
X89585044Y-76573238D01*
X89580122Y-76561354D01*
X89572803Y-76543685D01*
X89524536Y-76427159D01*
X89428282Y-76301718D01*
X89302841Y-76205464D01*
X89256971Y-76186464D01*
X89210446Y-76146727D01*
X89196162Y-76087233D01*
X89219577Y-76030705D01*
X89256971Y-76003536D01*
X89280753Y-75993685D01*
X89302841Y-75984536D01*
X89428282Y-75888282D01*
X89524536Y-75762841D01*
X89585044Y-75616762D01*
X89604398Y-75469755D01*
X89604835Y-75466434D01*
X89605682Y-75460000D01*
X89603493Y-75443369D01*
X89593051Y-75364060D01*
X89585044Y-75303238D01*
X89580695Y-75292737D01*
X89537303Y-75187982D01*
X89524536Y-75157159D01*
X89428282Y-75031718D01*
X89302841Y-74935464D01*
X89256971Y-74916464D01*
X89210446Y-74876727D01*
X89196162Y-74817233D01*
X89219577Y-74760705D01*
X89256971Y-74733536D01*
X89302841Y-74714536D01*
X89428282Y-74618282D01*
X89524536Y-74492841D01*
X89585044Y-74346762D01*
X89605682Y-74190000D01*
X89585044Y-74033238D01*
X89524536Y-73887159D01*
X89428282Y-73761718D01*
X89302841Y-73665464D01*
X89256971Y-73646464D01*
X89210446Y-73606727D01*
X89196162Y-73547233D01*
X89219577Y-73490705D01*
X89256971Y-73463536D01*
X89278233Y-73454729D01*
X89302841Y-73444536D01*
X89428282Y-73348282D01*
X89524536Y-73222841D01*
X89578034Y-73093685D01*
X89582560Y-73082759D01*
X89585044Y-73076762D01*
X89605682Y-72920000D01*
X89604497Y-72911002D01*
X89585891Y-72769669D01*
X89585890Y-72769666D01*
X89585044Y-72763238D01*
X89582561Y-72757245D01*
X89582531Y-72757131D01*
X89585732Y-72696029D01*
X89624237Y-72648479D01*
X89643405Y-72638807D01*
X89739855Y-72602649D01*
X89752108Y-72595941D01*
X89857256Y-72517137D01*
X89867137Y-72507256D01*
X89945941Y-72402108D01*
X89952649Y-72389855D01*
X89999072Y-72266022D01*
X90001923Y-72254033D01*
X90007711Y-72200748D01*
X90008000Y-72195414D01*
X90008000Y-71919680D01*
X90003878Y-71906995D01*
X89999757Y-71904000D01*
X88007681Y-71904000D01*
X87994996Y-71908122D01*
X87992001Y-71912243D01*
X87992001Y-72195411D01*
X73997598Y-72195411D01*
X74006631Y-72150000D01*
X73987096Y-72051792D01*
X73931466Y-71968534D01*
X73848208Y-71912904D01*
X73750000Y-71893369D01*
X73651792Y-71912904D01*
X73568534Y-71968534D01*
X73512904Y-72051792D01*
X73493369Y-72150000D01*
X72683336Y-72150000D01*
X72748208Y-72137096D01*
X72831466Y-72081466D01*
X72887096Y-71998208D01*
X72906631Y-71900000D01*
X72887096Y-71801792D01*
X72831466Y-71718534D01*
X72748208Y-71662904D01*
X72650000Y-71643369D01*
X72551792Y-71662904D01*
X72468534Y-71718534D01*
X72412904Y-71801792D01*
X72393369Y-71900000D01*
X71896164Y-71900000D01*
X71961634Y-71856255D01*
X72017264Y-71772997D01*
X72036799Y-71674789D01*
X72026259Y-71621800D01*
X74963201Y-71621800D01*
X74982736Y-71720008D01*
X75038366Y-71803266D01*
X75121624Y-71858896D01*
X75219832Y-71878431D01*
X75318040Y-71858896D01*
X75401298Y-71803266D01*
X75456928Y-71720008D01*
X75476463Y-71621800D01*
X75456928Y-71523592D01*
X75401298Y-71440334D01*
X75318040Y-71384704D01*
X75219832Y-71365169D01*
X75121624Y-71384704D01*
X75038366Y-71440334D01*
X74982736Y-71523592D01*
X74963201Y-71621800D01*
X72026259Y-71621800D01*
X72017264Y-71576581D01*
X71961634Y-71493323D01*
X71878376Y-71437693D01*
X71780168Y-71418158D01*
X71681960Y-71437693D01*
X71598702Y-71493323D01*
X71594016Y-71500336D01*
X71540241Y-71527735D01*
X71479809Y-71518164D01*
X71442438Y-71484955D01*
X71436885Y-71476644D01*
X71436884Y-71476643D01*
X71431466Y-71468534D01*
X71348208Y-71412904D01*
X71250000Y-71393369D01*
X71151792Y-71412904D01*
X71069836Y-71467664D01*
X71069284Y-71468033D01*
X71010395Y-71484641D01*
X70952992Y-71463463D01*
X70919000Y-71412589D01*
X70921402Y-71351451D01*
X70931967Y-71330716D01*
X70981679Y-71256315D01*
X70987096Y-71248208D01*
X71006631Y-71150000D01*
X72993369Y-71150000D01*
X73012904Y-71248208D01*
X73068534Y-71331466D01*
X73151792Y-71387096D01*
X73250000Y-71406631D01*
X73348208Y-71387096D01*
X73431466Y-71331466D01*
X73433462Y-71328479D01*
X73484513Y-71302468D01*
X73544945Y-71312039D01*
X73565562Y-71327018D01*
X73568534Y-71331466D01*
X73651792Y-71387096D01*
X73750000Y-71406631D01*
X73848208Y-71387096D01*
X73931466Y-71331466D01*
X73987096Y-71248208D01*
X73996685Y-71200000D01*
X80243369Y-71200000D01*
X80262904Y-71298208D01*
X80318534Y-71381466D01*
X80401792Y-71437096D01*
X80500000Y-71456631D01*
X80598208Y-71437096D01*
X80681466Y-71381466D01*
X80682232Y-71380320D01*
X87992000Y-71380320D01*
X87996122Y-71393005D01*
X88000243Y-71396000D01*
X88730320Y-71396000D01*
X88743005Y-71391878D01*
X88746000Y-71387757D01*
X88746000Y-71380320D01*
X89254000Y-71380320D01*
X89258122Y-71393005D01*
X89262243Y-71396000D01*
X89992319Y-71396000D01*
X90005004Y-71391878D01*
X90007999Y-71387757D01*
X90007999Y-71104589D01*
X90007710Y-71099249D01*
X90001922Y-71045965D01*
X89999073Y-71033980D01*
X89952649Y-70910145D01*
X89945941Y-70897892D01*
X89867137Y-70792744D01*
X89857256Y-70782863D01*
X89752108Y-70704059D01*
X89739855Y-70697351D01*
X89616022Y-70650928D01*
X89604033Y-70648077D01*
X89550748Y-70642289D01*
X89545414Y-70642000D01*
X89269680Y-70642000D01*
X89256995Y-70646122D01*
X89254000Y-70650243D01*
X89254000Y-71380320D01*
X88746000Y-71380320D01*
X88746000Y-70657681D01*
X88741878Y-70644996D01*
X88737757Y-70642001D01*
X88454589Y-70642001D01*
X88449249Y-70642290D01*
X88395965Y-70648078D01*
X88383980Y-70650927D01*
X88260145Y-70697351D01*
X88247892Y-70704059D01*
X88142744Y-70782863D01*
X88132863Y-70792744D01*
X88054059Y-70897892D01*
X88047351Y-70910145D01*
X88000928Y-71033978D01*
X87998077Y-71045967D01*
X87992289Y-71099252D01*
X87992000Y-71104586D01*
X87992000Y-71380320D01*
X80682232Y-71380320D01*
X80737096Y-71298208D01*
X80756631Y-71200000D01*
X80737096Y-71101792D01*
X80681466Y-71018534D01*
X80678479Y-71016538D01*
X80652468Y-70965487D01*
X80662039Y-70905055D01*
X80677018Y-70884438D01*
X80681466Y-70881466D01*
X80737096Y-70798208D01*
X80756631Y-70700000D01*
X81243369Y-70700000D01*
X81262904Y-70798208D01*
X81318534Y-70881466D01*
X81401792Y-70937096D01*
X81500000Y-70956631D01*
X81598208Y-70937096D01*
X81681466Y-70881466D01*
X81737096Y-70798208D01*
X81756631Y-70700000D01*
X81737096Y-70601792D01*
X81681466Y-70518534D01*
X81598208Y-70462904D01*
X81500000Y-70443369D01*
X81401792Y-70462904D01*
X81318534Y-70518534D01*
X81262904Y-70601792D01*
X81243369Y-70700000D01*
X80756631Y-70700000D01*
X80737096Y-70601792D01*
X80681466Y-70518534D01*
X80598208Y-70462904D01*
X80500000Y-70443369D01*
X80401792Y-70462904D01*
X80318534Y-70518534D01*
X80262904Y-70601792D01*
X80243369Y-70700000D01*
X80262904Y-70798208D01*
X80318534Y-70881466D01*
X80321521Y-70883462D01*
X80347532Y-70934513D01*
X80337961Y-70994945D01*
X80322982Y-71015562D01*
X80318534Y-71018534D01*
X80262904Y-71101792D01*
X80243369Y-71200000D01*
X73996685Y-71200000D01*
X74006631Y-71150000D01*
X73987096Y-71051792D01*
X73931466Y-70968534D01*
X73928479Y-70966538D01*
X73902468Y-70915487D01*
X73912039Y-70855055D01*
X73915712Y-70850000D01*
X78493369Y-70850000D01*
X78512904Y-70948208D01*
X78568534Y-71031466D01*
X78651792Y-71087096D01*
X78750000Y-71106631D01*
X78848208Y-71087096D01*
X78931466Y-71031466D01*
X78987096Y-70948208D01*
X79006631Y-70850000D01*
X78987096Y-70751792D01*
X78931466Y-70668534D01*
X78864680Y-70623910D01*
X78847688Y-70602356D01*
X78834207Y-70607330D01*
X78811007Y-70605504D01*
X78750000Y-70593369D01*
X78651792Y-70612904D01*
X78568534Y-70668534D01*
X78512904Y-70751792D01*
X78493369Y-70850000D01*
X73915712Y-70850000D01*
X73927018Y-70834438D01*
X73931466Y-70831466D01*
X73987096Y-70748208D01*
X74006631Y-70650000D01*
X73987096Y-70551792D01*
X73931466Y-70468534D01*
X73848208Y-70412904D01*
X73750000Y-70393369D01*
X73651792Y-70412904D01*
X73643684Y-70418321D01*
X73643685Y-70418321D01*
X73576642Y-70463116D01*
X73576640Y-70463118D01*
X73568534Y-70468534D01*
X73567121Y-70470649D01*
X73516662Y-70496362D01*
X73456230Y-70486792D01*
X73434854Y-70471263D01*
X73431466Y-70466193D01*
X73348208Y-70410563D01*
X73250000Y-70391028D01*
X73151792Y-70410563D01*
X73068534Y-70466193D01*
X73012904Y-70549451D01*
X72993369Y-70647659D01*
X73012904Y-70745867D01*
X73068534Y-70829125D01*
X73072392Y-70831703D01*
X73098703Y-70883343D01*
X73089132Y-70943775D01*
X73073604Y-70965147D01*
X73068534Y-70968534D01*
X73012904Y-71051792D01*
X72993369Y-71150000D01*
X71006631Y-71150000D01*
X70987096Y-71051792D01*
X70931967Y-70969284D01*
X70931765Y-70968567D01*
X70930716Y-70968033D01*
X70923040Y-70962904D01*
X70848208Y-70912904D01*
X70750000Y-70893369D01*
X70651792Y-70912904D01*
X70576960Y-70962904D01*
X70569284Y-70968033D01*
X70568567Y-70968235D01*
X70568033Y-70969283D01*
X70512904Y-71051792D01*
X70493369Y-71150000D01*
X70512904Y-71248208D01*
X70518321Y-71256315D01*
X70568033Y-71330716D01*
X70584641Y-71389605D01*
X70563463Y-71447008D01*
X70512589Y-71481000D01*
X70451451Y-71478598D01*
X70430716Y-71468033D01*
X70430164Y-71467664D01*
X70348208Y-71412904D01*
X70250000Y-71393369D01*
X70151792Y-71412904D01*
X70068534Y-71468534D01*
X70012904Y-71551792D01*
X69993369Y-71650000D01*
X69504291Y-71650000D01*
X69484756Y-71551792D01*
X69429126Y-71468534D01*
X69426138Y-71466538D01*
X69400127Y-71415486D01*
X69409698Y-71355054D01*
X69425773Y-71332928D01*
X69431465Y-71329125D01*
X69487095Y-71245867D01*
X69506630Y-71147659D01*
X69487095Y-71049451D01*
X69431465Y-70966193D01*
X69348207Y-70910563D01*
X69249999Y-70891028D01*
X69151791Y-70910563D01*
X69068533Y-70966193D01*
X69012903Y-71049451D01*
X68993368Y-71147659D01*
X69012903Y-71245867D01*
X69068533Y-71329125D01*
X69071521Y-71331121D01*
X69097532Y-71382173D01*
X69087961Y-71442605D01*
X69071886Y-71464731D01*
X69066194Y-71468534D01*
X69010564Y-71551792D01*
X68991029Y-71650000D01*
X69010564Y-71748208D01*
X69066194Y-71831466D01*
X69070051Y-71834043D01*
X69096362Y-71885683D01*
X69086791Y-71946115D01*
X69072361Y-71965977D01*
X69068534Y-71968534D01*
X69012904Y-72051792D01*
X68993369Y-72150000D01*
X69012904Y-72248208D01*
X69068534Y-72331466D01*
X69071521Y-72333462D01*
X69097532Y-72384513D01*
X69087961Y-72444945D01*
X69072982Y-72465562D01*
X69068534Y-72468534D01*
X69012904Y-72551792D01*
X68993369Y-72650000D01*
X69012904Y-72748208D01*
X69068534Y-72831466D01*
X69071521Y-72833462D01*
X69097532Y-72884513D01*
X69087961Y-72944945D01*
X69072982Y-72965562D01*
X69068534Y-72968534D01*
X69012904Y-73051792D01*
X68993369Y-73150000D01*
X69012904Y-73248208D01*
X69018321Y-73256315D01*
X69068033Y-73330716D01*
X69084641Y-73389605D01*
X69063463Y-73447008D01*
X69012589Y-73481000D01*
X68951451Y-73478598D01*
X68930716Y-73468033D01*
X68920193Y-73461002D01*
X68848208Y-73412904D01*
X68750000Y-73393369D01*
X68651792Y-73412904D01*
X68568534Y-73468534D01*
X68512904Y-73551792D01*
X68493369Y-73650000D01*
X68512904Y-73748208D01*
X68568534Y-73831466D01*
X68571521Y-73833462D01*
X68597532Y-73884513D01*
X68587961Y-73944945D01*
X68572436Y-73966314D01*
X68567367Y-73969701D01*
X68511737Y-74052959D01*
X68492202Y-74151167D01*
X39825000Y-74151167D01*
X39825000Y-73193823D01*
X62244391Y-73193823D01*
X62245306Y-73200820D01*
X62245306Y-73200821D01*
X62258041Y-73298208D01*
X62262980Y-73335979D01*
X62265821Y-73342435D01*
X62265821Y-73342436D01*
X62311070Y-73445271D01*
X62320720Y-73467203D01*
X62344040Y-73494945D01*
X62408431Y-73571549D01*
X62408434Y-73571551D01*
X62412970Y-73576948D01*
X62418841Y-73580856D01*
X62418842Y-73580857D01*
X62431143Y-73589045D01*
X62532313Y-73656390D01*
X62618564Y-73683336D01*
X62662425Y-73697039D01*
X62662426Y-73697039D01*
X62669157Y-73699142D01*
X62740828Y-73700456D01*
X62805445Y-73701641D01*
X62805447Y-73701641D01*
X62812499Y-73701770D01*
X62819302Y-73699915D01*
X62819304Y-73699915D01*
X62931175Y-73669415D01*
X62950817Y-73664060D01*
X63072991Y-73589045D01*
X63080403Y-73580857D01*
X63164468Y-73487982D01*
X63169200Y-73482754D01*
X63222202Y-73373357D01*
X63228634Y-73360082D01*
X63231710Y-73353733D01*
X63234546Y-73336881D01*
X63254862Y-73216124D01*
X63254862Y-73216120D01*
X63255496Y-73212354D01*
X63255647Y-73200000D01*
X63254762Y-73193823D01*
X65244391Y-73193823D01*
X65245306Y-73200820D01*
X65245306Y-73200821D01*
X65258041Y-73298208D01*
X65262980Y-73335979D01*
X65265821Y-73342435D01*
X65265821Y-73342436D01*
X65311070Y-73445271D01*
X65320720Y-73467203D01*
X65344040Y-73494945D01*
X65408431Y-73571549D01*
X65408434Y-73571551D01*
X65412970Y-73576948D01*
X65418841Y-73580856D01*
X65418842Y-73580857D01*
X65431143Y-73589045D01*
X65532313Y-73656390D01*
X65618564Y-73683336D01*
X65662425Y-73697039D01*
X65662426Y-73697039D01*
X65669157Y-73699142D01*
X65740828Y-73700456D01*
X65805445Y-73701641D01*
X65805447Y-73701641D01*
X65812499Y-73701770D01*
X65819302Y-73699915D01*
X65819304Y-73699915D01*
X65931175Y-73669415D01*
X65950817Y-73664060D01*
X66072991Y-73589045D01*
X66080403Y-73580857D01*
X66164468Y-73487982D01*
X66169200Y-73482754D01*
X66222202Y-73373357D01*
X66228634Y-73360082D01*
X66231710Y-73353733D01*
X66234546Y-73336881D01*
X66254862Y-73216124D01*
X66254862Y-73216120D01*
X66255496Y-73212354D01*
X66255647Y-73200000D01*
X66235323Y-73058082D01*
X66208915Y-73000000D01*
X67793369Y-73000000D01*
X67812904Y-73098208D01*
X67868534Y-73181466D01*
X67951792Y-73237096D01*
X68050000Y-73256631D01*
X68148208Y-73237096D01*
X68231466Y-73181466D01*
X68287096Y-73098208D01*
X68306631Y-73000000D01*
X68287096Y-72901792D01*
X68231466Y-72818534D01*
X68148208Y-72762904D01*
X68050000Y-72743369D01*
X67951792Y-72762904D01*
X67868534Y-72818534D01*
X67812904Y-72901792D01*
X67793369Y-73000000D01*
X66208915Y-73000000D01*
X66207793Y-72997532D01*
X66178905Y-72933996D01*
X66178904Y-72933995D01*
X66175984Y-72927572D01*
X66103702Y-72843685D01*
X66087005Y-72824307D01*
X66087004Y-72824306D01*
X66082400Y-72818963D01*
X65962095Y-72740985D01*
X65824739Y-72699907D01*
X65741497Y-72699398D01*
X65688427Y-72699074D01*
X65688426Y-72699074D01*
X65681376Y-72699031D01*
X65674599Y-72700968D01*
X65674598Y-72700968D01*
X65550309Y-72736490D01*
X65550307Y-72736491D01*
X65543529Y-72738428D01*
X65422280Y-72814930D01*
X65417613Y-72820214D01*
X65417611Y-72820216D01*
X65332044Y-72917103D01*
X65332042Y-72917105D01*
X65327377Y-72922388D01*
X65324381Y-72928770D01*
X65324380Y-72928771D01*
X65318902Y-72940438D01*
X65266447Y-73052163D01*
X65265362Y-73059132D01*
X65265361Y-73059135D01*
X65257231Y-73111354D01*
X65244391Y-73193823D01*
X63254762Y-73193823D01*
X63235323Y-73058082D01*
X63207793Y-72997532D01*
X63178905Y-72933996D01*
X63178904Y-72933995D01*
X63175984Y-72927572D01*
X63103702Y-72843685D01*
X63087005Y-72824307D01*
X63087004Y-72824306D01*
X63082400Y-72818963D01*
X62962095Y-72740985D01*
X62955337Y-72738964D01*
X62955335Y-72738963D01*
X62925886Y-72730156D01*
X62875552Y-72695368D01*
X62855279Y-72637639D01*
X62872811Y-72579019D01*
X62899251Y-72552991D01*
X62923356Y-72536885D01*
X62923357Y-72536884D01*
X62931466Y-72531466D01*
X62987096Y-72448208D01*
X63006631Y-72350000D01*
X63993369Y-72350000D01*
X64012904Y-72448208D01*
X64068534Y-72531466D01*
X64151792Y-72587096D01*
X64250000Y-72606631D01*
X64348208Y-72587096D01*
X64431466Y-72531466D01*
X64487096Y-72448208D01*
X64506631Y-72350000D01*
X64487096Y-72251792D01*
X64431466Y-72168534D01*
X64348208Y-72112904D01*
X64250000Y-72093369D01*
X64151792Y-72112904D01*
X64068534Y-72168534D01*
X64012904Y-72251792D01*
X63993369Y-72350000D01*
X63006631Y-72350000D01*
X62987096Y-72251792D01*
X62931466Y-72168534D01*
X62848208Y-72112904D01*
X62750000Y-72093369D01*
X62651792Y-72112904D01*
X62568534Y-72168534D01*
X62512904Y-72251792D01*
X62493369Y-72350000D01*
X62512904Y-72448208D01*
X62568534Y-72531466D01*
X62576643Y-72536884D01*
X62576644Y-72536885D01*
X62600249Y-72552657D01*
X62638129Y-72600707D01*
X62640531Y-72661845D01*
X62606539Y-72712719D01*
X62572451Y-72730162D01*
X62550312Y-72736489D01*
X62550310Y-72736490D01*
X62543529Y-72738428D01*
X62422280Y-72814930D01*
X62417613Y-72820214D01*
X62417611Y-72820216D01*
X62332044Y-72917103D01*
X62332042Y-72917105D01*
X62327377Y-72922388D01*
X62324381Y-72928770D01*
X62324380Y-72928771D01*
X62318902Y-72940438D01*
X62266447Y-73052163D01*
X62265362Y-73059132D01*
X62265361Y-73059135D01*
X62257231Y-73111354D01*
X62244391Y-73193823D01*
X39825000Y-73193823D01*
X39825000Y-72000000D01*
X64693369Y-72000000D01*
X64712904Y-72098208D01*
X64768534Y-72181466D01*
X64851792Y-72237096D01*
X64950000Y-72256631D01*
X65048208Y-72237096D01*
X65131466Y-72181466D01*
X65187096Y-72098208D01*
X65206631Y-72000000D01*
X65187096Y-71901792D01*
X65131466Y-71818534D01*
X65048208Y-71762904D01*
X64950000Y-71743369D01*
X64851792Y-71762904D01*
X64768534Y-71818534D01*
X64712904Y-71901792D01*
X64693369Y-72000000D01*
X39825000Y-72000000D01*
X39825000Y-71300000D01*
X67793369Y-71300000D01*
X67812904Y-71398208D01*
X67868534Y-71481466D01*
X67951792Y-71537096D01*
X68050000Y-71556631D01*
X68148208Y-71537096D01*
X68231466Y-71481466D01*
X68287096Y-71398208D01*
X68306631Y-71300000D01*
X68287096Y-71201792D01*
X68231466Y-71118534D01*
X68148208Y-71062904D01*
X68050000Y-71043369D01*
X67951792Y-71062904D01*
X67868534Y-71118534D01*
X67812904Y-71201792D01*
X67793369Y-71300000D01*
X39825000Y-71300000D01*
X39825000Y-70900000D01*
X65843369Y-70900000D01*
X65862904Y-70998208D01*
X65918534Y-71081466D01*
X66001792Y-71137096D01*
X66100000Y-71156631D01*
X66198208Y-71137096D01*
X66281466Y-71081466D01*
X66337096Y-70998208D01*
X66356631Y-70900000D01*
X66337096Y-70801792D01*
X66281466Y-70718534D01*
X66198208Y-70662904D01*
X66124327Y-70648208D01*
X66109562Y-70645271D01*
X66100000Y-70643369D01*
X66090438Y-70645271D01*
X66075673Y-70648208D01*
X66001792Y-70662904D01*
X65918534Y-70718534D01*
X65862904Y-70801792D01*
X65843369Y-70900000D01*
X39825000Y-70900000D01*
X39825000Y-70550000D01*
X64343369Y-70550000D01*
X64362904Y-70648208D01*
X64418534Y-70731466D01*
X64501792Y-70787096D01*
X64600000Y-70806631D01*
X64698208Y-70787096D01*
X64781466Y-70731466D01*
X64837096Y-70648208D01*
X64856631Y-70550000D01*
X67793369Y-70550000D01*
X67812904Y-70648208D01*
X67868534Y-70731466D01*
X67951792Y-70787096D01*
X68050000Y-70806631D01*
X68148208Y-70787096D01*
X68231466Y-70731466D01*
X68285899Y-70650000D01*
X69993369Y-70650000D01*
X70012904Y-70748208D01*
X70068534Y-70831466D01*
X70151792Y-70887096D01*
X70250000Y-70906631D01*
X70348208Y-70887096D01*
X70430716Y-70831967D01*
X70431433Y-70831765D01*
X70431967Y-70830716D01*
X70456710Y-70793685D01*
X70487096Y-70748208D01*
X70506631Y-70650000D01*
X70993369Y-70650000D01*
X71012904Y-70748208D01*
X71043290Y-70793685D01*
X71068033Y-70830716D01*
X71068235Y-70831433D01*
X71069283Y-70831967D01*
X71151792Y-70887096D01*
X71250000Y-70906631D01*
X71348208Y-70887096D01*
X71431466Y-70831466D01*
X71487096Y-70748208D01*
X71506631Y-70650000D01*
X71487096Y-70551792D01*
X71431466Y-70468534D01*
X71348208Y-70412904D01*
X71250000Y-70393369D01*
X71151792Y-70412904D01*
X71068534Y-70468534D01*
X71012904Y-70551792D01*
X70993369Y-70650000D01*
X70506631Y-70650000D01*
X70487096Y-70551792D01*
X70431466Y-70468534D01*
X70348208Y-70412904D01*
X70250000Y-70393369D01*
X70151792Y-70412904D01*
X70068534Y-70468534D01*
X70012904Y-70551792D01*
X69993369Y-70650000D01*
X68285899Y-70650000D01*
X68287096Y-70648208D01*
X68306631Y-70550000D01*
X68287096Y-70451792D01*
X68231466Y-70368534D01*
X68148208Y-70312904D01*
X68050000Y-70293369D01*
X67951792Y-70312904D01*
X67868534Y-70368534D01*
X67812904Y-70451792D01*
X67793369Y-70550000D01*
X64856631Y-70550000D01*
X64837096Y-70451792D01*
X64781466Y-70368534D01*
X64698208Y-70312904D01*
X64600000Y-70293369D01*
X64501792Y-70312904D01*
X64418534Y-70368534D01*
X64362904Y-70451792D01*
X64343369Y-70550000D01*
X39825000Y-70550000D01*
X39825000Y-69950000D01*
X69643369Y-69950000D01*
X69662904Y-70048208D01*
X69718534Y-70131466D01*
X69801792Y-70187096D01*
X69900000Y-70206631D01*
X69933336Y-70200000D01*
X78743369Y-70200000D01*
X78762904Y-70298208D01*
X78818534Y-70381466D01*
X78839195Y-70395271D01*
X78885320Y-70426090D01*
X78902312Y-70447644D01*
X78915793Y-70442670D01*
X78938993Y-70444496D01*
X79000000Y-70456631D01*
X79098208Y-70437096D01*
X79181466Y-70381466D01*
X79237096Y-70298208D01*
X79256631Y-70200000D01*
X82243369Y-70200000D01*
X82262904Y-70298208D01*
X82318534Y-70381466D01*
X82401792Y-70437096D01*
X82500000Y-70456631D01*
X82598208Y-70437096D01*
X82681466Y-70381466D01*
X82737096Y-70298208D01*
X82756631Y-70200000D01*
X82737096Y-70101792D01*
X82681466Y-70018534D01*
X82598208Y-69962904D01*
X82500000Y-69943369D01*
X82401792Y-69962904D01*
X82318534Y-70018534D01*
X82262904Y-70101792D01*
X82243369Y-70200000D01*
X79256631Y-70200000D01*
X79237096Y-70101792D01*
X79181466Y-70018534D01*
X79098208Y-69962904D01*
X79000000Y-69943369D01*
X78901792Y-69962904D01*
X78818534Y-70018534D01*
X78762904Y-70101792D01*
X78743369Y-70200000D01*
X69933336Y-70200000D01*
X69998208Y-70187096D01*
X70081466Y-70131466D01*
X70137096Y-70048208D01*
X70156631Y-69950000D01*
X70137096Y-69851792D01*
X70081466Y-69768534D01*
X69998208Y-69712904D01*
X69900000Y-69693369D01*
X69801792Y-69712904D01*
X69718534Y-69768534D01*
X69662904Y-69851792D01*
X69643369Y-69950000D01*
X39825000Y-69950000D01*
X39825000Y-69550000D01*
X84743369Y-69550000D01*
X84762904Y-69648208D01*
X84818534Y-69731466D01*
X84901792Y-69787096D01*
X85000000Y-69806631D01*
X85098208Y-69787096D01*
X85181466Y-69731466D01*
X85237096Y-69648208D01*
X85256631Y-69550000D01*
X85237096Y-69451792D01*
X85181466Y-69368534D01*
X85098208Y-69312904D01*
X85000000Y-69293369D01*
X84901792Y-69312904D01*
X84818534Y-69368534D01*
X84762904Y-69451792D01*
X84743369Y-69550000D01*
X39825000Y-69550000D01*
X39825000Y-67793823D01*
X48794391Y-67793823D01*
X48795306Y-67800820D01*
X48795306Y-67800821D01*
X48801968Y-67851770D01*
X48812980Y-67935979D01*
X48815821Y-67942435D01*
X48815821Y-67942436D01*
X48823586Y-67960082D01*
X48870720Y-68067203D01*
X48883792Y-68082754D01*
X48958431Y-68171549D01*
X48958434Y-68171551D01*
X48962970Y-68176948D01*
X48968841Y-68180856D01*
X48968842Y-68180857D01*
X48981143Y-68189045D01*
X49082313Y-68256390D01*
X49182920Y-68287821D01*
X49212425Y-68297039D01*
X49212426Y-68297039D01*
X49219157Y-68299142D01*
X49290828Y-68300456D01*
X49355445Y-68301641D01*
X49355447Y-68301641D01*
X49362499Y-68301770D01*
X49369302Y-68299915D01*
X49369304Y-68299915D01*
X49444503Y-68279413D01*
X49500817Y-68264060D01*
X49622991Y-68189045D01*
X49630403Y-68180857D01*
X49714468Y-68087982D01*
X49719200Y-68082754D01*
X49781710Y-67953733D01*
X49785875Y-67928982D01*
X49804862Y-67816124D01*
X49804862Y-67816120D01*
X49805496Y-67812354D01*
X49805647Y-67800000D01*
X49785323Y-67658082D01*
X49725984Y-67527572D01*
X49632400Y-67418963D01*
X49516473Y-67343823D01*
X66394391Y-67343823D01*
X66395306Y-67350820D01*
X66395306Y-67350821D01*
X66408041Y-67448208D01*
X66412980Y-67485979D01*
X66415821Y-67492435D01*
X66415821Y-67492436D01*
X66457473Y-67587096D01*
X66470720Y-67617203D01*
X66510953Y-67665066D01*
X66558431Y-67721549D01*
X66558434Y-67721551D01*
X66562970Y-67726948D01*
X66568841Y-67730856D01*
X66568842Y-67730857D01*
X66581143Y-67739045D01*
X66682313Y-67806390D01*
X66782920Y-67837821D01*
X66812425Y-67847039D01*
X66812426Y-67847039D01*
X66819157Y-67849142D01*
X66890828Y-67850456D01*
X66955445Y-67851641D01*
X66955447Y-67851641D01*
X66962499Y-67851770D01*
X66969302Y-67849915D01*
X66969304Y-67849915D01*
X67093246Y-67816124D01*
X67100817Y-67814060D01*
X67222991Y-67739045D01*
X67230403Y-67730857D01*
X67314468Y-67637982D01*
X67319200Y-67632754D01*
X67381710Y-67503733D01*
X67385875Y-67478982D01*
X67404862Y-67366124D01*
X67404862Y-67366120D01*
X67405496Y-67362354D01*
X67405647Y-67350000D01*
X85493369Y-67350000D01*
X85512904Y-67448208D01*
X85568534Y-67531466D01*
X85651792Y-67587096D01*
X85750000Y-67606631D01*
X85848208Y-67587096D01*
X85931466Y-67531466D01*
X85987096Y-67448208D01*
X86006631Y-67350000D01*
X85987096Y-67251792D01*
X85931466Y-67168534D01*
X85848208Y-67112904D01*
X85750000Y-67093369D01*
X85651792Y-67112904D01*
X85568534Y-67168534D01*
X85512904Y-67251792D01*
X85493369Y-67350000D01*
X67405647Y-67350000D01*
X67385323Y-67208082D01*
X67344511Y-67118321D01*
X67328905Y-67083996D01*
X67328904Y-67083995D01*
X67325984Y-67077572D01*
X67232400Y-66968963D01*
X67112095Y-66890985D01*
X66974739Y-66849907D01*
X66891497Y-66849398D01*
X66838427Y-66849074D01*
X66838426Y-66849074D01*
X66831376Y-66849031D01*
X66824599Y-66850968D01*
X66824598Y-66850968D01*
X66700309Y-66886490D01*
X66700307Y-66886491D01*
X66693529Y-66888428D01*
X66572280Y-66964930D01*
X66567613Y-66970214D01*
X66567611Y-66970216D01*
X66482044Y-67067103D01*
X66482042Y-67067105D01*
X66477377Y-67072388D01*
X66416447Y-67202163D01*
X66394391Y-67343823D01*
X49516473Y-67343823D01*
X49512095Y-67340985D01*
X49374739Y-67299907D01*
X49291497Y-67299398D01*
X49238427Y-67299074D01*
X49238426Y-67299074D01*
X49231376Y-67299031D01*
X49224599Y-67300968D01*
X49224598Y-67300968D01*
X49100309Y-67336490D01*
X49100307Y-67336491D01*
X49093529Y-67338428D01*
X48972280Y-67414930D01*
X48967613Y-67420214D01*
X48967611Y-67420216D01*
X48882044Y-67517103D01*
X48882042Y-67517105D01*
X48877377Y-67522388D01*
X48816447Y-67652163D01*
X48815362Y-67659132D01*
X48815361Y-67659135D01*
X48803734Y-67733814D01*
X48794391Y-67793823D01*
X39825000Y-67793823D01*
X39825000Y-66650000D01*
X64343369Y-66650000D01*
X64362904Y-66748208D01*
X64418534Y-66831466D01*
X64501792Y-66887096D01*
X64600000Y-66906631D01*
X64698208Y-66887096D01*
X64781466Y-66831466D01*
X64837096Y-66748208D01*
X64856631Y-66650000D01*
X70194864Y-66650000D01*
X70213266Y-66754363D01*
X70266252Y-66846138D01*
X70347432Y-66914256D01*
X70355570Y-66917218D01*
X70355572Y-66917219D01*
X70392446Y-66930639D01*
X70447014Y-66950500D01*
X70552986Y-66950500D01*
X70607554Y-66930639D01*
X70644428Y-66917219D01*
X70644430Y-66917218D01*
X70652568Y-66914256D01*
X70733748Y-66846138D01*
X70786734Y-66754363D01*
X70805136Y-66650000D01*
X70786734Y-66545637D01*
X70733748Y-66453862D01*
X70656508Y-66389050D01*
X70624085Y-66337162D01*
X70628353Y-66276126D01*
X70667682Y-66229255D01*
X70686282Y-66220184D01*
X70702568Y-66214256D01*
X70783748Y-66146138D01*
X70836734Y-66054363D01*
X70855136Y-65950000D01*
X70836734Y-65845637D01*
X70803831Y-65788646D01*
X70788077Y-65761360D01*
X70783748Y-65753862D01*
X70706508Y-65689050D01*
X70674085Y-65637162D01*
X70678353Y-65576126D01*
X70717682Y-65529255D01*
X70736282Y-65520184D01*
X70752568Y-65514256D01*
X70833748Y-65446138D01*
X70886734Y-65354363D01*
X70905136Y-65250000D01*
X70886734Y-65145637D01*
X70833748Y-65053862D01*
X70752568Y-64985744D01*
X70744430Y-64982782D01*
X70744428Y-64982781D01*
X70707554Y-64969361D01*
X70652986Y-64949500D01*
X70547014Y-64949500D01*
X70492446Y-64969361D01*
X70455572Y-64982781D01*
X70455570Y-64982782D01*
X70447432Y-64985744D01*
X70366252Y-65053862D01*
X70313266Y-65145637D01*
X70294864Y-65250000D01*
X70313266Y-65354363D01*
X70366252Y-65446138D01*
X70392689Y-65468321D01*
X70443492Y-65510950D01*
X70475915Y-65562838D01*
X70471647Y-65623874D01*
X70432318Y-65670745D01*
X70413718Y-65679816D01*
X70397432Y-65685744D01*
X70316252Y-65753862D01*
X70311923Y-65761360D01*
X70296170Y-65788646D01*
X70263266Y-65845637D01*
X70244864Y-65950000D01*
X70263266Y-66054363D01*
X70316252Y-66146138D01*
X70388152Y-66206469D01*
X70393492Y-66210950D01*
X70425915Y-66262838D01*
X70421647Y-66323874D01*
X70382318Y-66370745D01*
X70363718Y-66379816D01*
X70347432Y-66385744D01*
X70266252Y-66453862D01*
X70213266Y-66545637D01*
X70194864Y-66650000D01*
X64856631Y-66650000D01*
X64837096Y-66551792D01*
X64781466Y-66468534D01*
X64698208Y-66412904D01*
X64600000Y-66393369D01*
X64501792Y-66412904D01*
X64418534Y-66468534D01*
X64362904Y-66551792D01*
X64343369Y-66650000D01*
X39825000Y-66650000D01*
X39825000Y-65700000D01*
X68493369Y-65700000D01*
X68512904Y-65798208D01*
X68568534Y-65881466D01*
X68651792Y-65937096D01*
X68750000Y-65956631D01*
X68848208Y-65937096D01*
X68931466Y-65881466D01*
X68987096Y-65798208D01*
X69006631Y-65700000D01*
X68987096Y-65601792D01*
X68931466Y-65518534D01*
X68848208Y-65462904D01*
X68750000Y-65443369D01*
X68651792Y-65462904D01*
X68568534Y-65518534D01*
X68512904Y-65601792D01*
X68493369Y-65700000D01*
X39825000Y-65700000D01*
X39825000Y-64550000D01*
X75493369Y-64550000D01*
X75512904Y-64648208D01*
X75568534Y-64731466D01*
X75651792Y-64787096D01*
X75750000Y-64806631D01*
X75848208Y-64787096D01*
X75931466Y-64731466D01*
X75952490Y-64700000D01*
X87443369Y-64700000D01*
X87462904Y-64798208D01*
X87518534Y-64881466D01*
X87601792Y-64937096D01*
X87700000Y-64956631D01*
X87798208Y-64937096D01*
X87881466Y-64881466D01*
X87937096Y-64798208D01*
X87956631Y-64700000D01*
X87937096Y-64601792D01*
X87881466Y-64518534D01*
X87798208Y-64462904D01*
X87700000Y-64443369D01*
X87601792Y-64462904D01*
X87518534Y-64518534D01*
X87462904Y-64601792D01*
X87443369Y-64700000D01*
X75952490Y-64700000D01*
X75987096Y-64648208D01*
X76006631Y-64550000D01*
X75987096Y-64451792D01*
X75931466Y-64368534D01*
X75848208Y-64312904D01*
X75750000Y-64293369D01*
X75651792Y-64312904D01*
X75568534Y-64368534D01*
X75512904Y-64451792D01*
X75493369Y-64550000D01*
X39825000Y-64550000D01*
X39825000Y-60905251D01*
X62820270Y-60905251D01*
X62828833Y-61109562D01*
X62834319Y-61240438D01*
X62835254Y-61262757D01*
X62835675Y-61265479D01*
X62835676Y-61265485D01*
X62865994Y-61461324D01*
X62889996Y-61616366D01*
X62932650Y-61773357D01*
X62972094Y-61918534D01*
X62983813Y-61961668D01*
X62984831Y-61964240D01*
X62984833Y-61964245D01*
X63072982Y-62186884D01*
X63115535Y-62294362D01*
X63116824Y-62296787D01*
X63116829Y-62296797D01*
X63282226Y-62607861D01*
X63283522Y-62610298D01*
X63285084Y-62612579D01*
X63484110Y-62903252D01*
X63484116Y-62903260D01*
X63485678Y-62905541D01*
X63719486Y-63176409D01*
X63982029Y-63419527D01*
X64270037Y-63631865D01*
X64579919Y-63810775D01*
X64709739Y-63867492D01*
X64905289Y-63952926D01*
X64905293Y-63952928D01*
X64907812Y-63954028D01*
X64910438Y-63954841D01*
X64910441Y-63954842D01*
X65047200Y-63997176D01*
X65249630Y-64059839D01*
X65601113Y-64126887D01*
X65603869Y-64127099D01*
X65603876Y-64127100D01*
X65945143Y-64153359D01*
X65957879Y-64154339D01*
X65960631Y-64154243D01*
X65960636Y-64154243D01*
X66195584Y-64146038D01*
X66315481Y-64141851D01*
X66669463Y-64089580D01*
X66842438Y-64043878D01*
X67012733Y-63998884D01*
X67012736Y-63998883D01*
X67015412Y-63998176D01*
X67017986Y-63997178D01*
X67017991Y-63997176D01*
X67160003Y-63942093D01*
X67349017Y-63868779D01*
X67666119Y-63703003D01*
X67962766Y-63502912D01*
X68031026Y-63444818D01*
X68233156Y-63272792D01*
X68233159Y-63272789D01*
X68235260Y-63271001D01*
X68480205Y-63010161D01*
X68555841Y-62909057D01*
X68692888Y-62725863D01*
X68692894Y-62725854D01*
X68694548Y-62723643D01*
X68695944Y-62721263D01*
X68695949Y-62721256D01*
X68874218Y-62417402D01*
X68875617Y-62415018D01*
X69021156Y-62088133D01*
X69048545Y-62001792D01*
X69049113Y-62000000D01*
X74443369Y-62000000D01*
X74462904Y-62098208D01*
X74518534Y-62181466D01*
X74601792Y-62237096D01*
X74700000Y-62256631D01*
X74798208Y-62237096D01*
X74881466Y-62181466D01*
X74935899Y-62100000D01*
X81043369Y-62100000D01*
X81062904Y-62198208D01*
X81118534Y-62281466D01*
X81201792Y-62337096D01*
X81300000Y-62356631D01*
X81398208Y-62337096D01*
X81481466Y-62281466D01*
X81537096Y-62198208D01*
X81556631Y-62100000D01*
X81554271Y-62088133D01*
X81538998Y-62011354D01*
X81537096Y-62001792D01*
X81481466Y-61918534D01*
X81398208Y-61862904D01*
X81300000Y-61843369D01*
X81201792Y-61862904D01*
X81118534Y-61918534D01*
X81062904Y-62001792D01*
X81061002Y-62011354D01*
X81045730Y-62088133D01*
X81043369Y-62100000D01*
X74935899Y-62100000D01*
X74937096Y-62098208D01*
X74956631Y-62000000D01*
X74937096Y-61901792D01*
X74881466Y-61818534D01*
X74798208Y-61762904D01*
X74700000Y-61743369D01*
X74601792Y-61762904D01*
X74518534Y-61818534D01*
X74462904Y-61901792D01*
X74443369Y-62000000D01*
X69049113Y-62000000D01*
X69128517Y-61749689D01*
X69128518Y-61749684D01*
X69129350Y-61747062D01*
X69154700Y-61619036D01*
X69158469Y-61600000D01*
X83043369Y-61600000D01*
X83062904Y-61698208D01*
X83118534Y-61781466D01*
X83201792Y-61837096D01*
X83300000Y-61856631D01*
X83398208Y-61837096D01*
X83481466Y-61781466D01*
X83537096Y-61698208D01*
X83556631Y-61600000D01*
X83537096Y-61501792D01*
X83481466Y-61418534D01*
X83398208Y-61362904D01*
X83300000Y-61343369D01*
X83201792Y-61362904D01*
X83118534Y-61418534D01*
X83062904Y-61501792D01*
X83043369Y-61600000D01*
X69158469Y-61600000D01*
X69198315Y-61398765D01*
X69198316Y-61398758D01*
X69198851Y-61396056D01*
X69211115Y-61250000D01*
X74243369Y-61250000D01*
X74262904Y-61348208D01*
X74318534Y-61431466D01*
X74401792Y-61487096D01*
X74500000Y-61506631D01*
X74598208Y-61487096D01*
X74681466Y-61431466D01*
X74737096Y-61348208D01*
X74756631Y-61250000D01*
X74737096Y-61151792D01*
X74702490Y-61100000D01*
X82143369Y-61100000D01*
X82162904Y-61198208D01*
X82218534Y-61281466D01*
X82301792Y-61337096D01*
X82400000Y-61356631D01*
X82498208Y-61337096D01*
X82581466Y-61281466D01*
X82637096Y-61198208D01*
X82656631Y-61100000D01*
X82637096Y-61001792D01*
X82581466Y-60918534D01*
X82498208Y-60862904D01*
X82400000Y-60843369D01*
X82301792Y-60862904D01*
X82218534Y-60918534D01*
X82162904Y-61001792D01*
X82143369Y-61100000D01*
X74702490Y-61100000D01*
X74681466Y-61068534D01*
X74598208Y-61012904D01*
X74500000Y-60993369D01*
X74401792Y-61012904D01*
X74318534Y-61068534D01*
X74262904Y-61151792D01*
X74243369Y-61250000D01*
X69211115Y-61250000D01*
X69228792Y-61039490D01*
X69230042Y-60950000D01*
X69210068Y-60592737D01*
X69150395Y-60239928D01*
X69051766Y-59895969D01*
X68929776Y-59600000D01*
X86843369Y-59600000D01*
X86862904Y-59698208D01*
X86918534Y-59781466D01*
X87001792Y-59837096D01*
X87100000Y-59856631D01*
X87198208Y-59837096D01*
X87281466Y-59781466D01*
X87337096Y-59698208D01*
X87356631Y-59600000D01*
X87337096Y-59501792D01*
X87281466Y-59418534D01*
X87198208Y-59362904D01*
X87100000Y-59343369D01*
X87001792Y-59362904D01*
X86918534Y-59418534D01*
X86862904Y-59501792D01*
X86843369Y-59600000D01*
X68929776Y-59600000D01*
X68915411Y-59565147D01*
X68743030Y-59251587D01*
X68741436Y-59249327D01*
X68538359Y-58961447D01*
X68538355Y-58961443D01*
X68536770Y-58959195D01*
X68299204Y-58691618D01*
X68297155Y-58689773D01*
X68297151Y-58689769D01*
X68252983Y-58650000D01*
X74843369Y-58650000D01*
X74862904Y-58748208D01*
X74918534Y-58831466D01*
X75001792Y-58887096D01*
X75100000Y-58906631D01*
X75198208Y-58887096D01*
X75281466Y-58831466D01*
X75337096Y-58748208D01*
X75356631Y-58650000D01*
X75337096Y-58551792D01*
X75281466Y-58468534D01*
X75198208Y-58412904D01*
X75100000Y-58393369D01*
X75001792Y-58412904D01*
X74918534Y-58468534D01*
X74862904Y-58551792D01*
X74843369Y-58650000D01*
X68252983Y-58650000D01*
X68035355Y-58454046D01*
X68035349Y-58454042D01*
X68033292Y-58452189D01*
X67901118Y-58357562D01*
X67744602Y-58245508D01*
X67744597Y-58245505D01*
X67742347Y-58243894D01*
X67429998Y-58069327D01*
X67427450Y-58068256D01*
X67427442Y-58068252D01*
X67225941Y-57983550D01*
X67100136Y-57930666D01*
X67097494Y-57929888D01*
X67097490Y-57929887D01*
X66961230Y-57889784D01*
X66756874Y-57829639D01*
X66509267Y-57785979D01*
X66407208Y-57767983D01*
X66407203Y-57767982D01*
X66404490Y-57767504D01*
X66047375Y-57745036D01*
X66044614Y-57745171D01*
X66044610Y-57745171D01*
X65692741Y-57762381D01*
X65692740Y-57762381D01*
X65689982Y-57762516D01*
X65687261Y-57762957D01*
X65687258Y-57762957D01*
X65478457Y-57796775D01*
X65336764Y-57819724D01*
X64992125Y-57915949D01*
X64832109Y-57980600D01*
X64662920Y-58048956D01*
X64662916Y-58048958D01*
X64660359Y-58049991D01*
X64657935Y-58051302D01*
X64657930Y-58051304D01*
X64348032Y-58218865D01*
X64348023Y-58218870D01*
X64345603Y-58220179D01*
X64051779Y-58424392D01*
X64049695Y-58426217D01*
X64049693Y-58426218D01*
X63906252Y-58551792D01*
X63782550Y-58660085D01*
X63780689Y-58662123D01*
X63780688Y-58662124D01*
X63755445Y-58689769D01*
X63541270Y-58924320D01*
X63330949Y-59213802D01*
X63329582Y-59216209D01*
X63329581Y-59216210D01*
X63155574Y-59522517D01*
X63155571Y-59522524D01*
X63154206Y-59524926D01*
X63153117Y-59527468D01*
X63153113Y-59527475D01*
X63122029Y-59600000D01*
X63013246Y-59853811D01*
X63012450Y-59856446D01*
X63012449Y-59856450D01*
X62993488Y-59919251D01*
X62909824Y-60196360D01*
X62909327Y-60199068D01*
X62909326Y-60199072D01*
X62902315Y-60237275D01*
X62845231Y-60548302D01*
X62823291Y-60862050D01*
X62820270Y-60905251D01*
X39825000Y-60905251D01*
X39825000Y-58800000D01*
X60843369Y-58800000D01*
X60862904Y-58898208D01*
X60918534Y-58981466D01*
X61001792Y-59037096D01*
X61100000Y-59056631D01*
X61198208Y-59037096D01*
X61281466Y-58981466D01*
X61337096Y-58898208D01*
X61356631Y-58800000D01*
X61337096Y-58701792D01*
X61281466Y-58618534D01*
X61198208Y-58562904D01*
X61100000Y-58543369D01*
X61001792Y-58562904D01*
X60918534Y-58618534D01*
X60862904Y-58701792D01*
X60843369Y-58800000D01*
X39825000Y-58800000D01*
X39825000Y-57643823D01*
X79744391Y-57643823D01*
X79745306Y-57650820D01*
X79745306Y-57650821D01*
X79760541Y-57767331D01*
X79762980Y-57785979D01*
X79765821Y-57792435D01*
X79765821Y-57792436D01*
X79778155Y-57820466D01*
X79820720Y-57917203D01*
X79833792Y-57932754D01*
X79908431Y-58021549D01*
X79908434Y-58021551D01*
X79912970Y-58026948D01*
X79918841Y-58030856D01*
X79918842Y-58030857D01*
X79931143Y-58039045D01*
X80032313Y-58106390D01*
X80132920Y-58137821D01*
X80162425Y-58147039D01*
X80162426Y-58147039D01*
X80169157Y-58149142D01*
X80240828Y-58150456D01*
X80305445Y-58151641D01*
X80305447Y-58151641D01*
X80312499Y-58151770D01*
X80319302Y-58149915D01*
X80319304Y-58149915D01*
X80394503Y-58129413D01*
X80450817Y-58114060D01*
X80572991Y-58039045D01*
X80580403Y-58030857D01*
X80664468Y-57937982D01*
X80669200Y-57932754D01*
X80731710Y-57803733D01*
X80735875Y-57778982D01*
X80754862Y-57666124D01*
X80754862Y-57666120D01*
X80755496Y-57662354D01*
X80755647Y-57650000D01*
X80735323Y-57508082D01*
X80675984Y-57377572D01*
X80582400Y-57268963D01*
X80466473Y-57193823D01*
X83894391Y-57193823D01*
X83895306Y-57200820D01*
X83895306Y-57200821D01*
X83904915Y-57274307D01*
X83912980Y-57335979D01*
X83915821Y-57342435D01*
X83915821Y-57342436D01*
X83923586Y-57360082D01*
X83970720Y-57467203D01*
X84010953Y-57515066D01*
X84058431Y-57571549D01*
X84058434Y-57571551D01*
X84062970Y-57576948D01*
X84068841Y-57580856D01*
X84068842Y-57580857D01*
X84081143Y-57589045D01*
X84182313Y-57656390D01*
X84282920Y-57687821D01*
X84312425Y-57697039D01*
X84312426Y-57697039D01*
X84319157Y-57699142D01*
X84390828Y-57700456D01*
X84455445Y-57701641D01*
X84455447Y-57701641D01*
X84462499Y-57701770D01*
X84469302Y-57699915D01*
X84469304Y-57699915D01*
X84593246Y-57666124D01*
X84600817Y-57664060D01*
X84722991Y-57589045D01*
X84730403Y-57580857D01*
X84814468Y-57487982D01*
X84819200Y-57482754D01*
X84881710Y-57353733D01*
X84885875Y-57328982D01*
X84904862Y-57216124D01*
X84904862Y-57216120D01*
X84905496Y-57212354D01*
X84905647Y-57200000D01*
X84885323Y-57058082D01*
X84840897Y-56960371D01*
X84828905Y-56933996D01*
X84828904Y-56933995D01*
X84825984Y-56927572D01*
X84747842Y-56836884D01*
X84737005Y-56824307D01*
X84737004Y-56824306D01*
X84732400Y-56818963D01*
X84612095Y-56740985D01*
X84474739Y-56699907D01*
X84391497Y-56699398D01*
X84338427Y-56699074D01*
X84338426Y-56699074D01*
X84331376Y-56699031D01*
X84324599Y-56700968D01*
X84324598Y-56700968D01*
X84200309Y-56736490D01*
X84200307Y-56736491D01*
X84193529Y-56738428D01*
X84072280Y-56814930D01*
X84067613Y-56820214D01*
X84067611Y-56820216D01*
X83982044Y-56917103D01*
X83982042Y-56917105D01*
X83977377Y-56922388D01*
X83916447Y-57052163D01*
X83894391Y-57193823D01*
X80466473Y-57193823D01*
X80462095Y-57190985D01*
X80324739Y-57149907D01*
X80241497Y-57149398D01*
X80188427Y-57149074D01*
X80188426Y-57149074D01*
X80181376Y-57149031D01*
X80174599Y-57150968D01*
X80174598Y-57150968D01*
X80050309Y-57186490D01*
X80050307Y-57186491D01*
X80043529Y-57188428D01*
X79922280Y-57264930D01*
X79917613Y-57270214D01*
X79917611Y-57270216D01*
X79832044Y-57367103D01*
X79832042Y-57367105D01*
X79827377Y-57372388D01*
X79766447Y-57502163D01*
X79765362Y-57509132D01*
X79765361Y-57509135D01*
X79753734Y-57583814D01*
X79744391Y-57643823D01*
X39825000Y-57643823D01*
X39825000Y-56493823D01*
X48794391Y-56493823D01*
X48795306Y-56500820D01*
X48795306Y-56500821D01*
X48796814Y-56512354D01*
X48812980Y-56635979D01*
X48815821Y-56642435D01*
X48815821Y-56642436D01*
X48860873Y-56744823D01*
X48870720Y-56767203D01*
X48910839Y-56814930D01*
X48958431Y-56871549D01*
X48958434Y-56871551D01*
X48962970Y-56876948D01*
X48968841Y-56880856D01*
X48968842Y-56880857D01*
X48978215Y-56887096D01*
X49082313Y-56956390D01*
X49182920Y-56987821D01*
X49212425Y-56997039D01*
X49212426Y-56997039D01*
X49219157Y-56999142D01*
X49290828Y-57000456D01*
X49355445Y-57001641D01*
X49355447Y-57001641D01*
X49362499Y-57001770D01*
X49369302Y-56999915D01*
X49369304Y-56999915D01*
X49444503Y-56979413D01*
X49500817Y-56964060D01*
X49622991Y-56889045D01*
X49630403Y-56880857D01*
X49714468Y-56787982D01*
X49719200Y-56782754D01*
X49781710Y-56653733D01*
X49782338Y-56650000D01*
X60893369Y-56650000D01*
X60912904Y-56748208D01*
X60968534Y-56831466D01*
X61051792Y-56887096D01*
X61150000Y-56906631D01*
X61248208Y-56887096D01*
X61331466Y-56831466D01*
X61387096Y-56748208D01*
X61406631Y-56650000D01*
X61387096Y-56551792D01*
X61385899Y-56550000D01*
X82143369Y-56550000D01*
X82162904Y-56648208D01*
X82218534Y-56731466D01*
X82301792Y-56787096D01*
X82400000Y-56806631D01*
X82498208Y-56787096D01*
X82581466Y-56731466D01*
X82637096Y-56648208D01*
X82656631Y-56550000D01*
X82637096Y-56451792D01*
X82581466Y-56368534D01*
X82498208Y-56312904D01*
X82400000Y-56293369D01*
X82301792Y-56312904D01*
X82218534Y-56368534D01*
X82162904Y-56451792D01*
X82143369Y-56550000D01*
X61385899Y-56550000D01*
X61331466Y-56468534D01*
X61248208Y-56412904D01*
X61150000Y-56393369D01*
X61051792Y-56412904D01*
X60968534Y-56468534D01*
X60912904Y-56551792D01*
X60893369Y-56650000D01*
X49782338Y-56650000D01*
X49784249Y-56638646D01*
X49804862Y-56516124D01*
X49804862Y-56516120D01*
X49805496Y-56512354D01*
X49805647Y-56500000D01*
X49785323Y-56358082D01*
X49725984Y-56227572D01*
X49647842Y-56136884D01*
X49637005Y-56124307D01*
X49637004Y-56124306D01*
X49632400Y-56118963D01*
X49512095Y-56040985D01*
X49374739Y-55999907D01*
X49291497Y-55999398D01*
X49238427Y-55999074D01*
X49238426Y-55999074D01*
X49231376Y-55999031D01*
X49224599Y-56000968D01*
X49224598Y-56000968D01*
X49100309Y-56036490D01*
X49100307Y-56036491D01*
X49093529Y-56038428D01*
X48972280Y-56114930D01*
X48967613Y-56120214D01*
X48967611Y-56120216D01*
X48882044Y-56217103D01*
X48882042Y-56217105D01*
X48877377Y-56222388D01*
X48816447Y-56352163D01*
X48815362Y-56359132D01*
X48815361Y-56359135D01*
X48810031Y-56393369D01*
X48794391Y-56493823D01*
X39825000Y-56493823D01*
X39825000Y-55950000D01*
X81243369Y-55950000D01*
X81262904Y-56048208D01*
X81318534Y-56131466D01*
X81401792Y-56187096D01*
X81500000Y-56206631D01*
X81598208Y-56187096D01*
X81681466Y-56131466D01*
X81737096Y-56048208D01*
X81756631Y-55950000D01*
X81737096Y-55851792D01*
X81681466Y-55768534D01*
X81598208Y-55712904D01*
X81500000Y-55693369D01*
X81401792Y-55712904D01*
X81318534Y-55768534D01*
X81262904Y-55851792D01*
X81243369Y-55950000D01*
X39825000Y-55950000D01*
X39825000Y-55500000D01*
X83893369Y-55500000D01*
X83912904Y-55598208D01*
X83968534Y-55681466D01*
X84051792Y-55737096D01*
X84150000Y-55756631D01*
X84248208Y-55737096D01*
X84331466Y-55681466D01*
X84387096Y-55598208D01*
X84406631Y-55500000D01*
X84387096Y-55401792D01*
X84331466Y-55318534D01*
X84248208Y-55262904D01*
X84150000Y-55243369D01*
X84051792Y-55262904D01*
X83968534Y-55318534D01*
X83912904Y-55401792D01*
X83893369Y-55500000D01*
X39825000Y-55500000D01*
X39825000Y-46500000D01*
X56443369Y-46500000D01*
X56462904Y-46598208D01*
X56518534Y-46681466D01*
X56601792Y-46737096D01*
X56700000Y-46756631D01*
X56798208Y-46737096D01*
X56881466Y-46681466D01*
X56937096Y-46598208D01*
X56956631Y-46500000D01*
X60943369Y-46500000D01*
X60962904Y-46598208D01*
X61018534Y-46681466D01*
X61101792Y-46737096D01*
X61200000Y-46756631D01*
X61298208Y-46737096D01*
X61381466Y-46681466D01*
X61437096Y-46598208D01*
X61456631Y-46500000D01*
X62193369Y-46500000D01*
X62212904Y-46598208D01*
X62268534Y-46681466D01*
X62351792Y-46737096D01*
X62450000Y-46756631D01*
X62548208Y-46737096D01*
X62631466Y-46681466D01*
X62687096Y-46598208D01*
X62706631Y-46500000D01*
X63443369Y-46500000D01*
X63462904Y-46598208D01*
X63518534Y-46681466D01*
X63601792Y-46737096D01*
X63700000Y-46756631D01*
X63798208Y-46737096D01*
X63881466Y-46681466D01*
X63937096Y-46598208D01*
X63956631Y-46500000D01*
X64743369Y-46500000D01*
X64762904Y-46598208D01*
X64818534Y-46681466D01*
X64901792Y-46737096D01*
X65000000Y-46756631D01*
X65098208Y-46737096D01*
X65181466Y-46681466D01*
X65237096Y-46598208D01*
X65256631Y-46500000D01*
X66043369Y-46500000D01*
X66062904Y-46598208D01*
X66118534Y-46681466D01*
X66201792Y-46737096D01*
X66300000Y-46756631D01*
X66398208Y-46737096D01*
X66481466Y-46681466D01*
X66537096Y-46598208D01*
X66556631Y-46500000D01*
X67293369Y-46500000D01*
X67312904Y-46598208D01*
X67368534Y-46681466D01*
X67451792Y-46737096D01*
X67550000Y-46756631D01*
X67648208Y-46737096D01*
X67731466Y-46681466D01*
X67787096Y-46598208D01*
X67806631Y-46500000D01*
X67805402Y-46493823D01*
X68294391Y-46493823D01*
X68295306Y-46500820D01*
X68295306Y-46500821D01*
X68308041Y-46598208D01*
X68312980Y-46635979D01*
X68315821Y-46642435D01*
X68315821Y-46642436D01*
X68357473Y-46737096D01*
X68370720Y-46767203D01*
X68383792Y-46782754D01*
X68458431Y-46871549D01*
X68458434Y-46871551D01*
X68462970Y-46876948D01*
X68468841Y-46880856D01*
X68468842Y-46880857D01*
X68481143Y-46889045D01*
X68582313Y-46956390D01*
X68682920Y-46987821D01*
X68712425Y-46997039D01*
X68712426Y-46997039D01*
X68719157Y-46999142D01*
X68790828Y-47000456D01*
X68855445Y-47001641D01*
X68855447Y-47001641D01*
X68862499Y-47001770D01*
X68869302Y-46999915D01*
X68869304Y-46999915D01*
X68944503Y-46979413D01*
X69000817Y-46964060D01*
X69122991Y-46889045D01*
X69130403Y-46880857D01*
X69214468Y-46787982D01*
X69219200Y-46782754D01*
X69281710Y-46653733D01*
X69285875Y-46628982D01*
X69304862Y-46516124D01*
X69304862Y-46516120D01*
X69305496Y-46512354D01*
X69305647Y-46500000D01*
X69285323Y-46358082D01*
X69244511Y-46268321D01*
X69228905Y-46233996D01*
X69228904Y-46233995D01*
X69225984Y-46227572D01*
X69132400Y-46118963D01*
X69012095Y-46040985D01*
X68874739Y-45999907D01*
X68791497Y-45999398D01*
X68738427Y-45999074D01*
X68738426Y-45999074D01*
X68731376Y-45999031D01*
X68724599Y-46000968D01*
X68724598Y-46000968D01*
X68600309Y-46036490D01*
X68600307Y-46036491D01*
X68593529Y-46038428D01*
X68472280Y-46114930D01*
X68467613Y-46120214D01*
X68467611Y-46120216D01*
X68382044Y-46217103D01*
X68382042Y-46217105D01*
X68377377Y-46222388D01*
X68316447Y-46352163D01*
X68294391Y-46493823D01*
X67805402Y-46493823D01*
X67787096Y-46401792D01*
X67731466Y-46318534D01*
X67648208Y-46262904D01*
X67550000Y-46243369D01*
X67451792Y-46262904D01*
X67368534Y-46318534D01*
X67312904Y-46401792D01*
X67293369Y-46500000D01*
X66556631Y-46500000D01*
X66537096Y-46401792D01*
X66481466Y-46318534D01*
X66398208Y-46262904D01*
X66300000Y-46243369D01*
X66201792Y-46262904D01*
X66118534Y-46318534D01*
X66062904Y-46401792D01*
X66043369Y-46500000D01*
X65256631Y-46500000D01*
X65237096Y-46401792D01*
X65181466Y-46318534D01*
X65098208Y-46262904D01*
X65000000Y-46243369D01*
X64901792Y-46262904D01*
X64818534Y-46318534D01*
X64762904Y-46401792D01*
X64743369Y-46500000D01*
X63956631Y-46500000D01*
X63937096Y-46401792D01*
X63881466Y-46318534D01*
X63798208Y-46262904D01*
X63700000Y-46243369D01*
X63601792Y-46262904D01*
X63518534Y-46318534D01*
X63462904Y-46401792D01*
X63443369Y-46500000D01*
X62706631Y-46500000D01*
X62687096Y-46401792D01*
X62631466Y-46318534D01*
X62548208Y-46262904D01*
X62450000Y-46243369D01*
X62351792Y-46262904D01*
X62268534Y-46318534D01*
X62212904Y-46401792D01*
X62193369Y-46500000D01*
X61456631Y-46500000D01*
X61437096Y-46401792D01*
X61381466Y-46318534D01*
X61298208Y-46262904D01*
X61200000Y-46243369D01*
X61101792Y-46262904D01*
X61018534Y-46318534D01*
X60962904Y-46401792D01*
X60943369Y-46500000D01*
X56956631Y-46500000D01*
X56937096Y-46401792D01*
X56881466Y-46318534D01*
X56798208Y-46262904D01*
X56700000Y-46243369D01*
X56601792Y-46262904D01*
X56518534Y-46318534D01*
X56462904Y-46401792D01*
X56443369Y-46500000D01*
X39825000Y-46500000D01*
X39825000Y-44200000D01*
X80843369Y-44200000D01*
X80862904Y-44298208D01*
X80918534Y-44381466D01*
X81001792Y-44437096D01*
X81100000Y-44456631D01*
X81198208Y-44437096D01*
X81281466Y-44381466D01*
X81337096Y-44298208D01*
X81356631Y-44200000D01*
X81337096Y-44101792D01*
X81281466Y-44018534D01*
X81198208Y-43962904D01*
X81100000Y-43943369D01*
X81001792Y-43962904D01*
X80918534Y-44018534D01*
X80862904Y-44101792D01*
X80843369Y-44200000D01*
X39825000Y-44200000D01*
X39825000Y-43193823D01*
X74994391Y-43193823D01*
X74995306Y-43200820D01*
X74995306Y-43200821D01*
X74996814Y-43212354D01*
X75012980Y-43335979D01*
X75015821Y-43342435D01*
X75015821Y-43342436D01*
X75023586Y-43360082D01*
X75070720Y-43467203D01*
X75083792Y-43482754D01*
X75158431Y-43571549D01*
X75158434Y-43571551D01*
X75162970Y-43576948D01*
X75168841Y-43580856D01*
X75168842Y-43580857D01*
X75181143Y-43589045D01*
X75282313Y-43656390D01*
X75382920Y-43687821D01*
X75412425Y-43697039D01*
X75412426Y-43697039D01*
X75419157Y-43699142D01*
X75490828Y-43700456D01*
X75555445Y-43701641D01*
X75555447Y-43701641D01*
X75562499Y-43701770D01*
X75569302Y-43699915D01*
X75569304Y-43699915D01*
X75644503Y-43679413D01*
X75700817Y-43664060D01*
X75822991Y-43589045D01*
X75830403Y-43580857D01*
X75914468Y-43487982D01*
X75919200Y-43482754D01*
X75981710Y-43353733D01*
X75985875Y-43328982D01*
X76004862Y-43216124D01*
X76004862Y-43216120D01*
X76005496Y-43212354D01*
X76005647Y-43200000D01*
X75985323Y-43058082D01*
X75925984Y-42927572D01*
X75832400Y-42818963D01*
X75712095Y-42740985D01*
X75574739Y-42699907D01*
X75491497Y-42699398D01*
X75438427Y-42699074D01*
X75438426Y-42699074D01*
X75431376Y-42699031D01*
X75424599Y-42700968D01*
X75424598Y-42700968D01*
X75300309Y-42736490D01*
X75300307Y-42736491D01*
X75293529Y-42738428D01*
X75172280Y-42814930D01*
X75167613Y-42820214D01*
X75167611Y-42820216D01*
X75082044Y-42917103D01*
X75082042Y-42917105D01*
X75077377Y-42922388D01*
X75016447Y-43052163D01*
X74994391Y-43193823D01*
X39825000Y-43193823D01*
X39825000Y-42200000D01*
X77543369Y-42200000D01*
X77562904Y-42298208D01*
X77618534Y-42381466D01*
X77701792Y-42437096D01*
X77800000Y-42456631D01*
X77898208Y-42437096D01*
X77981466Y-42381466D01*
X78037096Y-42298208D01*
X78056631Y-42200000D01*
X78643369Y-42200000D01*
X78662904Y-42298208D01*
X78718534Y-42381466D01*
X78801792Y-42437096D01*
X78900000Y-42456631D01*
X78998208Y-42437096D01*
X79081466Y-42381466D01*
X79137096Y-42298208D01*
X79156631Y-42200000D01*
X79155402Y-42193823D01*
X79494391Y-42193823D01*
X79495306Y-42200820D01*
X79495306Y-42200821D01*
X79508041Y-42298208D01*
X79512980Y-42335979D01*
X79515821Y-42342435D01*
X79515821Y-42342436D01*
X79557473Y-42437096D01*
X79570720Y-42467203D01*
X79583792Y-42482754D01*
X79658431Y-42571549D01*
X79658434Y-42571551D01*
X79662970Y-42576948D01*
X79668841Y-42580856D01*
X79668842Y-42580857D01*
X79681143Y-42589045D01*
X79782313Y-42656390D01*
X79882920Y-42687821D01*
X79912425Y-42697039D01*
X79912426Y-42697039D01*
X79919157Y-42699142D01*
X79990828Y-42700456D01*
X80055445Y-42701641D01*
X80055447Y-42701641D01*
X80062499Y-42701770D01*
X80069302Y-42699915D01*
X80069304Y-42699915D01*
X80144503Y-42679413D01*
X80200817Y-42664060D01*
X80322991Y-42589045D01*
X80330403Y-42580857D01*
X80414468Y-42487982D01*
X80419200Y-42482754D01*
X80481710Y-42353733D01*
X80485875Y-42328982D01*
X80504862Y-42216124D01*
X80504862Y-42216120D01*
X80505496Y-42212354D01*
X80505647Y-42200000D01*
X83043369Y-42200000D01*
X83062904Y-42298208D01*
X83118534Y-42381466D01*
X83201792Y-42437096D01*
X83300000Y-42456631D01*
X83398208Y-42437096D01*
X83481466Y-42381466D01*
X83537096Y-42298208D01*
X83556631Y-42200000D01*
X83537096Y-42101792D01*
X83481466Y-42018534D01*
X83398208Y-41962904D01*
X83300000Y-41943369D01*
X83201792Y-41962904D01*
X83118534Y-42018534D01*
X83062904Y-42101792D01*
X83043369Y-42200000D01*
X80505647Y-42200000D01*
X80485323Y-42058082D01*
X80444511Y-41968321D01*
X80428905Y-41933996D01*
X80428904Y-41933995D01*
X80425984Y-41927572D01*
X80332400Y-41818963D01*
X80212095Y-41740985D01*
X80074739Y-41699907D01*
X79991497Y-41699398D01*
X79938427Y-41699074D01*
X79938426Y-41699074D01*
X79931376Y-41699031D01*
X79924599Y-41700968D01*
X79924598Y-41700968D01*
X79800309Y-41736490D01*
X79800307Y-41736491D01*
X79793529Y-41738428D01*
X79672280Y-41814930D01*
X79667613Y-41820214D01*
X79667611Y-41820216D01*
X79582044Y-41917103D01*
X79582042Y-41917105D01*
X79577377Y-41922388D01*
X79516447Y-42052163D01*
X79494391Y-42193823D01*
X79155402Y-42193823D01*
X79137096Y-42101792D01*
X79081466Y-42018534D01*
X78998208Y-41962904D01*
X78900000Y-41943369D01*
X78801792Y-41962904D01*
X78718534Y-42018534D01*
X78662904Y-42101792D01*
X78643369Y-42200000D01*
X78056631Y-42200000D01*
X78037096Y-42101792D01*
X77981466Y-42018534D01*
X77898208Y-41962904D01*
X77800000Y-41943369D01*
X77701792Y-41962904D01*
X77618534Y-42018534D01*
X77562904Y-42101792D01*
X77543369Y-42200000D01*
X39825000Y-42200000D01*
X39825000Y-38349000D01*
X39843907Y-38290809D01*
X39893407Y-38254845D01*
X39924000Y-38250000D01*
X87576000Y-38250000D01*
X87634191Y-38268907D01*
G37*
%TD.AperFunction*%
%TD*%
M02*
