%TF.GenerationSoftware,KiCad,Pcbnew,(6.0.2)*%
%TF.CreationDate,2023-11-20T16:41:37+01:00*%
%TF.ProjectId,CartGen4,43617274-4765-46e3-942e-6b696361645f,rev?*%
%TF.SameCoordinates,Original*%
%TF.FileFunction,Legend,Top*%
%TF.FilePolarity,Positive*%
%FSLAX46Y46*%
G04 Gerber Fmt 4.6, Leading zero omitted, Abs format (unit mm)*
G04 Created by KiCad (PCBNEW (6.0.2)) date 2023-11-20 16:41:37*
%MOMM*%
%LPD*%
G01*
G04 APERTURE LIST*
%ADD10C,0.150000*%
%ADD11C,0.125000*%
%ADD12C,0.200000*%
%ADD13C,0.120000*%
%ADD14C,0.240000*%
%ADD15C,0.100000*%
%ADD16C,0.250000*%
G04 APERTURE END LIST*
D10*
X48119047Y-40123571D02*
X48452380Y-40123571D01*
X48595238Y-40647380D02*
X48119047Y-40647380D01*
X48119047Y-39647380D01*
X48595238Y-39647380D01*
X49595238Y-40552142D02*
X49547619Y-40599761D01*
X49404761Y-40647380D01*
X49309523Y-40647380D01*
X49166666Y-40599761D01*
X49071428Y-40504523D01*
X49023809Y-40409285D01*
X48976190Y-40218809D01*
X48976190Y-40075952D01*
X49023809Y-39885476D01*
X49071428Y-39790238D01*
X49166666Y-39695000D01*
X49309523Y-39647380D01*
X49404761Y-39647380D01*
X49547619Y-39695000D01*
X49595238Y-39742619D01*
X50547619Y-39695000D02*
X50452380Y-39647380D01*
X50309523Y-39647380D01*
X50166666Y-39695000D01*
X50071428Y-39790238D01*
X50023809Y-39885476D01*
X49976190Y-40075952D01*
X49976190Y-40218809D01*
X50023809Y-40409285D01*
X50071428Y-40504523D01*
X50166666Y-40599761D01*
X50309523Y-40647380D01*
X50404761Y-40647380D01*
X50547619Y-40599761D01*
X50595238Y-40552142D01*
X50595238Y-40218809D01*
X50404761Y-40218809D01*
X51595238Y-40552142D02*
X51547619Y-40599761D01*
X51404761Y-40647380D01*
X51309523Y-40647380D01*
X51166666Y-40599761D01*
X51071428Y-40504523D01*
X51023809Y-40409285D01*
X50976190Y-40218809D01*
X50976190Y-40075952D01*
X51023809Y-39885476D01*
X51071428Y-39790238D01*
X51166666Y-39695000D01*
X51309523Y-39647380D01*
X51404761Y-39647380D01*
X51547619Y-39695000D01*
X51595238Y-39742619D01*
X53357142Y-40552142D02*
X53309523Y-40599761D01*
X53166666Y-40647380D01*
X53071428Y-40647380D01*
X52928571Y-40599761D01*
X52833333Y-40504523D01*
X52785714Y-40409285D01*
X52738095Y-40218809D01*
X52738095Y-40075952D01*
X52785714Y-39885476D01*
X52833333Y-39790238D01*
X52928571Y-39695000D01*
X53071428Y-39647380D01*
X53166666Y-39647380D01*
X53309523Y-39695000D01*
X53357142Y-39742619D01*
X54214285Y-40647380D02*
X54214285Y-40123571D01*
X54166666Y-40028333D01*
X54071428Y-39980714D01*
X53880952Y-39980714D01*
X53785714Y-40028333D01*
X54214285Y-40599761D02*
X54119047Y-40647380D01*
X53880952Y-40647380D01*
X53785714Y-40599761D01*
X53738095Y-40504523D01*
X53738095Y-40409285D01*
X53785714Y-40314047D01*
X53880952Y-40266428D01*
X54119047Y-40266428D01*
X54214285Y-40218809D01*
X54690476Y-40647380D02*
X54690476Y-39980714D01*
X54690476Y-40171190D02*
X54738095Y-40075952D01*
X54785714Y-40028333D01*
X54880952Y-39980714D01*
X54976190Y-39980714D01*
X55166666Y-39980714D02*
X55547619Y-39980714D01*
X55309523Y-39647380D02*
X55309523Y-40504523D01*
X55357142Y-40599761D01*
X55452380Y-40647380D01*
X55547619Y-40647380D01*
X57166666Y-39695000D02*
X57071428Y-39647380D01*
X56928571Y-39647380D01*
X56785714Y-39695000D01*
X56690476Y-39790238D01*
X56642857Y-39885476D01*
X56595238Y-40075952D01*
X56595238Y-40218809D01*
X56642857Y-40409285D01*
X56690476Y-40504523D01*
X56785714Y-40599761D01*
X56928571Y-40647380D01*
X57023809Y-40647380D01*
X57166666Y-40599761D01*
X57214285Y-40552142D01*
X57214285Y-40218809D01*
X57023809Y-40218809D01*
X58023809Y-40599761D02*
X57928571Y-40647380D01*
X57738095Y-40647380D01*
X57642857Y-40599761D01*
X57595238Y-40504523D01*
X57595238Y-40123571D01*
X57642857Y-40028333D01*
X57738095Y-39980714D01*
X57928571Y-39980714D01*
X58023809Y-40028333D01*
X58071428Y-40123571D01*
X58071428Y-40218809D01*
X57595238Y-40314047D01*
X58500000Y-39980714D02*
X58500000Y-40647380D01*
X58500000Y-40075952D02*
X58547619Y-40028333D01*
X58642857Y-39980714D01*
X58785714Y-39980714D01*
X58880952Y-40028333D01*
X58928571Y-40123571D01*
X58928571Y-40647380D01*
X59833333Y-39980714D02*
X59833333Y-40647380D01*
X59595238Y-39599761D02*
X59357142Y-40314047D01*
X59976190Y-40314047D01*
X42666666Y-41495476D02*
X42571428Y-41447857D01*
X42380952Y-41447857D01*
X42285714Y-41495476D01*
X42190476Y-41590714D01*
X42142857Y-41685952D01*
X42142857Y-41876428D01*
X42190476Y-41971666D01*
X42285714Y-42066904D01*
X42380952Y-42114523D01*
X42571428Y-42114523D01*
X42666666Y-42066904D01*
X42476190Y-41114523D02*
X42238095Y-41162142D01*
X42000000Y-41305000D01*
X41857142Y-41543095D01*
X41809523Y-41781190D01*
X41857142Y-42019285D01*
X42000000Y-42257380D01*
X42238095Y-42400238D01*
X42476190Y-42447857D01*
X42714285Y-42400238D01*
X42952380Y-42257380D01*
X43095238Y-42019285D01*
X43142857Y-41781190D01*
X43095238Y-41543095D01*
X42952380Y-41305000D01*
X42714285Y-41162142D01*
X42476190Y-41114523D01*
X44285714Y-41352619D02*
X44333333Y-41305000D01*
X44428571Y-41257380D01*
X44666666Y-41257380D01*
X44761904Y-41305000D01*
X44809523Y-41352619D01*
X44857142Y-41447857D01*
X44857142Y-41543095D01*
X44809523Y-41685952D01*
X44238095Y-42257380D01*
X44857142Y-42257380D01*
X45476190Y-41257380D02*
X45571428Y-41257380D01*
X45666666Y-41305000D01*
X45714285Y-41352619D01*
X45761904Y-41447857D01*
X45809523Y-41638333D01*
X45809523Y-41876428D01*
X45761904Y-42066904D01*
X45714285Y-42162142D01*
X45666666Y-42209761D01*
X45571428Y-42257380D01*
X45476190Y-42257380D01*
X45380952Y-42209761D01*
X45333333Y-42162142D01*
X45285714Y-42066904D01*
X45238095Y-41876428D01*
X45238095Y-41638333D01*
X45285714Y-41447857D01*
X45333333Y-41352619D01*
X45380952Y-41305000D01*
X45476190Y-41257380D01*
X46190476Y-41352619D02*
X46238095Y-41305000D01*
X46333333Y-41257380D01*
X46571428Y-41257380D01*
X46666666Y-41305000D01*
X46714285Y-41352619D01*
X46761904Y-41447857D01*
X46761904Y-41543095D01*
X46714285Y-41685952D01*
X46142857Y-42257380D01*
X46761904Y-42257380D01*
X47095238Y-41257380D02*
X47714285Y-41257380D01*
X47380952Y-41638333D01*
X47523809Y-41638333D01*
X47619047Y-41685952D01*
X47666666Y-41733571D01*
X47714285Y-41828809D01*
X47714285Y-42066904D01*
X47666666Y-42162142D01*
X47619047Y-42209761D01*
X47523809Y-42257380D01*
X47238095Y-42257380D01*
X47142857Y-42209761D01*
X47095238Y-42162142D01*
X48904761Y-41733571D02*
X49238095Y-41733571D01*
X49380952Y-42257380D02*
X48904761Y-42257380D01*
X48904761Y-41257380D01*
X49380952Y-41257380D01*
X49952380Y-42257380D02*
X49857142Y-42209761D01*
X49809523Y-42114523D01*
X49809523Y-41257380D01*
X50333333Y-42257380D02*
X50333333Y-41590714D01*
X50333333Y-41257380D02*
X50285714Y-41305000D01*
X50333333Y-41352619D01*
X50380952Y-41305000D01*
X50333333Y-41257380D01*
X50333333Y-41352619D01*
X50809523Y-41590714D02*
X50809523Y-42447857D01*
X50761904Y-42543095D01*
X50666666Y-42590714D01*
X50619047Y-42590714D01*
X50809523Y-41257380D02*
X50761904Y-41305000D01*
X50809523Y-41352619D01*
X50857142Y-41305000D01*
X50809523Y-41257380D01*
X50809523Y-41352619D01*
X51714285Y-42257380D02*
X51714285Y-41733571D01*
X51666666Y-41638333D01*
X51571428Y-41590714D01*
X51380952Y-41590714D01*
X51285714Y-41638333D01*
X51714285Y-42209761D02*
X51619047Y-42257380D01*
X51380952Y-42257380D01*
X51285714Y-42209761D01*
X51238095Y-42114523D01*
X51238095Y-42019285D01*
X51285714Y-41924047D01*
X51380952Y-41876428D01*
X51619047Y-41876428D01*
X51714285Y-41828809D01*
X52190476Y-42257380D02*
X52190476Y-41257380D01*
X52619047Y-42257380D02*
X52619047Y-41733571D01*
X52571428Y-41638333D01*
X52476190Y-41590714D01*
X52333333Y-41590714D01*
X52238095Y-41638333D01*
X52190476Y-41685952D01*
X53809523Y-41971666D02*
X54285714Y-41971666D01*
X53714285Y-42257380D02*
X54047619Y-41257380D01*
X54380952Y-42257380D01*
X54857142Y-42257380D02*
X54761904Y-42209761D01*
X54714285Y-42114523D01*
X54714285Y-41257380D01*
X55238095Y-42257380D02*
X55238095Y-41590714D01*
X55238095Y-41685952D02*
X55285714Y-41638333D01*
X55380952Y-41590714D01*
X55523809Y-41590714D01*
X55619047Y-41638333D01*
X55666666Y-41733571D01*
X55666666Y-42257380D01*
X55666666Y-41733571D02*
X55714285Y-41638333D01*
X55809523Y-41590714D01*
X55952380Y-41590714D01*
X56047619Y-41638333D01*
X56095238Y-41733571D01*
X56095238Y-42257380D01*
X56952380Y-42209761D02*
X56857142Y-42257380D01*
X56666666Y-42257380D01*
X56571428Y-42209761D01*
X56523809Y-42114523D01*
X56523809Y-41733571D01*
X56571428Y-41638333D01*
X56666666Y-41590714D01*
X56857142Y-41590714D01*
X56952380Y-41638333D01*
X57000000Y-41733571D01*
X57000000Y-41828809D01*
X56523809Y-41924047D01*
X57428571Y-42257380D02*
X57428571Y-41590714D01*
X57428571Y-41257380D02*
X57380952Y-41305000D01*
X57428571Y-41352619D01*
X57476190Y-41305000D01*
X57428571Y-41257380D01*
X57428571Y-41352619D01*
X58333333Y-42257380D02*
X58333333Y-41257380D01*
X58333333Y-42209761D02*
X58238095Y-42257380D01*
X58047619Y-42257380D01*
X57952380Y-42209761D01*
X57904761Y-42162142D01*
X57857142Y-42066904D01*
X57857142Y-41781190D01*
X57904761Y-41685952D01*
X57952380Y-41638333D01*
X58047619Y-41590714D01*
X58238095Y-41590714D01*
X58333333Y-41638333D01*
X59238095Y-42257380D02*
X59238095Y-41733571D01*
X59190476Y-41638333D01*
X59095238Y-41590714D01*
X58904761Y-41590714D01*
X58809523Y-41638333D01*
X59238095Y-42209761D02*
X59142857Y-42257380D01*
X58904761Y-42257380D01*
X58809523Y-42209761D01*
X58761904Y-42114523D01*
X58761904Y-42019285D01*
X58809523Y-41924047D01*
X58904761Y-41876428D01*
X59142857Y-41876428D01*
X59238095Y-41828809D01*
X61047619Y-42162142D02*
X60999999Y-42209761D01*
X60857142Y-42257380D01*
X60761904Y-42257380D01*
X60619047Y-42209761D01*
X60523809Y-42114523D01*
X60476190Y-42019285D01*
X60428571Y-41828809D01*
X60428571Y-41685952D01*
X60476190Y-41495476D01*
X60523809Y-41400238D01*
X60619047Y-41305000D01*
X60761904Y-41257380D01*
X60857142Y-41257380D01*
X60999999Y-41305000D01*
X61047619Y-41352619D01*
X61619047Y-42257380D02*
X61523809Y-42209761D01*
X61476190Y-42162142D01*
X61428571Y-42066904D01*
X61428571Y-41781190D01*
X61476190Y-41685952D01*
X61523809Y-41638333D01*
X61619047Y-41590714D01*
X61761904Y-41590714D01*
X61857142Y-41638333D01*
X61904761Y-41685952D01*
X61952380Y-41781190D01*
X61952380Y-42066904D01*
X61904761Y-42162142D01*
X61857142Y-42209761D01*
X61761904Y-42257380D01*
X61619047Y-42257380D01*
X62380952Y-42257380D02*
X62380952Y-41590714D01*
X62380952Y-41257380D02*
X62333333Y-41305000D01*
X62380952Y-41352619D01*
X62428571Y-41305000D01*
X62380952Y-41257380D01*
X62380952Y-41352619D01*
X62857142Y-42257380D02*
X62857142Y-41590714D01*
X62857142Y-41685952D02*
X62904761Y-41638333D01*
X62999999Y-41590714D01*
X63142857Y-41590714D01*
X63238095Y-41638333D01*
X63285714Y-41733571D01*
X63285714Y-42257380D01*
X63285714Y-41733571D02*
X63333333Y-41638333D01*
X63428571Y-41590714D01*
X63571428Y-41590714D01*
X63666666Y-41638333D01*
X63714285Y-41733571D01*
X63714285Y-42257380D01*
X64190476Y-42257380D02*
X64190476Y-41257380D01*
X64190476Y-41638333D02*
X64285714Y-41590714D01*
X64476190Y-41590714D01*
X64571428Y-41638333D01*
X64619047Y-41685952D01*
X64666666Y-41781190D01*
X64666666Y-42066904D01*
X64619047Y-42162142D01*
X64571428Y-42209761D01*
X64476190Y-42257380D01*
X64285714Y-42257380D01*
X64190476Y-42209761D01*
X65095238Y-42257380D02*
X65095238Y-41590714D01*
X65095238Y-41781190D02*
X65142857Y-41685952D01*
X65190476Y-41638333D01*
X65285714Y-41590714D01*
X65380952Y-41590714D01*
X66142857Y-42257380D02*
X66142857Y-41733571D01*
X66095238Y-41638333D01*
X65999999Y-41590714D01*
X65809523Y-41590714D01*
X65714285Y-41638333D01*
X66142857Y-42209761D02*
X66047619Y-42257380D01*
X65809523Y-42257380D01*
X65714285Y-42209761D01*
X65666666Y-42114523D01*
X65666666Y-42019285D01*
X65714285Y-41924047D01*
X65809523Y-41876428D01*
X66047619Y-41876428D01*
X66142857Y-41828809D01*
D11*
%TO.C,U5*%
X71342857Y-68871428D02*
X71342857Y-69357142D01*
X71371428Y-69414285D01*
X71400000Y-69442857D01*
X71457142Y-69471428D01*
X71571428Y-69471428D01*
X71628571Y-69442857D01*
X71657142Y-69414285D01*
X71685714Y-69357142D01*
X71685714Y-68871428D01*
X72257142Y-68871428D02*
X71971428Y-68871428D01*
X71942857Y-69157142D01*
X71971428Y-69128571D01*
X72028571Y-69100000D01*
X72171428Y-69100000D01*
X72228571Y-69128571D01*
X72257142Y-69157142D01*
X72285714Y-69214285D01*
X72285714Y-69357142D01*
X72257142Y-69414285D01*
X72228571Y-69442857D01*
X72171428Y-69471428D01*
X72028571Y-69471428D01*
X71971428Y-69442857D01*
X71942857Y-69414285D01*
D10*
%TO.C,J2*%
X54932380Y-46758333D02*
X55646666Y-46758333D01*
X55789523Y-46805952D01*
X55884761Y-46901190D01*
X55932380Y-47044047D01*
X55932380Y-47139285D01*
X55027619Y-46329761D02*
X54980000Y-46282142D01*
X54932380Y-46186904D01*
X54932380Y-45948809D01*
X54980000Y-45853571D01*
X55027619Y-45805952D01*
X55122857Y-45758333D01*
X55218095Y-45758333D01*
X55360952Y-45805952D01*
X55932380Y-46377380D01*
X55932380Y-45758333D01*
D11*
%TO.C,J1*%
X74021428Y-46850000D02*
X74450000Y-46850000D01*
X74535714Y-46878571D01*
X74592857Y-46935714D01*
X74621428Y-47021428D01*
X74621428Y-47078571D01*
X74621428Y-46250000D02*
X74621428Y-46592857D01*
X74621428Y-46421428D02*
X74021428Y-46421428D01*
X74107142Y-46478571D01*
X74164285Y-46535714D01*
X74192857Y-46592857D01*
%TO.C,U4*%
X80292857Y-69071428D02*
X80292857Y-69557142D01*
X80321428Y-69614285D01*
X80350000Y-69642857D01*
X80407142Y-69671428D01*
X80521428Y-69671428D01*
X80578571Y-69642857D01*
X80607142Y-69614285D01*
X80635714Y-69557142D01*
X80635714Y-69071428D01*
X81178571Y-69271428D02*
X81178571Y-69671428D01*
X81035714Y-69042857D02*
X80892857Y-69471428D01*
X81264285Y-69471428D01*
%TO.C,C16*%
X56264285Y-85754285D02*
X56235714Y-85782857D01*
X56150000Y-85811428D01*
X56092857Y-85811428D01*
X56007142Y-85782857D01*
X55950000Y-85725714D01*
X55921428Y-85668571D01*
X55892857Y-85554285D01*
X55892857Y-85468571D01*
X55921428Y-85354285D01*
X55950000Y-85297142D01*
X56007142Y-85240000D01*
X56092857Y-85211428D01*
X56150000Y-85211428D01*
X56235714Y-85240000D01*
X56264285Y-85268571D01*
X56835714Y-85811428D02*
X56492857Y-85811428D01*
X56664285Y-85811428D02*
X56664285Y-85211428D01*
X56607142Y-85297142D01*
X56550000Y-85354285D01*
X56492857Y-85382857D01*
X57350000Y-85211428D02*
X57235714Y-85211428D01*
X57178571Y-85240000D01*
X57150000Y-85268571D01*
X57092857Y-85354285D01*
X57064285Y-85468571D01*
X57064285Y-85697142D01*
X57092857Y-85754285D01*
X57121428Y-85782857D01*
X57178571Y-85811428D01*
X57292857Y-85811428D01*
X57350000Y-85782857D01*
X57378571Y-85754285D01*
X57407142Y-85697142D01*
X57407142Y-85554285D01*
X57378571Y-85497142D01*
X57350000Y-85468571D01*
X57292857Y-85440000D01*
X57178571Y-85440000D01*
X57121428Y-85468571D01*
X57092857Y-85497142D01*
X57064285Y-85554285D01*
%TO.C,C12*%
X59314285Y-82889285D02*
X59285714Y-82917857D01*
X59200000Y-82946428D01*
X59142857Y-82946428D01*
X59057142Y-82917857D01*
X59000000Y-82860714D01*
X58971428Y-82803571D01*
X58942857Y-82689285D01*
X58942857Y-82603571D01*
X58971428Y-82489285D01*
X59000000Y-82432142D01*
X59057142Y-82375000D01*
X59142857Y-82346428D01*
X59200000Y-82346428D01*
X59285714Y-82375000D01*
X59314285Y-82403571D01*
X59885714Y-82946428D02*
X59542857Y-82946428D01*
X59714285Y-82946428D02*
X59714285Y-82346428D01*
X59657142Y-82432142D01*
X59600000Y-82489285D01*
X59542857Y-82517857D01*
X60114285Y-82403571D02*
X60142857Y-82375000D01*
X60200000Y-82346428D01*
X60342857Y-82346428D01*
X60400000Y-82375000D01*
X60428571Y-82403571D01*
X60457142Y-82460714D01*
X60457142Y-82517857D01*
X60428571Y-82603571D01*
X60085714Y-82946428D01*
X60457142Y-82946428D01*
%TO.C,C8*%
X55900000Y-77864285D02*
X55871428Y-77892857D01*
X55785714Y-77921428D01*
X55728571Y-77921428D01*
X55642857Y-77892857D01*
X55585714Y-77835714D01*
X55557142Y-77778571D01*
X55528571Y-77664285D01*
X55528571Y-77578571D01*
X55557142Y-77464285D01*
X55585714Y-77407142D01*
X55642857Y-77350000D01*
X55728571Y-77321428D01*
X55785714Y-77321428D01*
X55871428Y-77350000D01*
X55900000Y-77378571D01*
X56242857Y-77578571D02*
X56185714Y-77550000D01*
X56157142Y-77521428D01*
X56128571Y-77464285D01*
X56128571Y-77435714D01*
X56157142Y-77378571D01*
X56185714Y-77350000D01*
X56242857Y-77321428D01*
X56357142Y-77321428D01*
X56414285Y-77350000D01*
X56442857Y-77378571D01*
X56471428Y-77435714D01*
X56471428Y-77464285D01*
X56442857Y-77521428D01*
X56414285Y-77550000D01*
X56357142Y-77578571D01*
X56242857Y-77578571D01*
X56185714Y-77607142D01*
X56157142Y-77635714D01*
X56128571Y-77692857D01*
X56128571Y-77807142D01*
X56157142Y-77864285D01*
X56185714Y-77892857D01*
X56242857Y-77921428D01*
X56357142Y-77921428D01*
X56414285Y-77892857D01*
X56442857Y-77864285D01*
X56471428Y-77807142D01*
X56471428Y-77692857D01*
X56442857Y-77635714D01*
X56414285Y-77607142D01*
X56357142Y-77578571D01*
%TO.C,U2*%
X84271428Y-62207142D02*
X84757142Y-62207142D01*
X84814285Y-62178571D01*
X84842857Y-62150000D01*
X84871428Y-62092857D01*
X84871428Y-61978571D01*
X84842857Y-61921428D01*
X84814285Y-61892857D01*
X84757142Y-61864285D01*
X84271428Y-61864285D01*
X84328571Y-61607142D02*
X84300000Y-61578571D01*
X84271428Y-61521428D01*
X84271428Y-61378571D01*
X84300000Y-61321428D01*
X84328571Y-61292857D01*
X84385714Y-61264285D01*
X84442857Y-61264285D01*
X84528571Y-61292857D01*
X84871428Y-61635714D01*
X84871428Y-61264285D01*
%TO.C,C1*%
X70314285Y-51550000D02*
X70342857Y-51578571D01*
X70371428Y-51664285D01*
X70371428Y-51721428D01*
X70342857Y-51807142D01*
X70285714Y-51864285D01*
X70228571Y-51892857D01*
X70114285Y-51921428D01*
X70028571Y-51921428D01*
X69914285Y-51892857D01*
X69857142Y-51864285D01*
X69800000Y-51807142D01*
X69771428Y-51721428D01*
X69771428Y-51664285D01*
X69800000Y-51578571D01*
X69828571Y-51550000D01*
X70371428Y-50978571D02*
X70371428Y-51321428D01*
X70371428Y-51150000D02*
X69771428Y-51150000D01*
X69857142Y-51207142D01*
X69914285Y-51264285D01*
X69942857Y-51321428D01*
%TO.C,D1*%
X46107142Y-50871428D02*
X46107142Y-50271428D01*
X46250000Y-50271428D01*
X46335714Y-50300000D01*
X46392857Y-50357142D01*
X46421428Y-50414285D01*
X46450000Y-50528571D01*
X46450000Y-50614285D01*
X46421428Y-50728571D01*
X46392857Y-50785714D01*
X46335714Y-50842857D01*
X46250000Y-50871428D01*
X46107142Y-50871428D01*
X47021428Y-50871428D02*
X46678571Y-50871428D01*
X46850000Y-50871428D02*
X46850000Y-50271428D01*
X46792857Y-50357142D01*
X46735714Y-50414285D01*
X46678571Y-50442857D01*
%TO.C,C5*%
X50100000Y-75214285D02*
X50071428Y-75242857D01*
X49985714Y-75271428D01*
X49928571Y-75271428D01*
X49842857Y-75242857D01*
X49785714Y-75185714D01*
X49757142Y-75128571D01*
X49728571Y-75014285D01*
X49728571Y-74928571D01*
X49757142Y-74814285D01*
X49785714Y-74757142D01*
X49842857Y-74700000D01*
X49928571Y-74671428D01*
X49985714Y-74671428D01*
X50071428Y-74700000D01*
X50100000Y-74728571D01*
X50642857Y-74671428D02*
X50357142Y-74671428D01*
X50328571Y-74957142D01*
X50357142Y-74928571D01*
X50414285Y-74900000D01*
X50557142Y-74900000D01*
X50614285Y-74928571D01*
X50642857Y-74957142D01*
X50671428Y-75014285D01*
X50671428Y-75157142D01*
X50642857Y-75214285D01*
X50614285Y-75242857D01*
X50557142Y-75271428D01*
X50414285Y-75271428D01*
X50357142Y-75242857D01*
X50328571Y-75214285D01*
%TO.C,C13*%
X42064285Y-84435714D02*
X42092857Y-84464285D01*
X42121428Y-84550000D01*
X42121428Y-84607142D01*
X42092857Y-84692857D01*
X42035714Y-84750000D01*
X41978571Y-84778571D01*
X41864285Y-84807142D01*
X41778571Y-84807142D01*
X41664285Y-84778571D01*
X41607142Y-84750000D01*
X41550000Y-84692857D01*
X41521428Y-84607142D01*
X41521428Y-84550000D01*
X41550000Y-84464285D01*
X41578571Y-84435714D01*
X42121428Y-83864285D02*
X42121428Y-84207142D01*
X42121428Y-84035714D02*
X41521428Y-84035714D01*
X41607142Y-84092857D01*
X41664285Y-84150000D01*
X41692857Y-84207142D01*
X41521428Y-83664285D02*
X41521428Y-83292857D01*
X41750000Y-83492857D01*
X41750000Y-83407142D01*
X41778571Y-83350000D01*
X41807142Y-83321428D01*
X41864285Y-83292857D01*
X42007142Y-83292857D01*
X42064285Y-83321428D01*
X42092857Y-83350000D01*
X42121428Y-83407142D01*
X42121428Y-83578571D01*
X42092857Y-83635714D01*
X42064285Y-83664285D01*
%TO.C,U1*%
X77642857Y-62821428D02*
X77642857Y-63307142D01*
X77671428Y-63364285D01*
X77700000Y-63392857D01*
X77757142Y-63421428D01*
X77871428Y-63421428D01*
X77928571Y-63392857D01*
X77957142Y-63364285D01*
X77985714Y-63307142D01*
X77985714Y-62821428D01*
X78585714Y-63421428D02*
X78242857Y-63421428D01*
X78414285Y-63421428D02*
X78414285Y-62821428D01*
X78357142Y-62907142D01*
X78300000Y-62964285D01*
X78242857Y-62992857D01*
%TO.C,C15*%
X50464285Y-85964285D02*
X50435714Y-85992857D01*
X50350000Y-86021428D01*
X50292857Y-86021428D01*
X50207142Y-85992857D01*
X50150000Y-85935714D01*
X50121428Y-85878571D01*
X50092857Y-85764285D01*
X50092857Y-85678571D01*
X50121428Y-85564285D01*
X50150000Y-85507142D01*
X50207142Y-85450000D01*
X50292857Y-85421428D01*
X50350000Y-85421428D01*
X50435714Y-85450000D01*
X50464285Y-85478571D01*
X51035714Y-86021428D02*
X50692857Y-86021428D01*
X50864285Y-86021428D02*
X50864285Y-85421428D01*
X50807142Y-85507142D01*
X50750000Y-85564285D01*
X50692857Y-85592857D01*
X51578571Y-85421428D02*
X51292857Y-85421428D01*
X51264285Y-85707142D01*
X51292857Y-85678571D01*
X51350000Y-85650000D01*
X51492857Y-85650000D01*
X51550000Y-85678571D01*
X51578571Y-85707142D01*
X51607142Y-85764285D01*
X51607142Y-85907142D01*
X51578571Y-85964285D01*
X51550000Y-85992857D01*
X51492857Y-86021428D01*
X51350000Y-86021428D01*
X51292857Y-85992857D01*
X51264285Y-85964285D01*
%TO.C,U3*%
X63171428Y-68907142D02*
X63657142Y-68907142D01*
X63714285Y-68878571D01*
X63742857Y-68850000D01*
X63771428Y-68792857D01*
X63771428Y-68678571D01*
X63742857Y-68621428D01*
X63714285Y-68592857D01*
X63657142Y-68564285D01*
X63171428Y-68564285D01*
X63171428Y-68335714D02*
X63171428Y-67964285D01*
X63400000Y-68164285D01*
X63400000Y-68078571D01*
X63428571Y-68021428D01*
X63457142Y-67992857D01*
X63514285Y-67964285D01*
X63657142Y-67964285D01*
X63714285Y-67992857D01*
X63742857Y-68021428D01*
X63771428Y-68078571D01*
X63771428Y-68250000D01*
X63742857Y-68307142D01*
X63714285Y-68335714D01*
%TO.C,C14*%
X46914285Y-87064285D02*
X46885714Y-87092857D01*
X46800000Y-87121428D01*
X46742857Y-87121428D01*
X46657142Y-87092857D01*
X46600000Y-87035714D01*
X46571428Y-86978571D01*
X46542857Y-86864285D01*
X46542857Y-86778571D01*
X46571428Y-86664285D01*
X46600000Y-86607142D01*
X46657142Y-86550000D01*
X46742857Y-86521428D01*
X46800000Y-86521428D01*
X46885714Y-86550000D01*
X46914285Y-86578571D01*
X47485714Y-87121428D02*
X47142857Y-87121428D01*
X47314285Y-87121428D02*
X47314285Y-86521428D01*
X47257142Y-86607142D01*
X47200000Y-86664285D01*
X47142857Y-86692857D01*
X48000000Y-86721428D02*
X48000000Y-87121428D01*
X47857142Y-86492857D02*
X47714285Y-86921428D01*
X48085714Y-86921428D01*
%TO.C,U6*%
X50371428Y-83257142D02*
X50857142Y-83257142D01*
X50914285Y-83228571D01*
X50942857Y-83200000D01*
X50971428Y-83142857D01*
X50971428Y-83028571D01*
X50942857Y-82971428D01*
X50914285Y-82942857D01*
X50857142Y-82914285D01*
X50371428Y-82914285D01*
X50371428Y-82371428D02*
X50371428Y-82485714D01*
X50400000Y-82542857D01*
X50428571Y-82571428D01*
X50514285Y-82628571D01*
X50628571Y-82657142D01*
X50857142Y-82657142D01*
X50914285Y-82628571D01*
X50942857Y-82600000D01*
X50971428Y-82542857D01*
X50971428Y-82428571D01*
X50942857Y-82371428D01*
X50914285Y-82342857D01*
X50857142Y-82314285D01*
X50714285Y-82314285D01*
X50657142Y-82342857D01*
X50628571Y-82371428D01*
X50600000Y-82428571D01*
X50600000Y-82542857D01*
X50628571Y-82600000D01*
X50657142Y-82628571D01*
X50714285Y-82657142D01*
%TO.C,U8*%
X70392857Y-84771428D02*
X70392857Y-85257142D01*
X70421428Y-85314285D01*
X70450000Y-85342857D01*
X70507142Y-85371428D01*
X70621428Y-85371428D01*
X70678571Y-85342857D01*
X70707142Y-85314285D01*
X70735714Y-85257142D01*
X70735714Y-84771428D01*
X71107142Y-85028571D02*
X71050000Y-85000000D01*
X71021428Y-84971428D01*
X70992857Y-84914285D01*
X70992857Y-84885714D01*
X71021428Y-84828571D01*
X71050000Y-84800000D01*
X71107142Y-84771428D01*
X71221428Y-84771428D01*
X71278571Y-84800000D01*
X71307142Y-84828571D01*
X71335714Y-84885714D01*
X71335714Y-84914285D01*
X71307142Y-84971428D01*
X71278571Y-85000000D01*
X71221428Y-85028571D01*
X71107142Y-85028571D01*
X71050000Y-85057142D01*
X71021428Y-85085714D01*
X70992857Y-85142857D01*
X70992857Y-85257142D01*
X71021428Y-85314285D01*
X71050000Y-85342857D01*
X71107142Y-85371428D01*
X71221428Y-85371428D01*
X71278571Y-85342857D01*
X71307142Y-85314285D01*
X71335714Y-85257142D01*
X71335714Y-85142857D01*
X71307142Y-85085714D01*
X71278571Y-85057142D01*
X71221428Y-85028571D01*
%TO.C,C7*%
X48200000Y-79114285D02*
X48171428Y-79142857D01*
X48085714Y-79171428D01*
X48028571Y-79171428D01*
X47942857Y-79142857D01*
X47885714Y-79085714D01*
X47857142Y-79028571D01*
X47828571Y-78914285D01*
X47828571Y-78828571D01*
X47857142Y-78714285D01*
X47885714Y-78657142D01*
X47942857Y-78600000D01*
X48028571Y-78571428D01*
X48085714Y-78571428D01*
X48171428Y-78600000D01*
X48200000Y-78628571D01*
X48400000Y-78571428D02*
X48800000Y-78571428D01*
X48542857Y-79171428D01*
%TO.C,R2*%
X88400000Y-83651428D02*
X88200000Y-83365714D01*
X88057142Y-83651428D02*
X88057142Y-83051428D01*
X88285714Y-83051428D01*
X88342857Y-83080000D01*
X88371428Y-83108571D01*
X88400000Y-83165714D01*
X88400000Y-83251428D01*
X88371428Y-83308571D01*
X88342857Y-83337142D01*
X88285714Y-83365714D01*
X88057142Y-83365714D01*
X88628571Y-83108571D02*
X88657142Y-83080000D01*
X88714285Y-83051428D01*
X88857142Y-83051428D01*
X88914285Y-83080000D01*
X88942857Y-83108571D01*
X88971428Y-83165714D01*
X88971428Y-83222857D01*
X88942857Y-83308571D01*
X88600000Y-83651428D01*
X88971428Y-83651428D01*
%TO.C,C11*%
X59114285Y-81489285D02*
X59085714Y-81517857D01*
X59000000Y-81546428D01*
X58942857Y-81546428D01*
X58857142Y-81517857D01*
X58800000Y-81460714D01*
X58771428Y-81403571D01*
X58742857Y-81289285D01*
X58742857Y-81203571D01*
X58771428Y-81089285D01*
X58800000Y-81032142D01*
X58857142Y-80975000D01*
X58942857Y-80946428D01*
X59000000Y-80946428D01*
X59085714Y-80975000D01*
X59114285Y-81003571D01*
X59685714Y-81546428D02*
X59342857Y-81546428D01*
X59514285Y-81546428D02*
X59514285Y-80946428D01*
X59457142Y-81032142D01*
X59400000Y-81089285D01*
X59342857Y-81117857D01*
X60257142Y-81546428D02*
X59914285Y-81546428D01*
X60085714Y-81546428D02*
X60085714Y-80946428D01*
X60028571Y-81032142D01*
X59971428Y-81089285D01*
X59914285Y-81117857D01*
%TO.C,R1*%
X56550000Y-83721428D02*
X56350000Y-83435714D01*
X56207142Y-83721428D02*
X56207142Y-83121428D01*
X56435714Y-83121428D01*
X56492857Y-83150000D01*
X56521428Y-83178571D01*
X56550000Y-83235714D01*
X56550000Y-83321428D01*
X56521428Y-83378571D01*
X56492857Y-83407142D01*
X56435714Y-83435714D01*
X56207142Y-83435714D01*
X57121428Y-83721428D02*
X56778571Y-83721428D01*
X56950000Y-83721428D02*
X56950000Y-83121428D01*
X56892857Y-83207142D01*
X56835714Y-83264285D01*
X56778571Y-83292857D01*
%TO.C,U9*%
X77892857Y-84771428D02*
X77892857Y-85257142D01*
X77921428Y-85314285D01*
X77950000Y-85342857D01*
X78007142Y-85371428D01*
X78121428Y-85371428D01*
X78178571Y-85342857D01*
X78207142Y-85314285D01*
X78235714Y-85257142D01*
X78235714Y-84771428D01*
X78550000Y-85371428D02*
X78664285Y-85371428D01*
X78721428Y-85342857D01*
X78750000Y-85314285D01*
X78807142Y-85228571D01*
X78835714Y-85114285D01*
X78835714Y-84885714D01*
X78807142Y-84828571D01*
X78778571Y-84800000D01*
X78721428Y-84771428D01*
X78607142Y-84771428D01*
X78550000Y-84800000D01*
X78521428Y-84828571D01*
X78492857Y-84885714D01*
X78492857Y-85028571D01*
X78521428Y-85085714D01*
X78550000Y-85114285D01*
X78607142Y-85142857D01*
X78721428Y-85142857D01*
X78778571Y-85114285D01*
X78807142Y-85085714D01*
X78835714Y-85028571D01*
%TO.C,C4*%
X68300000Y-66514285D02*
X68271428Y-66542857D01*
X68185714Y-66571428D01*
X68128571Y-66571428D01*
X68042857Y-66542857D01*
X67985714Y-66485714D01*
X67957142Y-66428571D01*
X67928571Y-66314285D01*
X67928571Y-66228571D01*
X67957142Y-66114285D01*
X67985714Y-66057142D01*
X68042857Y-66000000D01*
X68128571Y-65971428D01*
X68185714Y-65971428D01*
X68271428Y-66000000D01*
X68300000Y-66028571D01*
X68814285Y-66171428D02*
X68814285Y-66571428D01*
X68671428Y-65942857D02*
X68528571Y-66371428D01*
X68900000Y-66371428D01*
%TO.C,U7*%
X62892857Y-84771428D02*
X62892857Y-85257142D01*
X62921428Y-85314285D01*
X62950000Y-85342857D01*
X63007142Y-85371428D01*
X63121428Y-85371428D01*
X63178571Y-85342857D01*
X63207142Y-85314285D01*
X63235714Y-85257142D01*
X63235714Y-84771428D01*
X63464285Y-84771428D02*
X63864285Y-84771428D01*
X63607142Y-85371428D01*
D10*
%TO.C,J3*%
X88666666Y-69407380D02*
X88666666Y-70121666D01*
X88619047Y-70264523D01*
X88523809Y-70359761D01*
X88380952Y-70407380D01*
X88285714Y-70407380D01*
X89047619Y-69407380D02*
X89666666Y-69407380D01*
X89333333Y-69788333D01*
X89476190Y-69788333D01*
X89571428Y-69835952D01*
X89619047Y-69883571D01*
X89666666Y-69978809D01*
X89666666Y-70216904D01*
X89619047Y-70312142D01*
X89571428Y-70359761D01*
X89476190Y-70407380D01*
X89190476Y-70407380D01*
X89095238Y-70359761D01*
X89047619Y-70312142D01*
D11*
%TO.C,BT1*%
X46607142Y-62621428D02*
X46635714Y-62535714D01*
X46664285Y-62507142D01*
X46721428Y-62478571D01*
X46807142Y-62478571D01*
X46864285Y-62507142D01*
X46892857Y-62535714D01*
X46921428Y-62592857D01*
X46921428Y-62821428D01*
X46321428Y-62821428D01*
X46321428Y-62621428D01*
X46350000Y-62564285D01*
X46378571Y-62535714D01*
X46435714Y-62507142D01*
X46492857Y-62507142D01*
X46550000Y-62535714D01*
X46578571Y-62564285D01*
X46607142Y-62621428D01*
X46607142Y-62821428D01*
X46321428Y-62307142D02*
X46321428Y-61964285D01*
X46921428Y-62135714D02*
X46321428Y-62135714D01*
X46921428Y-61450000D02*
X46921428Y-61792857D01*
X46921428Y-61621428D02*
X46321428Y-61621428D01*
X46407142Y-61678571D01*
X46464285Y-61735714D01*
X46492857Y-61792857D01*
%TO.C,SW1*%
X45850000Y-48842857D02*
X45935714Y-48871428D01*
X46078571Y-48871428D01*
X46135714Y-48842857D01*
X46164285Y-48814285D01*
X46192857Y-48757142D01*
X46192857Y-48700000D01*
X46164285Y-48642857D01*
X46135714Y-48614285D01*
X46078571Y-48585714D01*
X45964285Y-48557142D01*
X45907142Y-48528571D01*
X45878571Y-48500000D01*
X45850000Y-48442857D01*
X45850000Y-48385714D01*
X45878571Y-48328571D01*
X45907142Y-48300000D01*
X45964285Y-48271428D01*
X46107142Y-48271428D01*
X46192857Y-48300000D01*
X46392857Y-48271428D02*
X46535714Y-48871428D01*
X46650000Y-48442857D01*
X46764285Y-48871428D01*
X46907142Y-48271428D01*
X47450000Y-48871428D02*
X47107142Y-48871428D01*
X47278571Y-48871428D02*
X47278571Y-48271428D01*
X47221428Y-48357142D01*
X47164285Y-48414285D01*
X47107142Y-48442857D01*
%TO.C,C6*%
X55900000Y-76364285D02*
X55871428Y-76392857D01*
X55785714Y-76421428D01*
X55728571Y-76421428D01*
X55642857Y-76392857D01*
X55585714Y-76335714D01*
X55557142Y-76278571D01*
X55528571Y-76164285D01*
X55528571Y-76078571D01*
X55557142Y-75964285D01*
X55585714Y-75907142D01*
X55642857Y-75850000D01*
X55728571Y-75821428D01*
X55785714Y-75821428D01*
X55871428Y-75850000D01*
X55900000Y-75878571D01*
X56414285Y-75821428D02*
X56300000Y-75821428D01*
X56242857Y-75850000D01*
X56214285Y-75878571D01*
X56157142Y-75964285D01*
X56128571Y-76078571D01*
X56128571Y-76307142D01*
X56157142Y-76364285D01*
X56185714Y-76392857D01*
X56242857Y-76421428D01*
X56357142Y-76421428D01*
X56414285Y-76392857D01*
X56442857Y-76364285D01*
X56471428Y-76307142D01*
X56471428Y-76164285D01*
X56442857Y-76107142D01*
X56414285Y-76078571D01*
X56357142Y-76050000D01*
X56242857Y-76050000D01*
X56185714Y-76078571D01*
X56157142Y-76107142D01*
X56128571Y-76164285D01*
%TO.C,C3*%
X83664285Y-58850000D02*
X83692857Y-58878571D01*
X83721428Y-58964285D01*
X83721428Y-59021428D01*
X83692857Y-59107142D01*
X83635714Y-59164285D01*
X83578571Y-59192857D01*
X83464285Y-59221428D01*
X83378571Y-59221428D01*
X83264285Y-59192857D01*
X83207142Y-59164285D01*
X83150000Y-59107142D01*
X83121428Y-59021428D01*
X83121428Y-58964285D01*
X83150000Y-58878571D01*
X83178571Y-58850000D01*
X83121428Y-58650000D02*
X83121428Y-58278571D01*
X83350000Y-58478571D01*
X83350000Y-58392857D01*
X83378571Y-58335714D01*
X83407142Y-58307142D01*
X83464285Y-58278571D01*
X83607142Y-58278571D01*
X83664285Y-58307142D01*
X83692857Y-58335714D01*
X83721428Y-58392857D01*
X83721428Y-58564285D01*
X83692857Y-58621428D01*
X83664285Y-58650000D01*
%TO.C,Y1*%
X72885714Y-59635714D02*
X73171428Y-59635714D01*
X72571428Y-59835714D02*
X72885714Y-59635714D01*
X72571428Y-59435714D01*
X73171428Y-58921428D02*
X73171428Y-59264285D01*
X73171428Y-59092857D02*
X72571428Y-59092857D01*
X72657142Y-59150000D01*
X72714285Y-59207142D01*
X72742857Y-59264285D01*
%TO.C,L3*%
X53400000Y-84321428D02*
X53114285Y-84321428D01*
X53114285Y-83721428D01*
X53542857Y-83721428D02*
X53914285Y-83721428D01*
X53714285Y-83950000D01*
X53800000Y-83950000D01*
X53857142Y-83978571D01*
X53885714Y-84007142D01*
X53914285Y-84064285D01*
X53914285Y-84207142D01*
X53885714Y-84264285D01*
X53857142Y-84292857D01*
X53800000Y-84321428D01*
X53628571Y-84321428D01*
X53571428Y-84292857D01*
X53542857Y-84264285D01*
%TO.C,U10*%
X85107142Y-84771428D02*
X85107142Y-85257142D01*
X85135714Y-85314285D01*
X85164285Y-85342857D01*
X85221428Y-85371428D01*
X85335714Y-85371428D01*
X85392857Y-85342857D01*
X85421428Y-85314285D01*
X85450000Y-85257142D01*
X85450000Y-84771428D01*
X86050000Y-85371428D02*
X85707142Y-85371428D01*
X85878571Y-85371428D02*
X85878571Y-84771428D01*
X85821428Y-84857142D01*
X85764285Y-84914285D01*
X85707142Y-84942857D01*
X86421428Y-84771428D02*
X86478571Y-84771428D01*
X86535714Y-84800000D01*
X86564285Y-84828571D01*
X86592857Y-84885714D01*
X86621428Y-85000000D01*
X86621428Y-85142857D01*
X86592857Y-85257142D01*
X86564285Y-85314285D01*
X86535714Y-85342857D01*
X86478571Y-85371428D01*
X86421428Y-85371428D01*
X86364285Y-85342857D01*
X86335714Y-85314285D01*
X86307142Y-85257142D01*
X86278571Y-85142857D01*
X86278571Y-85000000D01*
X86307142Y-84885714D01*
X86335714Y-84828571D01*
X86364285Y-84800000D01*
X86421428Y-84771428D01*
%TO.C,C9*%
X43200000Y-78464285D02*
X43171428Y-78492857D01*
X43085714Y-78521428D01*
X43028571Y-78521428D01*
X42942857Y-78492857D01*
X42885714Y-78435714D01*
X42857142Y-78378571D01*
X42828571Y-78264285D01*
X42828571Y-78178571D01*
X42857142Y-78064285D01*
X42885714Y-78007142D01*
X42942857Y-77950000D01*
X43028571Y-77921428D01*
X43085714Y-77921428D01*
X43171428Y-77950000D01*
X43200000Y-77978571D01*
X43485714Y-78521428D02*
X43600000Y-78521428D01*
X43657142Y-78492857D01*
X43685714Y-78464285D01*
X43742857Y-78378571D01*
X43771428Y-78264285D01*
X43771428Y-78035714D01*
X43742857Y-77978571D01*
X43714285Y-77950000D01*
X43657142Y-77921428D01*
X43542857Y-77921428D01*
X43485714Y-77950000D01*
X43457142Y-77978571D01*
X43428571Y-78035714D01*
X43428571Y-78178571D01*
X43457142Y-78235714D01*
X43485714Y-78264285D01*
X43542857Y-78292857D01*
X43657142Y-78292857D01*
X43714285Y-78264285D01*
X43742857Y-78235714D01*
X43771428Y-78178571D01*
%TO.C,L1*%
X43400000Y-76571428D02*
X43114285Y-76571428D01*
X43114285Y-75971428D01*
X43914285Y-76571428D02*
X43571428Y-76571428D01*
X43742857Y-76571428D02*
X43742857Y-75971428D01*
X43685714Y-76057142D01*
X43628571Y-76114285D01*
X43571428Y-76142857D01*
%TO.C,C2*%
X77650000Y-58914285D02*
X77621428Y-58942857D01*
X77535714Y-58971428D01*
X77478571Y-58971428D01*
X77392857Y-58942857D01*
X77335714Y-58885714D01*
X77307142Y-58828571D01*
X77278571Y-58714285D01*
X77278571Y-58628571D01*
X77307142Y-58514285D01*
X77335714Y-58457142D01*
X77392857Y-58400000D01*
X77478571Y-58371428D01*
X77535714Y-58371428D01*
X77621428Y-58400000D01*
X77650000Y-58428571D01*
X77878571Y-58428571D02*
X77907142Y-58400000D01*
X77964285Y-58371428D01*
X78107142Y-58371428D01*
X78164285Y-58400000D01*
X78192857Y-58428571D01*
X78221428Y-58485714D01*
X78221428Y-58542857D01*
X78192857Y-58628571D01*
X77850000Y-58971428D01*
X78221428Y-58971428D01*
%TO.C,U11*%
X89371428Y-87792857D02*
X89857142Y-87792857D01*
X89914285Y-87764285D01*
X89942857Y-87735714D01*
X89971428Y-87678571D01*
X89971428Y-87564285D01*
X89942857Y-87507142D01*
X89914285Y-87478571D01*
X89857142Y-87450000D01*
X89371428Y-87450000D01*
X89971428Y-86850000D02*
X89971428Y-87192857D01*
X89971428Y-87021428D02*
X89371428Y-87021428D01*
X89457142Y-87078571D01*
X89514285Y-87135714D01*
X89542857Y-87192857D01*
X89971428Y-86278571D02*
X89971428Y-86621428D01*
X89971428Y-86450000D02*
X89371428Y-86450000D01*
X89457142Y-86507142D01*
X89514285Y-86564285D01*
X89542857Y-86621428D01*
%TO.C,C10*%
X50264285Y-79964285D02*
X50235714Y-79992857D01*
X50150000Y-80021428D01*
X50092857Y-80021428D01*
X50007142Y-79992857D01*
X49950000Y-79935714D01*
X49921428Y-79878571D01*
X49892857Y-79764285D01*
X49892857Y-79678571D01*
X49921428Y-79564285D01*
X49950000Y-79507142D01*
X50007142Y-79450000D01*
X50092857Y-79421428D01*
X50150000Y-79421428D01*
X50235714Y-79450000D01*
X50264285Y-79478571D01*
X50835714Y-80021428D02*
X50492857Y-80021428D01*
X50664285Y-80021428D02*
X50664285Y-79421428D01*
X50607142Y-79507142D01*
X50550000Y-79564285D01*
X50492857Y-79592857D01*
X51207142Y-79421428D02*
X51264285Y-79421428D01*
X51321428Y-79450000D01*
X51350000Y-79478571D01*
X51378571Y-79535714D01*
X51407142Y-79650000D01*
X51407142Y-79792857D01*
X51378571Y-79907142D01*
X51350000Y-79964285D01*
X51321428Y-79992857D01*
X51264285Y-80021428D01*
X51207142Y-80021428D01*
X51150000Y-79992857D01*
X51121428Y-79964285D01*
X51092857Y-79907142D01*
X51064285Y-79792857D01*
X51064285Y-79650000D01*
X51092857Y-79535714D01*
X51121428Y-79478571D01*
X51150000Y-79450000D01*
X51207142Y-79421428D01*
%TO.C,L2*%
X53400000Y-81871428D02*
X53114285Y-81871428D01*
X53114285Y-81271428D01*
X53571428Y-81328571D02*
X53600000Y-81300000D01*
X53657142Y-81271428D01*
X53800000Y-81271428D01*
X53857142Y-81300000D01*
X53885714Y-81328571D01*
X53914285Y-81385714D01*
X53914285Y-81442857D01*
X53885714Y-81528571D01*
X53542857Y-81871428D01*
X53914285Y-81871428D01*
D12*
%TO.C,U5*%
X67750000Y-77650000D02*
X67750000Y-70400000D01*
X75750000Y-77650000D02*
X67750000Y-77650000D01*
X67750000Y-70400000D02*
X68500000Y-69650000D01*
X68500000Y-69650000D02*
X75750000Y-69650000D01*
X75750000Y-69650000D02*
X75750000Y-77650000D01*
X67850000Y-69650000D02*
G75*
G03*
X67850000Y-69650000I-100000J0D01*
G01*
D13*
%TO.C,J2*%
X56575000Y-48425000D02*
X56575000Y-49675000D01*
X56575000Y-49675000D02*
X57325000Y-49675000D01*
X69825000Y-44925000D02*
X69825000Y-47925000D01*
X56325000Y-44925000D02*
X56325000Y-47925000D01*
%TO.C,J1*%
X72492500Y-42075000D02*
X72492500Y-50325000D01*
X79842500Y-53575000D02*
X84992500Y-53575000D01*
X75542500Y-53575000D02*
X78492500Y-53575000D01*
D14*
X74892500Y-40975000D02*
X74892500Y-43075000D01*
D13*
X85542500Y-50375000D02*
X85542500Y-43525000D01*
X73092500Y-53575000D02*
X74242500Y-53575000D01*
X85542500Y-39525000D02*
X72492500Y-39525000D01*
X75392500Y-41075000D02*
X74392500Y-41075000D01*
X74392500Y-41075000D02*
X74892500Y-40575000D01*
X74892500Y-40575000D02*
X75392500Y-41075000D01*
G36*
X75392500Y-41075000D02*
G01*
X74392500Y-41075000D01*
X74892500Y-40575000D01*
X75392500Y-41075000D01*
G37*
X75392500Y-41075000D02*
X74392500Y-41075000D01*
X74892500Y-40575000D01*
X75392500Y-41075000D01*
D12*
%TO.C,U4*%
X78750000Y-73950000D02*
X78750000Y-70450000D01*
X79250000Y-69950000D02*
X82750000Y-69950000D01*
X82750000Y-73950000D02*
X78750000Y-73950000D01*
X82750000Y-69950000D02*
X82750000Y-73950000D01*
X78750000Y-70450000D02*
X79250000Y-69950000D01*
X78850000Y-69950000D02*
G75*
G03*
X78850000Y-69950000I-100000J0D01*
G01*
D13*
%TO.C,C16*%
X56534165Y-87060000D02*
X56765835Y-87060000D01*
X56534165Y-86340000D02*
X56765835Y-86340000D01*
%TO.C,C12*%
X57053733Y-81810000D02*
X57346267Y-81810000D01*
X57053733Y-80790000D02*
X57346267Y-80790000D01*
%TO.C,C8*%
X53646267Y-77140000D02*
X53353733Y-77140000D01*
X53646267Y-78160000D02*
X53353733Y-78160000D01*
D12*
%TO.C,U2*%
X85250000Y-59300000D02*
X90150000Y-59300000D01*
X90150000Y-59300000D02*
X90150000Y-62500000D01*
X85250000Y-62500000D02*
X85250000Y-59300000D01*
X90150000Y-62500000D02*
X85250000Y-62500000D01*
X85120000Y-64375000D02*
X85120000Y-62850000D01*
D13*
%TO.C,C1*%
X68290000Y-51303733D02*
X68290000Y-51596267D01*
X69310000Y-51303733D02*
X69310000Y-51596267D01*
D15*
%TO.C,D1*%
X46150000Y-49600000D02*
X46150000Y-49600000D01*
X46150000Y-49700000D02*
X46150000Y-49700000D01*
X46150000Y-49700000D02*
G75*
G03*
X46150000Y-49600000I0J50000D01*
G01*
X46150000Y-49600000D02*
G75*
G03*
X46150000Y-49700000I0J-50000D01*
G01*
D13*
%TO.C,C5*%
X49853733Y-75640000D02*
X50146267Y-75640000D01*
X49853733Y-76660000D02*
X50146267Y-76660000D01*
%TO.C,C13*%
X43510000Y-83653733D02*
X43510000Y-83946267D01*
X42490000Y-83653733D02*
X42490000Y-83946267D01*
D12*
%TO.C,U1*%
X79222000Y-62572000D02*
X76978000Y-62572000D01*
X75200000Y-59600000D02*
X76628000Y-59600000D01*
X76978000Y-62572000D02*
X76978000Y-59628000D01*
X79222000Y-59628000D02*
X79222000Y-62572000D01*
X76978000Y-59628000D02*
X79222000Y-59628000D01*
D13*
%TO.C,C15*%
X50172803Y-86334040D02*
X50404473Y-86334040D01*
X50172803Y-87054040D02*
X50404473Y-87054040D01*
%TO.C,C14*%
X45146267Y-87310000D02*
X44853733Y-87310000D01*
X45146267Y-86290000D02*
X44853733Y-86290000D01*
D16*
%TO.C,U6*%
X44625000Y-85675000D02*
G75*
G03*
X44625000Y-85675000I-125000J0D01*
G01*
D15*
%TO.C,U8*%
X70800000Y-85750000D02*
X70800000Y-85750000D01*
X70900000Y-85750000D02*
X70900000Y-85750000D01*
X70800000Y-85750000D02*
G75*
G03*
X70900000Y-85750000I50000J0D01*
G01*
X70900000Y-85750000D02*
G75*
G03*
X70800000Y-85750000I-50000J0D01*
G01*
D13*
%TO.C,C7*%
X49853733Y-77140000D02*
X50146267Y-77140000D01*
X49853733Y-78160000D02*
X50146267Y-78160000D01*
%TO.C,R2*%
X87482379Y-84930000D02*
X87817621Y-84930000D01*
X87482379Y-84170000D02*
X87817621Y-84170000D01*
%TO.C,C11*%
X57053733Y-80310000D02*
X57346267Y-80310000D01*
X57053733Y-79290000D02*
X57346267Y-79290000D01*
%TO.C,R1*%
X56817621Y-84880000D02*
X56482379Y-84880000D01*
X56817621Y-84120000D02*
X56482379Y-84120000D01*
D15*
%TO.C,U9*%
X78400000Y-85750000D02*
X78400000Y-85750000D01*
X78300000Y-85750000D02*
X78300000Y-85750000D01*
X78300000Y-85750000D02*
G75*
G03*
X78400000Y-85750000I50000J0D01*
G01*
X78400000Y-85750000D02*
G75*
G03*
X78300000Y-85750000I-50000J0D01*
G01*
D13*
%TO.C,C4*%
X66334165Y-65990000D02*
X66565835Y-65990000D01*
X66334165Y-66710000D02*
X66565835Y-66710000D01*
D12*
%TO.C,U7*%
X62350000Y-86700000D02*
X62350000Y-87350000D01*
X59350000Y-84850000D02*
X59350000Y-85500000D01*
X62350000Y-85500000D02*
X62350000Y-84850000D01*
D15*
X63400000Y-85850000D02*
X63400000Y-85850000D01*
D12*
X59350000Y-86700000D02*
X59350000Y-87350000D01*
D15*
X63300000Y-85850000D02*
X63300000Y-85850000D01*
X63400000Y-85850000D02*
G75*
G03*
X63300000Y-85850000I-50000J0D01*
G01*
X63300000Y-85850000D02*
G75*
G03*
X63400000Y-85850000I50000J0D01*
G01*
D13*
%TO.C,J3*%
X87890000Y-72410000D02*
X88436529Y-72410000D01*
X87890000Y-70890000D02*
X89000000Y-70890000D01*
X87890000Y-72410000D02*
X87890000Y-77425000D01*
X87890000Y-77425000D02*
X88692470Y-77425000D01*
X89563471Y-72410000D02*
X90110000Y-72410000D01*
X90110000Y-72410000D02*
X90110000Y-77425000D01*
X87890000Y-71650000D02*
X87890000Y-70890000D01*
X89307530Y-77425000D02*
X90110000Y-77425000D01*
D15*
%TO.C,BT1*%
X55100000Y-66650000D02*
X54300000Y-67650000D01*
X54300000Y-67650000D02*
X53750000Y-67150000D01*
X55100000Y-57650000D02*
X54550000Y-58150000D01*
X54550000Y-66150000D02*
X55100000Y-66650000D01*
X53750000Y-57150000D02*
X54300000Y-56650000D01*
X54300000Y-56650000D02*
X55100000Y-57650000D01*
D12*
%TO.C,SW1*%
X43950000Y-45800000D02*
X43950000Y-45800000D01*
D15*
X45200000Y-48050000D02*
X48700000Y-48050000D01*
X45200000Y-45150000D02*
X48750000Y-45150000D01*
D12*
X43950000Y-46000000D02*
X43950000Y-46000000D01*
X43950000Y-45800000D02*
G75*
G03*
X43950000Y-46000000I0J-100000D01*
G01*
X43950000Y-46000000D02*
G75*
G03*
X43950000Y-45800000I0J100000D01*
G01*
D13*
%TO.C,C6*%
X53646267Y-75640000D02*
X53353733Y-75640000D01*
X53646267Y-76660000D02*
X53353733Y-76660000D01*
%TO.C,C3*%
X84040000Y-58634165D02*
X84040000Y-58865835D01*
X84760000Y-58634165D02*
X84760000Y-58865835D01*
D15*
%TO.C,Y1*%
X73650000Y-58900000D02*
X73650000Y-59900000D01*
D12*
X72900000Y-56800000D02*
X72900000Y-56800000D01*
D15*
X72150000Y-58900000D02*
X72150000Y-59900000D01*
D12*
X72900000Y-56900000D02*
X72900000Y-56900000D01*
X72900000Y-56800000D02*
G75*
G03*
X72900000Y-56900000I0J-50000D01*
G01*
X72900000Y-56900000D02*
G75*
G03*
X72900000Y-56800000I0J50000D01*
G01*
D13*
%TO.C,L3*%
X53238748Y-86910000D02*
X53761252Y-86910000D01*
X53238748Y-84690000D02*
X53761252Y-84690000D01*
D15*
%TO.C,U10*%
X85900000Y-85750000D02*
X85900000Y-85750000D01*
X85800000Y-85750000D02*
X85800000Y-85750000D01*
X85900000Y-85750000D02*
G75*
G03*
X85800000Y-85750000I-50000J0D01*
G01*
X85800000Y-85750000D02*
G75*
G03*
X85900000Y-85750000I50000J0D01*
G01*
D13*
%TO.C,C9*%
X43684165Y-79510000D02*
X43915835Y-79510000D01*
X43684165Y-78790000D02*
X43915835Y-78790000D01*
%TO.C,L1*%
X45738748Y-76190000D02*
X46261252Y-76190000D01*
X45738748Y-78410000D02*
X46261252Y-78410000D01*
%TO.C,C2*%
X79815835Y-58340000D02*
X79584165Y-58340000D01*
X79815835Y-59060000D02*
X79584165Y-59060000D01*
D12*
%TO.C,U11*%
X88800000Y-85500000D02*
X88800000Y-86700000D01*
D13*
%TO.C,C10*%
X50184165Y-79260000D02*
X50415835Y-79260000D01*
X50184165Y-78540000D02*
X50415835Y-78540000D01*
%TO.C,L2*%
X53238748Y-80910000D02*
X53761252Y-80910000D01*
X53238748Y-78690000D02*
X53761252Y-78690000D01*
%TD*%
M02*
