%TF.GenerationSoftware,KiCad,Pcbnew,(6.0.2)*%
%TF.CreationDate,2023-11-20T16:41:37+01:00*%
%TF.ProjectId,CartGen4,43617274-4765-46e3-942e-6b696361645f,rev?*%
%TF.SameCoordinates,Original*%
%TF.FileFunction,Paste,Top*%
%TF.FilePolarity,Positive*%
%FSLAX46Y46*%
G04 Gerber Fmt 4.6, Leading zero omitted, Abs format (unit mm)*
G04 Created by KiCad (PCBNEW (6.0.2)) date 2023-11-20 16:41:37*
%MOMM*%
%LPD*%
G01*
G04 APERTURE LIST*
G04 Aperture macros list*
%AMRoundRect*
0 Rectangle with rounded corners*
0 $1 Rounding radius*
0 $2 $3 $4 $5 $6 $7 $8 $9 X,Y pos of 4 corners*
0 Add a 4 corners polygon primitive as box body*
4,1,4,$2,$3,$4,$5,$6,$7,$8,$9,$2,$3,0*
0 Add four circle primitives for the rounded corners*
1,1,$1+$1,$2,$3*
1,1,$1+$1,$4,$5*
1,1,$1+$1,$6,$7*
1,1,$1+$1,$8,$9*
0 Add four rect primitives between the rounded corners*
20,1,$1+$1,$2,$3,$4,$5,0*
20,1,$1+$1,$4,$5,$6,$7,0*
20,1,$1+$1,$6,$7,$8,$9,0*
20,1,$1+$1,$8,$9,$2,$3,0*%
%AMOutline5P*
0 Free polygon, 5 corners , with rotation*
0 The origin of the aperture is its center*
0 number of corners: always 5*
0 $1 to $10 corner X, Y*
0 $11 Rotation angle, in degrees counterclockwise*
0 create outline with 5 corners*
4,1,5,$1,$2,$3,$4,$5,$6,$7,$8,$9,$10,$1,$2,$11*%
%AMOutline6P*
0 Free polygon, 6 corners , with rotation*
0 The origin of the aperture is its center*
0 number of corners: always 6*
0 $1 to $12 corner X, Y*
0 $13 Rotation angle, in degrees counterclockwise*
0 create outline with 6 corners*
4,1,6,$1,$2,$3,$4,$5,$6,$7,$8,$9,$10,$11,$12,$1,$2,$13*%
%AMOutline7P*
0 Free polygon, 7 corners , with rotation*
0 The origin of the aperture is its center*
0 number of corners: always 7*
0 $1 to $14 corner X, Y*
0 $15 Rotation angle, in degrees counterclockwise*
0 create outline with 7 corners*
4,1,7,$1,$2,$3,$4,$5,$6,$7,$8,$9,$10,$11,$12,$13,$14,$1,$2,$15*%
%AMOutline8P*
0 Free polygon, 8 corners , with rotation*
0 The origin of the aperture is its center*
0 number of corners: always 8*
0 $1 to $16 corner X, Y*
0 $17 Rotation angle, in degrees counterclockwise*
0 create outline with 8 corners*
4,1,8,$1,$2,$3,$4,$5,$6,$7,$8,$9,$10,$11,$12,$13,$14,$15,$16,$1,$2,$17*%
G04 Aperture macros list end*
%ADD10C,0.250000*%
%ADD11R,0.760000X2.049999*%
%ADD12R,0.900000X0.930000*%
%ADD13R,1.050000X0.780000*%
%ADD14R,0.700000X1.100000*%
%ADD15R,0.700000X3.330000*%
%ADD16R,1.140000X1.830000*%
%ADD17C,0.230000*%
%ADD18RoundRect,0.155000X-0.212500X-0.155000X0.212500X-0.155000X0.212500X0.155000X-0.212500X0.155000X0*%
%ADD19RoundRect,0.237500X-0.300000X-0.237500X0.300000X-0.237500X0.300000X0.237500X-0.300000X0.237500X0*%
%ADD20RoundRect,0.237500X0.300000X0.237500X-0.300000X0.237500X-0.300000X-0.237500X0.300000X-0.237500X0*%
%ADD21R,0.650000X1.525000*%
%ADD22RoundRect,0.237500X-0.237500X0.300000X-0.237500X-0.300000X0.237500X-0.300000X0.237500X0.300000X0*%
%ADD23R,0.260000X0.360000*%
%ADD24R,1.428000X0.300000*%
%ADD25R,0.800000X0.900000*%
%ADD26Outline5P,-0.150000X0.425000X0.150000X0.425000X0.150000X-0.365000X0.090000X-0.425000X-0.150000X-0.425000X180.000000*%
%ADD27R,0.300000X0.850000*%
%ADD28Outline5P,-0.150000X0.425000X0.150000X0.425000X0.150000X-0.425000X-0.090000X-0.425000X-0.150000X-0.365000X180.000000*%
%ADD29Outline5P,-0.150000X0.365000X-0.090000X0.425000X0.150000X0.425000X0.150000X-0.425000X-0.150000X-0.425000X90.000000*%
%ADD30R,0.850000X0.300000*%
%ADD31Outline5P,-0.150000X0.425000X0.090000X0.425000X0.150000X0.365000X0.150000X-0.425000X-0.150000X-0.425000X90.000000*%
%ADD32Outline5P,-0.150000X0.365000X-0.090000X0.425000X0.150000X0.425000X0.150000X-0.425000X-0.150000X-0.425000X180.000000*%
%ADD33Outline5P,-0.150000X0.425000X0.090000X0.425000X0.150000X0.365000X0.150000X-0.425000X-0.150000X-0.425000X180.000000*%
%ADD34Outline5P,-0.150000X0.425000X0.150000X0.425000X0.150000X-0.365000X0.090000X-0.425000X-0.150000X-0.425000X90.000000*%
%ADD35Outline5P,-0.150000X0.425000X0.150000X0.425000X0.150000X-0.425000X-0.090000X-0.425000X-0.150000X-0.365000X90.000000*%
%ADD36R,3.550000X3.550000*%
%ADD37R,1.000000X0.290000*%
%ADD38R,0.290000X1.000000*%
%ADD39R,2.900000X0.900000*%
%ADD40RoundRect,0.160000X-0.197500X-0.160000X0.197500X-0.160000X0.197500X0.160000X-0.197500X0.160000X0*%
%ADD41RoundRect,0.160000X0.197500X0.160000X-0.197500X0.160000X-0.197500X-0.160000X0.197500X-0.160000X0*%
%ADD42R,0.900000X0.240000*%
%ADD43R,0.240000X0.900000*%
%ADD44R,1.400000X0.900000*%
%ADD45R,3.170000X2.540000*%
%ADD46R,3.960000X3.960000*%
%ADD47R,1.400000X1.050000*%
%ADD48RoundRect,0.155000X-0.155000X0.212500X-0.155000X-0.212500X0.155000X-0.212500X0.155000X0.212500X0*%
%ADD49R,1.800000X1.000000*%
%ADD50RoundRect,0.250000X-0.375000X-0.850000X0.375000X-0.850000X0.375000X0.850000X-0.375000X0.850000X0*%
%ADD51RoundRect,0.155000X0.212500X0.155000X-0.212500X0.155000X-0.212500X-0.155000X0.212500X-0.155000X0*%
%ADD52R,0.400000X1.200000*%
G04 APERTURE END LIST*
D10*
%TO.C,U5*%
X68500000Y-70400000D03*
X69000000Y-70400000D03*
X69500000Y-70400000D03*
X70000000Y-70400000D03*
X70500000Y-70400000D03*
X71000000Y-70400000D03*
X71500000Y-70400000D03*
X72000000Y-70400000D03*
X72500000Y-70400000D03*
X73000000Y-70400000D03*
X73500000Y-70400000D03*
X74000000Y-70400000D03*
X74500000Y-70400000D03*
X75000000Y-70400000D03*
X68500000Y-70900000D03*
X69000000Y-70900000D03*
X69500000Y-70900000D03*
X70000000Y-70900000D03*
X70500000Y-70900000D03*
X71000000Y-70900000D03*
X71500000Y-70900000D03*
X72000000Y-70900000D03*
X72500000Y-70900000D03*
X73000000Y-70900000D03*
X73500000Y-70900000D03*
X74000000Y-70900000D03*
X74500000Y-70900000D03*
X75000000Y-70900000D03*
X68500000Y-71400000D03*
X69000000Y-71400000D03*
X69500000Y-71400000D03*
X70000000Y-71400000D03*
X70500000Y-71400000D03*
X71000000Y-71400000D03*
X71500000Y-71400000D03*
X72000000Y-71400000D03*
X72500000Y-71400000D03*
X73000000Y-71400000D03*
X73500000Y-71400000D03*
X74000000Y-71400000D03*
X74500000Y-71400000D03*
X75000000Y-71400000D03*
X68500000Y-71900000D03*
X69000000Y-71900000D03*
X69500000Y-71900000D03*
X74000000Y-71900000D03*
X74500000Y-71900000D03*
X75000000Y-71900000D03*
X68500000Y-72400000D03*
X69000000Y-72400000D03*
X69500000Y-72400000D03*
X74000000Y-72400000D03*
X74500000Y-72400000D03*
X75000000Y-72400000D03*
X68500000Y-72900000D03*
X69000000Y-72900000D03*
X69500000Y-72900000D03*
X74000000Y-72900000D03*
X74500000Y-72900000D03*
X75000000Y-72900000D03*
X68500000Y-73400000D03*
X69000000Y-73400000D03*
X69500000Y-73400000D03*
X74000000Y-73400000D03*
X74500000Y-73400000D03*
X75000000Y-73400000D03*
X68500000Y-73900000D03*
X69000000Y-73900000D03*
X69500000Y-73900000D03*
X74000000Y-73900000D03*
X74500000Y-73900000D03*
X75000000Y-73900000D03*
X68500000Y-74400000D03*
X69000000Y-74400000D03*
X69500000Y-74400000D03*
X74000000Y-74400000D03*
X74500000Y-74400000D03*
X75000000Y-74400000D03*
X68500000Y-74900000D03*
X69000000Y-74900000D03*
X69500000Y-74900000D03*
X74000000Y-74900000D03*
X74500000Y-74900000D03*
X75000000Y-74900000D03*
X68500000Y-75400000D03*
X69000000Y-75400000D03*
X69500000Y-75400000D03*
X74000000Y-75400000D03*
X74500000Y-75400000D03*
X75000000Y-75400000D03*
X68500000Y-75900000D03*
X69000000Y-75900000D03*
X69500000Y-75900000D03*
X70000000Y-75900000D03*
X70500000Y-75900000D03*
X71000000Y-75900000D03*
X71500000Y-75900000D03*
X72000000Y-75900000D03*
X72500000Y-75900000D03*
X73000000Y-75900000D03*
X73500000Y-75900000D03*
X74000000Y-75900000D03*
X74500000Y-75900000D03*
X75000000Y-75900000D03*
X68500000Y-76400000D03*
X69000000Y-76400000D03*
X69500000Y-76400000D03*
X70000000Y-76400000D03*
X70500000Y-76400000D03*
X71000000Y-76400000D03*
X71500000Y-76400000D03*
X72000000Y-76400000D03*
X72500000Y-76400000D03*
X73000000Y-76400000D03*
X73500000Y-76400000D03*
X74000000Y-76400000D03*
X74500000Y-76400000D03*
X75000000Y-76400000D03*
X68500000Y-76900000D03*
X69000000Y-76900000D03*
X69500000Y-76900000D03*
X70000000Y-76900000D03*
X70500000Y-76900000D03*
X71000000Y-76900000D03*
X71500000Y-76900000D03*
X72000000Y-76900000D03*
X72500000Y-76900000D03*
X73000000Y-76900000D03*
X73500000Y-76900000D03*
X74000000Y-76900000D03*
X74500000Y-76900000D03*
X75000000Y-76900000D03*
%TD*%
D11*
%TO.C,J2*%
X57360000Y-48300000D03*
X57360000Y-44550000D03*
X58630000Y-48300000D03*
X58630000Y-44550000D03*
X59900000Y-48300000D03*
X59900000Y-44550000D03*
X61170000Y-48300000D03*
X61170000Y-44550000D03*
X62440000Y-48300000D03*
X62440000Y-44550000D03*
X63710000Y-48300000D03*
X63710000Y-44550000D03*
X64980000Y-48300000D03*
X64980000Y-44550000D03*
X66250000Y-48300000D03*
X66250000Y-44550000D03*
X67520000Y-48300000D03*
X67520000Y-44550000D03*
X68790000Y-48300000D03*
X68790000Y-44550000D03*
%TD*%
D12*
%TO.C,J1*%
X74902500Y-53390000D03*
D13*
X79167500Y-53465000D03*
D14*
X76692500Y-40925000D03*
X77792500Y-40925000D03*
X78892500Y-40925000D03*
X79992500Y-40925000D03*
X81092500Y-40925000D03*
X82192500Y-40925000D03*
X83292500Y-40925000D03*
X84392500Y-40925000D03*
D15*
X85492500Y-52190000D03*
X72592500Y-52190000D03*
X85472500Y-41690000D03*
D16*
X72812500Y-40940000D03*
%TD*%
D17*
%TO.C,U4*%
X79250000Y-70450000D03*
X79750000Y-70450000D03*
X80250000Y-70450000D03*
X80750000Y-70450000D03*
X81250000Y-70450000D03*
X81750000Y-70450000D03*
X82250000Y-70450000D03*
X79250000Y-70950000D03*
X79750000Y-70950000D03*
X80250000Y-70950000D03*
X80750000Y-70950000D03*
X81250000Y-70950000D03*
X81750000Y-70950000D03*
X82250000Y-70950000D03*
X79250000Y-71450000D03*
X79750000Y-71450000D03*
X80250000Y-71450000D03*
X80750000Y-71450000D03*
X81250000Y-71450000D03*
X81750000Y-71450000D03*
X82250000Y-71450000D03*
X79250000Y-71950000D03*
X79750000Y-71950000D03*
X80250000Y-71950000D03*
X80750000Y-71950000D03*
X81250000Y-71950000D03*
X81750000Y-71950000D03*
X82250000Y-71950000D03*
X79250000Y-72450000D03*
X79750000Y-72450000D03*
X80250000Y-72450000D03*
X80750000Y-72450000D03*
X81250000Y-72450000D03*
X81750000Y-72450000D03*
X82250000Y-72450000D03*
X79250000Y-72950000D03*
X79750000Y-72950000D03*
X80250000Y-72950000D03*
X80750000Y-72950000D03*
X81250000Y-72950000D03*
X81750000Y-72950000D03*
X82250000Y-72950000D03*
X79250000Y-73450000D03*
X79750000Y-73450000D03*
X80250000Y-73450000D03*
X80750000Y-73450000D03*
X81250000Y-73450000D03*
X81750000Y-73450000D03*
X82250000Y-73450000D03*
%TD*%
D18*
%TO.C,C16*%
X56082500Y-86700000D03*
X57217500Y-86700000D03*
%TD*%
D19*
%TO.C,C12*%
X56337500Y-81300000D03*
X58062500Y-81300000D03*
%TD*%
D20*
%TO.C,C8*%
X54362500Y-77650000D03*
X52637500Y-77650000D03*
%TD*%
D21*
%TO.C,U2*%
X85795000Y-63612000D03*
X87065000Y-63612000D03*
X88335000Y-63612000D03*
X89605000Y-63612000D03*
X89605000Y-58188000D03*
X88335000Y-58188000D03*
X87065000Y-58188000D03*
X85795000Y-58188000D03*
%TD*%
D22*
%TO.C,C1*%
X68800000Y-50587500D03*
X68800000Y-52312500D03*
%TD*%
D23*
%TO.C,D1*%
X46470000Y-49650000D03*
X46930000Y-49650000D03*
%TD*%
D19*
%TO.C,C5*%
X49137500Y-76150000D03*
X50862500Y-76150000D03*
%TD*%
D22*
%TO.C,C13*%
X43000000Y-82937500D03*
X43000000Y-84662500D03*
%TD*%
D24*
%TO.C,U1*%
X75914000Y-60100000D03*
X75914000Y-60600000D03*
X75914000Y-61100000D03*
X75914000Y-61600000D03*
X75914000Y-62100000D03*
X80286000Y-62100000D03*
X80286000Y-61600000D03*
X80286000Y-61100000D03*
X80286000Y-60600000D03*
X80286000Y-60100000D03*
%TD*%
D18*
%TO.C,C15*%
X49721138Y-86694040D03*
X50856138Y-86694040D03*
%TD*%
D25*
%TO.C,U3*%
X64650000Y-67700000D03*
X64650000Y-69200000D03*
X65850000Y-69200000D03*
X65850000Y-67700000D03*
%TD*%
D20*
%TO.C,C14*%
X45862500Y-86800000D03*
X44137500Y-86800000D03*
%TD*%
D26*
%TO.C,U6*%
X45250000Y-85250000D03*
D27*
X45750000Y-85250000D03*
X46250000Y-85250000D03*
X46750000Y-85250000D03*
X47250000Y-85250000D03*
X47750000Y-85250000D03*
X48250000Y-85250000D03*
D28*
X48750000Y-85250000D03*
D29*
X49450000Y-84550000D03*
D30*
X49450000Y-84050000D03*
X49450000Y-83550000D03*
X49450000Y-83050000D03*
X49450000Y-82550000D03*
X49450000Y-82050000D03*
X49450000Y-81550000D03*
D31*
X49450000Y-81050000D03*
D32*
X48750000Y-80350000D03*
D27*
X48250000Y-80350000D03*
X47750000Y-80350000D03*
X47250000Y-80350000D03*
X46750000Y-80350000D03*
X46250000Y-80350000D03*
X45750000Y-80350000D03*
D33*
X45250000Y-80350000D03*
D34*
X44550000Y-81050000D03*
D30*
X44550000Y-81550000D03*
X44550000Y-82050000D03*
X44550000Y-82550000D03*
X44550000Y-83050000D03*
X44550000Y-83550000D03*
X44550000Y-84050000D03*
D35*
X44550000Y-84550000D03*
D36*
X47000000Y-82800000D03*
%TD*%
D37*
%TO.C,U8*%
X69850000Y-85750000D03*
D38*
X69350000Y-84650000D03*
X68850000Y-84650000D03*
X68350000Y-84650000D03*
X67850000Y-84650000D03*
X67350000Y-84650000D03*
X66850000Y-84650000D03*
X66350000Y-84650000D03*
X65850000Y-84650000D03*
D37*
X65350000Y-85750000D03*
X65350000Y-86250000D03*
D38*
X65850000Y-87350000D03*
X66350000Y-87350000D03*
X66850000Y-87350000D03*
X67350000Y-87350000D03*
X67850000Y-87350000D03*
X68350000Y-87350000D03*
X68850000Y-87350000D03*
X69350000Y-87350000D03*
D37*
X69850000Y-86250000D03*
D39*
X67600000Y-86000000D03*
%TD*%
D19*
%TO.C,C7*%
X49137500Y-77650000D03*
X50862500Y-77650000D03*
%TD*%
D40*
%TO.C,R2*%
X87052500Y-84550000D03*
X88247500Y-84550000D03*
%TD*%
D19*
%TO.C,C11*%
X56337500Y-79800000D03*
X58062500Y-79800000D03*
%TD*%
D41*
%TO.C,R1*%
X57247500Y-84500000D03*
X56052500Y-84500000D03*
%TD*%
D37*
%TO.C,U9*%
X77350000Y-85750000D03*
D38*
X76850000Y-84650000D03*
X76350000Y-84650000D03*
X75850000Y-84650000D03*
X75350000Y-84650000D03*
X74850000Y-84650000D03*
X74350000Y-84650000D03*
X73850000Y-84650000D03*
X73350000Y-84650000D03*
D37*
X72850000Y-85750000D03*
X72850000Y-86250000D03*
D38*
X73350000Y-87350000D03*
X73850000Y-87350000D03*
X74350000Y-87350000D03*
X74850000Y-87350000D03*
X75350000Y-87350000D03*
X75850000Y-87350000D03*
X76350000Y-87350000D03*
X76850000Y-87350000D03*
D37*
X77350000Y-86250000D03*
D39*
X75100000Y-86000000D03*
%TD*%
D18*
%TO.C,C4*%
X65882500Y-66350000D03*
X67017500Y-66350000D03*
%TD*%
D42*
%TO.C,U7*%
X62400000Y-85850000D03*
D43*
X61850000Y-84800000D03*
X61350000Y-84800000D03*
X60850000Y-84800000D03*
X60350000Y-84800000D03*
X59850000Y-84800000D03*
D42*
X59300000Y-85850000D03*
X59300000Y-86350000D03*
D43*
X59850000Y-87400000D03*
X60350000Y-87400000D03*
X60850000Y-87400000D03*
X61350000Y-87400000D03*
X61850000Y-87400000D03*
D42*
X62400000Y-86350000D03*
D44*
X60850000Y-86100000D03*
%TD*%
D45*
%TO.C,BT1*%
X49300000Y-54530000D03*
X49300000Y-69770000D03*
D46*
X49300000Y-62150000D03*
%TD*%
D47*
%TO.C,SW1*%
X45150000Y-45875000D03*
X48750000Y-45875000D03*
X45150000Y-47325000D03*
X48750000Y-47325000D03*
%TD*%
D20*
%TO.C,C6*%
X54362500Y-76150000D03*
X52637500Y-76150000D03*
%TD*%
D48*
%TO.C,C3*%
X84400000Y-58182500D03*
X84400000Y-59317500D03*
%TD*%
D49*
%TO.C,Y1*%
X72900000Y-58150000D03*
X72900000Y-60650000D03*
%TD*%
D50*
%TO.C,L3*%
X52425000Y-85800000D03*
X54575000Y-85800000D03*
%TD*%
D37*
%TO.C,U10*%
X84850000Y-85750000D03*
D38*
X84350000Y-84650000D03*
X83850000Y-84650000D03*
X83350000Y-84650000D03*
X82850000Y-84650000D03*
X82350000Y-84650000D03*
X81850000Y-84650000D03*
X81350000Y-84650000D03*
X80850000Y-84650000D03*
D37*
X80350000Y-85750000D03*
X80350000Y-86250000D03*
D38*
X80850000Y-87350000D03*
X81350000Y-87350000D03*
X81850000Y-87350000D03*
X82350000Y-87350000D03*
X82850000Y-87350000D03*
X83350000Y-87350000D03*
X83850000Y-87350000D03*
X84350000Y-87350000D03*
D37*
X84850000Y-86250000D03*
D39*
X82600000Y-86000000D03*
%TD*%
D18*
%TO.C,C9*%
X43232500Y-79150000D03*
X44367500Y-79150000D03*
%TD*%
D50*
%TO.C,L1*%
X44925000Y-77300000D03*
X47075000Y-77300000D03*
%TD*%
D51*
%TO.C,C2*%
X80267500Y-58700000D03*
X79132500Y-58700000D03*
%TD*%
D52*
%TO.C,U11*%
X88350000Y-86100000D03*
X87700000Y-86100000D03*
X87050000Y-86100000D03*
X87050000Y-88000000D03*
X88350000Y-88000000D03*
%TD*%
D18*
%TO.C,C10*%
X49732500Y-78900000D03*
X50867500Y-78900000D03*
%TD*%
D50*
%TO.C,L2*%
X52425000Y-79800000D03*
X54575000Y-79800000D03*
%TD*%
M02*
